<svg id="Layer_1" height="512" viewBox="0 0 512 512" width="512" xmlns="http://www.w3.org/2000/svg" data-name="Layer 1"><path d="m339.2 357.59a10.418 10.418 0 0 0 -3.97-7.98l.05-.07s69.42-23.34 96.96-94.7c46.62-15.81 68.76 3.98 68.76 3.98-32.89 120.6-161.8 106.01-161.8 106.01z" fill="#fdddd8"/><path d="m432.24 254.84c-27.54 71.36-96.96 94.7-96.96 94.7l-.05.07a10.344 10.344 0 0 0 -6.48-2.26h-24.84s57.76-40.41 62.83-136.2c40.08-28.58 76.48-23.99 76.48-23.99.71 26.27-3.65 48.68-10.98 67.68z" fill="#f5cac1"/><path d="m282.57 347.35h-25.62s53.93-76.11 36.28-156.21c21.61-34.55 70.33-38.16 70.33-38.16a284.457 284.457 0 0 1 3.18 58.17c-5.07 95.79-62.83 136.2-62.83 136.2z" fill="#fdddd8"/><path d="m254.25 347.35s-54.71-76.39-37.03-156.65c5.2-23.59 16.65-47.52 37.59-69.94h.6c21.07 22.56 32.59 46.65 37.82 70.38 17.65 80.1-36.28 156.21-36.28 156.21z" fill="#f5cac1"/><path d="m229.88 347.35h-22.48s-58.26-40.76-62.89-137.44a285.371 285.371 0 0 1 3.24-56.93s47.86 3.16 69.47 37.72c-17.68 80.26 37.03 156.65 37.03 156.65z" fill="#fdddd8"/><path d="m191.27 347.35h-4.1a10.371 10.371 0 0 0 -5.89 1.82l-.05-.07s-72.12-23.03-100.88-94.15c-7.69-19-12.28-41.44-11.57-67.79 0 0 35.65-5.83 75.73 22.75 4.63 96.68 62.89 137.44 62.89 137.44z" fill="#f5cac1"/><path d="m181.28 349.17a10.434 10.434 0 0 0 -4.56 8.63v6.41s-132.83 15.21-165.72-105.39c0 0 22.71-19.68 69.35-3.87 28.76 71.12 100.88 94.15 100.88 94.15z" fill="#fdddd8"/><path d="m41.14 258.82s6.766-5.9 20.6-8.643c-34.026-5.75-50.569 8.643-50.569 8.643 32.894 120.6 165.829 105.39 165.829 105.39v-.01c-41-3.211-112.913-21.24-135.86-105.38z" fill="#d1b8b6"/><path d="m335.13 349.435a10.221 10.221 0 0 0 -6.38-2.435h-141.58a10.083 10.083 0 0 0 -5.75 2 10.633 10.633 0 0 0 -4.42 8.8v22.99a10.013 10.013 0 0 0 10.17 10.21h141.58a10 10 0 0 0 10.25-10.11v-23.3a10.463 10.463 0 0 0 -3.87-8.155z" fill="#c79a83"/><path d="m207 380.79v-22.99a10.633 10.633 0 0 1 4.42-8.8 10.083 10.083 0 0 1 5.75-2h-30a10.083 10.083 0 0 0 -5.75 2 10.633 10.633 0 0 0 -4.42 8.8v22.99a10.013 10.013 0 0 0 10.17 10.21h30a10.013 10.013 0 0 1 -10.17-10.21z" fill="#8e6f61"/><g fill="#284268"><path d="m441.574 245.883a182.592 182.592 0 0 0 7.643-58.883 6 6 0 0 0 -5.248-5.792c-1.455-.182-33.474-3.853-70.946 18.67a295.421 295.421 0 0 0 -3.534-47.806 5.987 5.987 0 0 0 -6.373-5.072c-1.9.141-42.465 3.474-67.309 30.86-6.9-22.353-18.945-42.912-36.015-61.191a6 6 0 0 0 -4.386-1.905h-.6a6 6 0 0 0 -4.386 1.905c-16.956 18.156-28.911 38.562-35.775 60.74-24.726-27.322-64.631-30.289-66.5-30.412a6.006 6.006 0 0 0 -6.326 5.076 296.226 296.226 0 0 0 -3.545 46.608c-37.5-22.45-69.031-17.674-70.465-17.44a6 6 0 0 0 -5.026 5.759 176.011 176.011 0 0 0 8.028 58.944c-41.711-10.144-62.79 7.516-63.74 8.339a6 6 0 0 0 -1.86 6.113c17.715 64.948 63.749 91.364 99.249 102.086a203.686 203.686 0 0 0 57.876 8.363c3.272 0 6.091-.082 8.383-.19v10.138a16.466 16.466 0 0 0 16.447 16.447h141.585a16.465 16.465 0 0 0 16.449-16.447v-9.542c2 .084 4.39.147 7.14.147a194.251 194.251 0 0 0 57.227-8.627c34.581-10.874 79.52-37.462 97.225-102.375a6 6 0 0 0 -1.792-6.052c-.932-.832-21.621-18.691-63.426-8.461zm-145.015 26.647c7.1-28.251 8.042-55.139 2.977-80.059 15.964-23.442 46.444-30.721 58.929-32.771 8.872 66.015-6.755 111.691-21.7 138.631-14.052 25.331-30.085 39.213-34.882 43.024h-6.343c14.42-18.334 24.726-38.843 31.154-53.883a6 6 0 1 0 -11.035-4.716c-7.025 16.441-18.871 39.7-35.766 58.6h-12a262.385 262.385 0 0 0 28.666-68.826zm-74.805-73.73c4.316-25.532 15.528-48.853 33.354-69.408 17.79 20.5 29.044 43.767 33.476 69.226 3.831 22.009 2.628 45.774-3.575 70.634a250.343 250.343 0 0 1 -22.942 58.022l.143-42.47a6 6 0 0 0 -5.98-6.02h-.021a6 6 0 0 0 -6 5.98l-.149 44.418a251.535 251.535 0 0 1 -24.282-59.609c-6.397-24.906-7.751-48.718-4.024-70.773zm-68.9-39.139c12.3 1.956 42.166 9 58.063 32.366-5.086 25.054-4.06 52.1 3.243 80.531a263.021 263.021 0 0 0 29.08 68.794h-10.68c-16.894-18.9-28.741-42.158-35.765-58.6a6 6 0 0 0 -11.036 4.716c6.428 15.04 16.734 35.549 31.155 53.883h-7.485c-4.8-3.811-20.83-17.693-34.882-43.024-14.947-26.942-30.58-72.627-21.696-138.664zm-46.071 169.28a6 6 0 0 0 -4.843 10.979c15.408 6.8 34.34 14.455 53.789 18.762a190.4 190.4 0 0 1 -48.177-7.8c-45.838-13.966-75.962-44.082-89.592-89.55 6.954-4 25.968-11.674 58.029-1.492a165.548 165.548 0 0 0 43.811 59.67 196.5 196.5 0 0 0 43.03 28.39c-19.96-3.8-39.975-11.87-56.047-18.959zm36.169-39.022a6 6 0 0 0 -9.767 6.972 265.923 265.923 0 0 0 36.647 41.029 184.977 184.977 0 0 1 -42.146-27.457c-18.835-16.415-32.686-35.413-41.486-56.829a6.035 6.035 0 0 0 -.715-1.786q-10.715-27.075-10.772-59.139a89.414 89.414 0 0 1 16.544 1.122c11.463 1.8 28.83 6.664 47.5 19.391 2.5 40.865 14.269 71.221 25.658 91.564a174.105 174.105 0 0 0 23.269 32.459c-22.767-17.745-39.733-40.322-44.732-47.326zm190.248 90.874a4.451 4.451 0 0 1 -4.446 4.447h-141.588a4.452 4.452 0 0 1 -4.447-4.447v-22.993a4.452 4.452 0 0 1 4.447-4.447h141.585a4.451 4.451 0 0 1 4.449 4.447zm8.4-40.35c16-14.36 28.77-31.093 37.663-43.552a6 6 0 0 0 -9.767-6.972c-10.722 15.021-27.281 36.507-48.11 51.435h-1.657a170.8 170.8 0 0 0 27.175-36.568c11.273-20.137 22.922-50.085 25.579-90.325 28.09-19.184 54.087-21.524 64.81-21.553q-.021 31.887-10.26 58.946a6.026 6.026 0 0 0 -.672 1.759c-8.389 21.387-21.588 40.387-39.544 56.838a177.337 177.337 0 0 1 -45.217 29.992zm64.754 10.757a179.3 179.3 0 0 1 -42.154 7.756c13.594-3.981 26.082-9.747 36.891-14.745 3.31-1.531 6.437-2.976 9.419-4.292a6 6 0 1 0 -4.843-10.979c-3.079 1.358-6.252 2.825-9.612 4.378-14.219 6.575-30.029 13.866-47.091 16.968a188.666 188.666 0 0 0 45.589-30.649 165.881 165.881 0 0 0 42.094-59.922c32.033-10.164 50.628-2.466 57.413 1.555-13.59 45.53-43.079 75.772-87.706 89.93z"/><path d="m255.061 274.212h.011a6 6 0 0 0 5.989-6.01l-.031-18.045a6 6 0 0 0 -6-5.99h-.01a6 6 0 0 0 -5.99 6.01l.031 18.046a6 6 0 0 0 6 5.989z"/><path d="m180.526 274.38a6 6 0 0 0 11.247-4.185c-3.527-9.481-5.25-15.719-5.267-15.781a6 6 0 0 0 -11.573 3.169c.074.272 1.867 6.768 5.593 16.797z"/><path d="m126.83 264.444a6 6 0 0 0 -10.63 5.576c.13.25 3.27 6.211 9.066 15.207a6 6 0 1 0 10.087-6.5c-5.475-8.503-8.494-14.227-8.523-14.283z"/><path d="m94.541 323.19c-9.051-4.518-14.568-7.9-14.623-7.933a6 6 0 0 0 -6.292 10.218c.239.148 5.981 3.673 15.556 8.452a6 6 0 0 0 5.359-10.737z"/><path d="m324.208 277.911a6 6 0 0 0 7.716-3.531c3.731-10.029 5.519-16.525 5.594-16.8a6 6 0 0 0 -11.574-3.169c-.017.062-1.74 6.3-5.267 15.781a6 6 0 0 0 3.531 7.719z"/><path d="m396.247 270.021a6 6 0 0 0 -10.625-5.578c-.03.057-3.051 5.78-8.529 14.284a6 6 0 0 0 10.088 6.5c5.795-8.996 8.935-14.957 9.066-15.206z"/><path d="m432.532 315.257c-.055.034-5.572 3.415-14.623 7.933a6 6 0 1 0 5.36 10.737c9.574-4.779 15.316-8.3 15.556-8.452a6 6 0 0 0 -6.293-10.218z"/></g></svg>