<svg id="Layer_1" height="512" viewBox="0 0 512 512" width="512" xmlns="http://www.w3.org/2000/svg" data-name="Layer 1"><path d="m473.67 74.98a2.143 2.143 0 0 1 1.11 3.9c-71.25 49.89-112.74 24.8-127.9 14.35-17.41-11.99-38.49-5.93-39.07-5.76 7.74-11.55 21.87-27.55 44.54-36.43 26.22-10.27 55.76-6.44 79.3 9 10.45 6.85 25.24 14.08 42.02 14.94z" fill="#81c83d"/><path d="m300.17 101.25 9.19 21.63a30.689 30.689 0 0 0 -3.02 2.75 12.08 12.08 0 0 1 -10.18 3.66c-.97-.12-2.03-.21-3.15-.24v-.01l-17.31-40.37a2.933 2.933 0 0 1 .32-2.86l8.02-11.13a2.928 2.928 0 0 1 5.07.57z" fill="#8e827d"/><path d="m258.31 192.1c-2.84 33.63-3.4 63.29-14.09 106.33-6.08 24.48-7.49 58.76 1.26 89.99h-.01c-.7.18-8 2.5-67.69 22.75-23.91 8.11-50.29 8.05-75.17.48-83.86-25.54-117.74-125.43-69.39-198.53 35.41-53.53 95.15-70.24 144.56-51.33 72.78 27.87 80.53 30.31 80.53 30.31z" fill="#4ca987"/><path d="m442.17 235.39c51.08 44.95 117.45 168.15-37.84 223.04-100 27.21-144.03-17.02-158.85-70.01-8.75-31.23-7.34-65.51-1.26-89.99 10.69-43.04 11.25-72.7 14.09-106.33.77-9.14 1.71-18.57 3.07-28.64 4.08-30.22 20.84-34.77 31.63-34.41 1.12.03 2.18.12 3.15.24a12.08 12.08 0 0 0 10.18-3.66 30.689 30.689 0 0 1 3.02-2.75c7.88-6.24 22.23-10.74 41.8 11.33 31.56 35.6 48.65 63.92 91.01 101.18z" fill="#f3ce7d"/><path d="m445.38 351.48c0 36.89-32.66 66.8-72.95 66.8s-72.96-29.91-72.96-66.8 17.02-88.75 57.32-88.75 88.59 51.85 88.59 88.75z" fill="#bc5e51"/><path d="m63.22 213.12c22.672-34.274 55.32-53.427 88.843-57.827-43.154-5.705-89.4 13.325-118.843 57.827-48.35 73.1-14.47 172.99 69.39 198.53a126.626 126.626 0 0 0 52.4 4.715 130.711 130.711 0 0 1 -22.4-4.715c-83.86-25.54-117.74-125.43-69.39-198.53z" fill="#418469"/><path d="m329.47 351.48c0-32.191 12.956-75.756 43.018-86.351a55.918 55.918 0 0 0 -15.7-2.4c-40.3 0-57.32 51.85-57.32 88.75s32.67 66.8 72.96 66.8a79.728 79.728 0 0 0 15-1.42c-33.093-6.334-57.958-33.197-57.958-65.379z" fill="#8c4841"/><g fill="#284268"><path d="m356.786 256.733c-46.123 0-63.311 58.114-63.311 94.744 0 40.142 35.419 72.8 78.955 72.8s78.955-32.659 78.955-72.8c0-19.2-11.548-42.53-30.892-62.393-19.725-20.257-43.541-32.351-63.707-32.351zm15.644 155.545c-36.919 0-66.955-27.275-66.955-60.8 0-19.472 4.8-40.183 12.85-55.4 6.6-12.472 18.62-27.341 38.461-27.341 17 0 37.6 10.738 55.111 28.722 16.955 17.412 27.488 38.112 27.488 54.022 0 33.519-30.036 60.797-66.955 60.797z"/><path d="m126.257 180.419c-2.175.185-4.359.455-6.49.8a6 6 0 1 0 1.931 11.843c1.829-.3 3.7-.53 5.574-.688a6 6 0 0 0 -1.015-11.958z"/><path d="m98.487 187.688a84.1 84.1 0 0 0 -30.987 24.412 6 6 0 1 0 9.433 7.416 72.062 72.062 0 0 1 26.546-20.916 6 6 0 1 0 -4.992-10.912z"/><path d="m446.13 230.888c-28.33-24.924-45.162-45.735-62.983-67.768-8.477-10.481-17.244-21.32-27.5-32.892-10.667-12.036-21.379-18.244-31.84-18.454a26.739 26.739 0 0 0 -11.637 2.382l-5.451-12.825a85.262 85.262 0 0 1 4.843-8.58c5.305-1.057 19.855-2.891 31.918 5.424 9.319 6.422 24.219 15.12 45.938 16.5q2.909.183 5.854.184c25.616 0 53.491-10.432 82.952-31.061a8.145 8.145 0 0 0 -4.249-14.808c-15.913-.817-30.009-8.044-39.033-13.964-25.574-16.773-57.268-20.352-84.783-9.573-26.318 10.31-41.73 29.428-49.409 41.836l-6.114-14.389a8.929 8.929 0 0 0 -15.46-1.729l-8.023 11.129a8.968 8.968 0 0 0 -.963 8.734l14.048 32.781a31.731 31.731 0 0 0 -10.97 4.575c-9.628 6.379-15.627 17.91-17.832 34.272-.99 7.351-1.754 14.368-2.4 21.177-9.076-3.325-29.235-10.852-73.112-27.651a121.414 121.414 0 0 0 -81.57-1.591c-28.207 9.395-52.46 28.488-70.139 55.218a138.055 138.055 0 0 0 -14.979 123.975 134.786 134.786 0 0 0 126.78 89.455 123.765 123.765 0 0 0 39.69-6.4c37.93-12.868 54.554-18.443 61.822-20.851 6.239 19.155 15.866 35.387 28.457 47.7 14.32 14 32.379 23.046 53.676 26.88a140.117 140.117 0 0 0 24.814 2.111c17.479 0 36.7-2.831 57.427-8.471.144-.038.284-.083.424-.132 57.609-20.361 90.872-51.662 98.867-93.033 4.752-24.589-.008-52.368-13.764-80.336-11.008-22.376-27.519-44.182-45.299-59.825zm-91.594-174.265c23.9-9.362 51.5-6.209 73.824 8.435 8.272 5.425 20.358 11.82 34.47 14.6-26.2 16.692-50.593 24.441-72.653 23.039-18.747-1.189-31.742-8.789-39.887-14.4-9.773-6.735-20.431-8.494-28.836-8.512a87.79 87.79 0 0 1 33.082-23.162zm-72.636 31.284 3.82-5.3 16.45 38.705c-.052.053-.109.107-.159.16a6.062 6.062 0 0 1 -4.925 1.869zm-43.5 209.08c-5.619 22.637-6.65 49.586-2.831 73.941.727 4.631 1.642 9.128 2.7 13.512-11.7 3.867-38.98 13.094-62.415 21.044-22.23 7.539-47.621 7.691-71.489.422a121.992 121.992 0 0 1 -79.835-76.179 126.161 126.161 0 0 1 13.7-113.292c16.184-24.469 38.288-41.914 63.924-50.453a109.376 109.376 0 0 1 73.486 1.413c49.2 18.837 68.759 26.084 76.326 28.82q-.532 6.675-1 13.167c-2.018 27.118-3.914 52.737-12.566 87.605zm255.014 71.788c-7.12 36.847-37.691 65.08-90.874 83.921-55.159 14.968-96.93 9.051-124.161-17.579-20.1-19.659-27.93-46.768-30.954-66.05-3.581-22.83-2.625-48.048 2.622-69.189 8.9-35.856 10.923-63.183 12.878-89.61 1.073-14.5 2.183-29.5 4.407-46 1.835-13.624 7.611-29.254 24.443-29.254a29.963 29.963 0 0 1 3.663.232 18.174 18.174 0 0 0 15.233-5.454c2.7-2.809 7.078-6.126 12.9-6.017 6.877.139 14.865 5.124 23.1 14.417 10.077 11.369 18.757 22.1 27.151 32.479 18.15 22.439 35.292 43.634 64.387 69.231 16.643 14.642 32.117 35.1 42.456 56.114 8.777 17.849 18.118 44.964 12.746 72.759z"/></g></svg>