<svg id="Layer_1" height="512" viewBox="0 0 512 512" width="512" xmlns="http://www.w3.org/2000/svg" data-name="Layer 1"><path d="m182.27 314.72c.36 52.53-1.47 101.83-4.69 147.45a41.714 41.714 0 0 1 -83.2.33c-3.68-46.47-5.77-97.24-5.22-151.73.57-56.35 3.88-108.48 8.7-155.72h76.58c4.45 48.79 7.43 102.21 7.83 159.67z" fill="#7f3d32"/><path d="m437.75 152.89a270.43 270.43 0 0 1 -2.15 39.07 16.436 16.436 0 0 1 -5.49 9.92 16.928 16.928 0 0 1 -10.77 4.17c-7.45.15-10.18-3.8-15.62-11.56-.63-.89-1.28-1.77-1.97-2.61l-.87-1.08a14.923 14.923 0 0 0 -26.39 7.31l-2 14.13a12.641 12.641 0 0 1 -24.98.38l-4.96-28.7a11.377 11.377 0 0 0 -22.24-.13l-2.52 11.33a13.592 13.592 0 0 1 -13.25 10.63 13.9 13.9 0 0 1 -13.56-11.16c-.01-.04-.01-.09-.02-.14a268.153 268.153 0 0 1 -2.48-41.56 271.4 271.4 0 0 1 12.43-76.52 17.1 17.1 0 0 1 16.3-11.99h91.8a17.08 17.08 0 0 1 16.3 11.99 271.361 271.361 0 0 1 12.44 76.52z" fill="#4ca987"/><path d="m430.11 201.88a16.928 16.928 0 0 1 -10.77 4.17c-7.45.15-10.18-3.8-15.62-11.56-.63-.89-1.28-1.77-1.97-2.61l-.87-1.08a14.923 14.923 0 0 0 -26.39 7.31l-2 14.13a12.641 12.641 0 0 1 -24.98.38l-4.96-28.7a11.377 11.377 0 0 0 -22.24-.13l-2.52 11.33a13.592 13.592 0 0 1 -13.25 10.63 13.9 13.9 0 0 1 -13.56-11.16 272.273 272.273 0 0 0 9.96 44.44 17.046 17.046 0 0 0 16.27 11.92h91.8a17.058 17.058 0 0 0 16.28-11.92 272.3 272.3 0 0 0 10.31-47.07 16.436 16.436 0 0 1 -5.49 9.92z" fill="#eb7288"/><path d="m155.86 31.2v79.49h-40.33v-79.49a20.165 20.165 0 1 1 40.33 0z" fill="#f3ce7d"/><path d="m175 110.69h-78.61a22.18 22.18 0 1 0 0 44.36h78.61a22.18 22.18 0 0 0 0-44.36z" fill="#c2684f"/><path d="m137.66 489.9a41.716 41.716 0 0 1 -13.28-27.4c-3.68-46.47-5.77-97.265-5.22-151.755.57-56.345 3.88-108.745 8.7-155.745h-30c-4.82 47-8.13 99.4-8.7 155.745-.55 54.49 1.54 105.272 5.22 151.743a41.7 41.7 0 0 0 56.588 35.712 41.721 41.721 0 0 1 -13.308-8.3z" fill="#6b372f"/><path d="m318.48 152.795a273.611 273.611 0 0 1 12.43-76.8c1.89-6.016 6.868-9.995 12.843-11.995h-26.543a17.273 17.273 0 0 0 -16.3 12.18 272.135 272.135 0 0 0 -12.43 76.615 268.789 268.789 0 0 0 2.48 41.608c.01.05.01.123.02.163a13.908 13.908 0 0 0 13.56 11.172 13.58 13.58 0 0 0 13.25-10.621l2.118-9.52a268.089 268.089 0 0 1 -1.428-32.802z" fill="#418469"/><path d="m104.21 132.845a21.67 21.67 0 0 1 6.5-15.512 21.918 21.918 0 0 1 15.68-6.333h-30a22 22 0 1 0 0 44h30a22.158 22.158 0 0 1 -22.18-22.155z" fill="#9e513f"/><path d="m330.95 239.074a238.369 238.369 0 0 1 -9.95-44.495v-.013a1.139 1.139 0 0 0 -.03-.163c-.4-2.866-.748-5.808-1.062-8.8l-2.118 9.521a13.592 13.592 0 0 1 -13.25 10.63 13.9 13.9 0 0 1 -13.56-11.16 272.627 272.627 0 0 0 9.96 44.465 17.068 17.068 0 0 0 16.27 11.941h28.766c-6.917-1-12.92-5.212-15.026-11.926z" fill="#bc6678"/><path d="m180.58 246.73v.01a70.934 70.934 0 0 1 -50.94 17.18c-23.22-1.5-39-9.01-39-9.01q.945-22.185 2.41-43.34s37.69 19.13 85.69 0q1.08 17.265 1.84 35.16z" fill="#eb7288"/><path d="m122.534 219.353c-18.142-2.043-29.484-7.783-29.484-7.783q-1.455 21.15-2.41 43.34s11.662 5.544 29.679 8.056q.851-22.314 2.215-43.613z" fill="#bc6678"/><path d="m91.3 160.577c-4.884 49.718-7.638 100.19-8.142 150.137-.511 50.6 1.251 101.831 5.237 152.26a47.713 47.713 0 0 0 95.169-.381c3.464-49.007 5.046-98.774 4.7-147.918q-.228-32.584-1.6-65.374a77.026 77.026 0 0 0 15.357-19.9l7.993-14.866a27.638 27.638 0 0 1 51.926 11.176v36.313a48.04 48.04 0 0 0 94.408 12.647 44.162 44.162 0 0 1 9.368-17.723h43.294a22.954 22.954 0 0 0 22-16.119 277.02 277.02 0 0 0 .023-166.261 23 23 0 0 0 -22.023-16.187h-91.8a23 23 0 0 0 -22.02 16.188 276.607 276.607 0 0 0 -10.242 120.231h-.007c.006.044.018.086.024.13a278.066 278.066 0 0 0 10.248 45.9 22.953 22.953 0 0 0 22 16.119h33.738a58.078 58.078 0 0 0 -6.184 14.581 36.04 36.04 0 0 1 -70.827-9.5v-36.52q0-.193-.012-.387a39.639 39.639 0 0 0 -74.483-16.27l-7.993 14.867a65.123 65.123 0 0 1 -5.554 8.608q-1.81-36.073-4.978-71.914a28.175 28.175 0 0 0 -5.92-55.722h-13.145v-73.492a26.162 26.162 0 1 0 -52.324 0v73.491h-13.144a28.174 28.174 0 0 0 -5.087 55.886zm205.547 32.676a264.611 264.611 0 0 1 9.791-115.088 11.047 11.047 0 0 1 10.574-7.783h91.8a11.05 11.05 0 0 1 10.575 7.783 264.841 264.841 0 0 1 10.1 112.758 10.822 10.822 0 0 1 -10.477 9.124c-3.941.083-5-1.039-10.486-8.872l-.093-.132c-.694-.991-1.441-1.979-2.217-2.939l-.874-1.081a20.923 20.923 0 0 0 -36.99 10.25l-2 14.126a6.644 6.644 0 0 1 -13.131.2l-4.96-28.7c-.012-.071-.026-.142-.041-.213a17.462 17.462 0 0 0 -17-13.812 17.282 17.282 0 0 0 -16.961 13.609l-2.527 11.327a7.53 7.53 0 0 1 -7.385 5.935 7.876 7.876 0 0 1 -7.697-6.492zm20.365 51.7a11 11 0 0 1 -10.551-7.716 266.872 266.872 0 0 1 -6.766-26.062 19.716 19.716 0 0 0 4.649.574 19.462 19.462 0 0 0 19.1-15.324l2.524-11.325a5.352 5.352 0 0 1 5.249-4.22 5.407 5.407 0 0 1 5.242 4.2l4.939 28.573a18.644 18.644 0 0 0 36.837-.563l2-14.127a8.922 8.922 0 0 1 15.778-4.385l.875 1.081c.6.747 1.183 1.515 1.72 2.28l.092.131c5.56 7.935 9.957 14.208 20.561 13.982a23.1 23.1 0 0 0 6.937-1.228 266.65 266.65 0 0 1 -6.835 26.417 11 11 0 0 1 -10.552 7.716zm-145.612 216.794a35.714 35.714 0 0 1 -71.237.281c-3.958-50.075-5.708-100.944-5.2-151.193q.238-23.592 1.169-47.305a131.5 131.5 0 0 0 32.925 6.375 76.864 76.864 0 0 0 45.759-11.661q1.044 28.306 1.257 56.515c.336 48.835-1.236 98.289-4.673 146.988zm-36.49-235.625a122.169 122.169 0 0 0 38.1-6.17q.684 12.021 1.212 24.052a64.971 64.971 0 0 1 -44.4 13.925 118.235 118.235 0 0 1 -33.191-6.962q.7-15.375 1.69-30.737a114.281 114.281 0 0 0 36.585 5.892zm-35.75-18.39q1.658-23.418 3.951-46.687h65.619q2.046 23.16 3.525 46.489c-34.698 12.354-63.323 3.923-73.095.198zm22.171-176.532a14.162 14.162 0 1 1 28.324 0v73.491h-28.324zm-25.144 85.492h78.613a16.177 16.177 0 1 1 0 32.353h-78.613a16.177 16.177 0 1 1 0-32.353z" fill="#284268"/></svg>