<?xml version="1.0" encoding="UTF-8"?>
<svg xmlns="http://www.w3.org/2000/svg" id="Layer_1" data-name="Layer 1" viewBox="0 0 512 512" width="512" height="512"><path d="M197.48,11s-14.33,22-28.13,57L159.035,98c-11.05,36-20.242,84-20.8,139l.713,29.925C141.126,309.445,149.489,358,165.119,409l9.721,29c7.44,20,16.78,42.16,26.97,63H256V11Z" style="fill:#f3ce7d"/><path d="M352.464,98l-10-30c-13.99-36-27.709-57-27.709-57H256V501h54.41c10.23-20.91,19.42-43,26.86-63l9.763-29c15.76-51,23.409-98.735,25.529-142.075L373.226,237C372.846,182,363.574,134,352.464,98Z" style="fill:#d3b271"/><path d="M174.84,438l-9.949-29c-15.63-51-23.716-99.48-25.9-142l-.885-30c.56-55,9.975-103,21.025-139l10.157-30c13.8-35,28.188-57,28.188-57H137.27a13.875,13.875,0,0,0-10.92,5.23C119.81,24.48,106.52,43,92.69,68L77.654,98c-16.16,36-29.988,85-32.608,139l-.816,30c2.01,42.85,12.349,92,34.289,142L93.35,438a472.944,472.944,0,0,0,35.44,56.975A14.164,14.164,0,0,0,140.14,501h61.67C191.62,480.16,182.28,458,174.84,438Z" style="fill:#f9dca0"/><path d="M434.33,98H434L419.09,68c-13.5-24-26.75-43.7-33.15-51.77A13.875,13.875,0,0,0,375.02,11H314.75s13.73,21,27.72,57l10.17,30c11.11,36,20.25,84,20.63,139l-.62,30c-2.12,43.34-9.72,91-25.48,142l-9.9,29c-7.44,20-16.63,42.09-26.86,63h61.74a14.164,14.164,0,0,0,11.35-6.025A475.689,475.689,0,0,0,419.13,438l14.513-29A399.7,399.7,0,0,0,467,267V237C465,183,450.42,134,434.33,98Z" style="fill:#bc9f6c"/><path d="M158.79,494.975A472.944,472.944,0,0,1,123.35,438l-14.831-29C86.579,359,76.24,309.85,74.23,267l.816-30c2.62-54,16.448-103,32.608-139L122.69,68c13.83-25,27.12-43.52,33.66-51.77A13.875,13.875,0,0,1,167.27,11h-30a13.875,13.875,0,0,0-10.92,5.23C119.81,24.48,106.52,43,92.69,68L77.654,98c-16.16,36-29.988,85-32.608,139l-.816,30c2.01,42.85,12.349,92,34.289,142L93.35,438a472.944,472.944,0,0,0,35.44,56.975A14.164,14.164,0,0,0,140.14,501h30A14.164,14.164,0,0,1,158.79,494.975Z" style="fill:#d3b989"/><path d="M475.515,237H36.56a15,15,0,0,0,0,30H475.615a14.507,14.507,0,0,0,10.362-4.34A15.205,15.205,0,0,0,490.264,252,14.934,14.934,0,0,0,475.515,237Z" style="fill:#af786b"/><path d="M434.32,409H77.68A13.574,13.574,0,0,0,64,422.95v1.27A13.432,13.432,0,0,0,77.68,438H434.32A13.432,13.432,0,0,0,448,424.22v-1.27A13.574,13.574,0,0,0,434.32,409Z" style="fill:#af786b"/><path d="M77.68,98H434.33C442.15,98,448,91.36,448,83.53V82.26C448,74.43,442.14,68,434.32,68H77.68C69.86,68,64,74.43,64,82.26v1.27C64,91.36,69.86,98,77.68,98Z" style="fill:#af786b"/><circle cx="256" cy="253" r="30.63" style="fill:#eb7288"/><path d="M51.78,252.1A15.13,15.13,0,0,1,66.56,237h-30a15,15,0,0,0,0,30h30A14.878,14.878,0,0,1,51.78,252.1Z" style="fill:#845d55"/><path d="M94,424.22v-1.27A13.574,13.574,0,0,1,107.68,409h-30A13.574,13.574,0,0,0,64,422.95v1.27A13.432,13.432,0,0,0,77.68,438h30A13.432,13.432,0,0,1,94,424.22Z" style="fill:#845d55"/><path d="M77.68,98h30C99.86,98,94,91.36,94,83.53V82.26C94,74.43,99.86,68,107.68,68h-30C69.86,68,64,74.43,64,82.26v1.27C64,91.36,69.86,98,77.68,98Z" style="fill:#845d55"/><path d="M475.44,231h-2.691c-3.3-54-17.772-99.132-30.352-129.311A19.7,19.7,0,0,0,454,83.53V82.26C454,71.133,445.442,62,434.32,62h-11.7c-13.731-24-26.458-42.536-31.974-49.491A19.764,19.764,0,0,0,375.02,5H137.27a19.761,19.761,0,0,0-15.622,7.5A348.347,348.347,0,0,0,89.144,62H77.68C66.558,62,58,71.133,58,82.26v1.27a19.7,19.7,0,0,0,11.8,18.255C52.908,142.174,42.005,188,39.205,231H36.56a21,21,0,0,0,0,42h2c2.748,43.777,13.759,88.912,31.562,131.344A19.993,19.993,0,0,0,58,422.95v1.27A19.449,19.449,0,0,0,77.68,444H89.8a482.735,482.735,0,0,0,34.121,54.476A20.211,20.211,0,0,0,140.14,507H372.15a20.214,20.214,0,0,0,16.223-8.524A538.814,538.814,0,0,0,422.682,444H434.32A19.449,19.449,0,0,0,454,424.22v-1.27a19.991,19.991,0,0,0-12.129-18.609C459.668,361.919,470.2,317.8,472.745,273h2.695a20.613,20.613,0,0,0,14.7-6.1,21.085,21.085,0,0,0-14.7-35.9Zm-14.719,0H379.177a500.044,500.044,0,0,0-18.518-127h69.728A385.9,385.9,0,0,1,460.721,231ZM249.8,289.054,249.686,403h-80.33c-13.04-43-21.287-88-23.985-130h79.912A36.586,36.586,0,0,0,249.8,289.054ZM144.44,231a493.922,493.922,0,0,1,19.286-127h85.96l.109,112.672C240.352,218.26,231.814,224,226.166,231ZM234,264.227a24.763,24.763,0,0,1,.416-23.572c.054-.083.106-.167.156-.253a24.554,24.554,0,0,1,42.454,0c.05.086.1.171.156.254a24.766,24.766,0,0,1,.549,23.313c-.049.084-.1.17-.142.257a24.572,24.572,0,0,1-43.589,0ZM261.8,289.056A36.551,36.551,0,0,0,286.312,273H366.3a569.837,569.837,0,0,1-23.543,130H261.686ZM285.434,231c-5.651-7-14.193-12.743-23.639-14.33L261.686,104h86.465c11.658,39,18.2,83,19.025,127ZM375.02,17a7.835,7.835,0,0,1,6.219,2.958C386.093,26.079,396.792,41,408.823,62h-62.27a357.266,357.266,0,0,0-21.271-45ZM262,17h49.4a363.2,363.2,0,0,1,22.2,45H262Zm-12,0V62H178.257a337.749,337.749,0,0,1,22.555-45ZM131.057,19.95A7.831,7.831,0,0,1,137.27,17h49.615a409.272,409.272,0,0,0-21.6,45H102.931A324.545,324.545,0,0,1,131.057,19.95ZM70,82.26C70,77.749,73.175,74,77.68,74H434.32c4.5,0,7.68,3.749,7.68,8.26v1.27a7.979,7.979,0,0,1-7.922,8.17l.006.3H77.68C73.175,92,70,88.035,70,83.53ZM81.838,104h69.4a511.934,511.934,0,0,0-18.8,127H51.207C54.947,175,71.237,128,81.838,104ZM36.56,261a8.805,8.805,0,0,1-8.78-8.81,9.227,9.227,0,0,1,2.581-6.425A8.88,8.88,0,0,1,36.56,243H220.454a37.942,37.942,0,0,0-1.234,9.63,38.56,38.56,0,0,0,.935,8.37ZM50.6,273H133.35a594.879,594.879,0,0,0,23.471,130H82.261C64.3,361,53.405,316.274,50.6,273ZM140.14,495a8.192,8.192,0,0,1-6.477-3.525A428.256,428.256,0,0,1,103.516,444H170.7c6.257,17,13.612,34.147,21.575,51ZM250,495H205.581c-8.074-16.738-15.6-34-22.041-51H250Zm12,0V444h66.573c-6.624,18-14.118,34.782-21.935,51Zm116.627-3.526A8.19,8.19,0,0,1,372.15,495H319.939c7.706-16.354,15.026-34,21.472-51h67.537A492.394,492.394,0,0,1,378.627,491.474ZM442,422.95v1.27a7.447,7.447,0,0,1-7.68,7.78H77.68A7.447,7.447,0,0,1,70,424.22v-1.27A7.585,7.585,0,0,1,77.68,415H434.32A7.585,7.585,0,0,1,442,422.95ZM429.738,403H355.289a580.759,580.759,0,0,0,23.028-130h82.411A387.285,387.285,0,0,1,429.738,403Zm51.9-144.575a8.689,8.689,0,0,1-6.2,2.575H291.445a38.553,38.553,0,0,0,.935-8.37,37.942,37.942,0,0,0-1.234-9.63H475.44a8.97,8.97,0,0,1,8.78,9A9.221,9.221,0,0,1,481.639,258.425Z" style="fill:#284268"/></svg>
