<svg id="Layer_1" height="512" viewBox="0 0 512 512" width="512" xmlns="http://www.w3.org/2000/svg" data-name="Layer 1"><path d="m229.43 86.39c-23.24-1.17-85.94-2.18-119.31 60.8 40.34 37.8 82.7 96.38 109.47 183.63l18.33-235.5a8.941 8.941 0 0 0 -8.49-8.93z" fill="#d3ab84"/><path d="m110.12 147.19c40.34 37.8 82.7 96.38 109.47 183.63l-10.99 141.27a9.031 9.031 0 0 1 -9.01 8.33h-140.5a9.038 9.038 0 0 1 -8.99-8.08l-39.1-370.19a10.742 10.742 0 0 1 14.4-10.11c20.67 7.54 52.03 24.52 84.72 55.15z" fill="#edbf8a"/><path d="m497.24 318.31a8.933 8.933 0 0 1 -3.31 11.87l-211.6 105.24c61.2-67.76 89.75-134.21 101.49-188.25 71.2-3.68 102.49 50.61 113.42 71.14z" fill="#d88c6b"/><path d="m383.82 247.17c-11.74 54.04-40.29 120.49-101.49 188.25l-.01.01-73.72 36.66 10.99-141.27 6.43-82.53 145.59-109.26a10.747 10.747 0 0 1 16.08 7.16c4.13 21.58 5.65 57.21-3.87 100.98z" fill="#eaa086"/><path d="m467.05 206.05c-15.91-26.59-49.19-36.12-76.14-21.38h-.01a211.723 211.723 0 0 0 -2.48-34.35c11.96-3.19 35.88-6.91 48.34 9.21a14.876 14.876 0 0 1 .88 1.25c4.14 6.55 11.98 10.21 21.04 9.82 11.02-.47 17.65 5.95 22.84 14.64a23.792 23.792 0 0 1 3.02 8.08 20.023 20.023 0 0 0 7.33 12.26 23.987 23.987 0 0 1 5.7 6.48c5.2 8.7 4.29 19.64-1.37 29.12-4.73 7.96-4.96 16.68-1.09 23.56.18.31.34.63.5.95 8.17 16.7 1.82 29.3-6.37 38.78a139.187 139.187 0 0 0 -27.11-31.66c12.92-18.03 17.03-46.52 4.92-66.76z" fill="#5fcda4"/><path d="m467.05 206.05c12.11 20.24 8 48.73-4.92 66.76a111.964 111.964 0 0 0 -12.79-9.4c8.55-13.54 11.44-34.25 2.23-48.63-12.69-19.83-41.44-25.42-61.28-12.74.41-6.08.6-11.88.61-17.37h.01c26.95-14.74 60.23-5.21 76.14 21.38z" fill="#4ca987"/><path d="m451.57 214.78c9.21 14.38 6.32 35.09-2.23 48.63a104.41 104.41 0 0 0 -28.5-12.51v-.01c-1.87-34.23-32.46-23.68-33.37-23.36 1.37-8.95 2.28-17.47 2.82-25.49 19.84-12.68 48.59-7.09 61.28 12.74z" fill="#d44e4d"/><path d="m420.84 250.89v.01a117.074 117.074 0 0 0 -37.02-3.73c1.47-6.75 2.67-13.3 3.65-19.64.91-.32 31.5-10.87 33.37 23.36z" fill="#eb7288"/><path d="m183.4 60.78c18.53 1.56 26.09 13.48 30.03 25.37a138.91 138.91 0 0 0 -41.29 7.07c-9.13-24.93-31.02-38.54-54.62-38.54-30.99 0-56.25 23.66-57.43 54.34l-.01.01a210.739 210.739 0 0 0 -30.76-15.5c3.4-11.9 12.48-34.33 32.72-36.74a13.117 13.117 0 0 1 1.53-.11c7.74-.2 14.91-5.04 19.22-13.02 5.25-9.69 14.17-12.08 24.29-12.08a24.027 24.027 0 0 1 8.49 1.56 20 20 0 0 0 14.29 0 24.069 24.069 0 0 1 8.49-1.56c10.14 0 19.07 6.4 24.31 16.11 4.4 8.15 11.77 12.82 19.67 13.03.36.01.71.03 1.07.06z" fill="#5fcda4"/><path d="m172.14 93.22a110.956 110.956 0 0 0 -14.44 6.09c-7.24-14.29-23.55-27.4-40.62-26.88-23.54.71-43.1 22.52-42.39 46.04q-7.53-5.2-14.61-9.44l.01-.01c1.18-30.68 26.44-54.34 57.43-54.34 23.6 0 45.49 13.61 54.62 38.54z" fill="#4ca987"/><path d="m157.7 99.31a104.065 104.065 0 0 0 -25.37 18.01c-32.86-10.12-37.19 16.67-37.19 16.67l-.01.01c-6.98-5.79-13.82-10.94-20.44-15.53-.71-23.52 18.85-45.33 42.39-46.04 17.07-.52 33.38 12.59 40.62 26.88z" fill="#d44e4d"/><path d="m95.14 133.99s4.33-26.79 37.19-16.67a117.087 117.087 0 0 0 -22.21 29.87q-7.56-7.08-14.99-13.19z" fill="#eb7288"/><path d="m453.27 313.68a10.541 10.541 0 1 1 -14.46-3.64 10.531 10.531 0 0 1 14.46 3.64z" fill="#b7755e"/><path d="m269.82 321.77a11.338 11.338 0 1 1 -15.55-3.91 11.325 11.325 0 0 1 15.55 3.91z" fill="#d88c6b"/><path d="m318.39 228.03a11.062 11.062 0 1 1 -15.17-3.81 11.053 11.053 0 0 1 15.17 3.81z" fill="#d88c6b"/><path d="m202.88 121.72a10.54 10.54 0 1 1 -10.54 10.54 10.544 10.544 0 0 1 10.54-10.54z" fill="#b28e70"/><path d="m115.69 283.25a11.335 11.335 0 1 1 -11.34 11.34 11.346 11.346 0 0 1 11.34-11.34z" fill="#c19a74"/><path d="m189.59 440.84a11.342 11.342 0 1 1 -15.56-3.91 11.341 11.341 0 0 1 15.56 3.91z" fill="#c19a74"/><path d="m80.1 472.13-39.1-370.085a10.414 10.414 0 0 1 .507-3.174 173.867 173.867 0 0 0 -16.107-6.857 10.75 10.75 0 0 0 -14.4 10.123l39.1 369.986a8.864 8.864 0 0 0 8.99 7.877h30a8.858 8.858 0 0 1 -8.99-7.87z" fill="#ba936c"/><circle cx="60.12" cy="204.54" fill="#c19a74" r="11.06"/><g fill="#284268"><path d="m502.716 208.98a29.958 29.958 0 0 0 -7.11-8.1 14.056 14.056 0 0 1 -5.162-8.629 29.953 29.953 0 0 0 -3.774-10.094c-4.7-7.853-12.74-18.22-28.246-17.55-6.865.3-12.742-2.334-15.714-7.031-.374-.591-.778-1.168-1.2-1.718-5.8-7.5-19.6-18.6-48.437-12.785a16.75 16.75 0 0 0 -24.534-9.2 5.98 5.98 0 0 0 -.524.351l-134.988 101.306 10.873-139.743c.013-.155.018-.31.018-.466a14.932 14.932 0 0 0 -14.191-14.921c-4.131-.207-8.169-.278-12.134-.244-6.385-15.665-17.435-23.985-33.687-25.352q-.712-.06-1.417-.078c-5.941-.156-11.243-3.756-14.548-9.877-6.512-12.063-17.573-19.265-29.589-19.265a29.972 29.972 0 0 0 -10.6 1.942 14.073 14.073 0 0 1 -10.064 0 29.963 29.963 0 0 0 -10.6-1.942c-9.153 0-22.177 1.579-29.564 15.226-3.271 6.042-8.543 9.732-14.1 9.871-.7.017-1.4.068-2.092.151-20.362 2.428-30.788 20.909-35.832 34.989a16.749 16.749 0 0 0 -20.5 16.33 6.028 6.028 0 0 0 .033.63l39.1 370.186a15 15 0 0 0 14.955 13.453h140.5a15.117 15.117 0 0 0 14.23-10.22l282.782-140.643c.138-.069.274-.143.405-.222a14.926 14.926 0 0 0 5.533-19.839q-2.909-5.466-6.006-10.521c10.181-13.519 11.64-27.272 4.47-41.924-.207-.426-.428-.844-.658-1.251-2.913-5.175-2.543-11.57 1.017-17.545 7.015-11.778 7.522-24.965 1.355-35.275zm-46.089 2.561c-12.351-19.295-38.318-26.981-59.845-19.3q.059-1.954.089-3.846c23.363-10.783 51.37-2.1 65.027 20.733 10.1 16.892 7.06 39.446-1.276 54.779q-1.661-1.263-3.351-2.456c6.92-14.245 9.34-34.312-.644-49.91zm-10.107 6.468c5.415 8.461 6.95 23.239.559 37.02q-4.442-2.472-9.071-4.5c.226.022.452.043.681.043a7.182 7.182 0 1 0 -4.534-1.65q-3.8-1.5-7.725-2.718c-1.352-10.2-5.431-17.617-12.161-22.07-6.46-4.274-13.949-4.725-19.683-4.163q.941-7.461 1.465-14.338c17.188-9.133 40.143-3.755 50.469 12.376zm-53.734 14.325c3.819-.761 10.176-1.324 14.9 1.83 2.719 1.815 4.681 4.787 5.872 8.869a124.756 124.756 0 0 0 -22.346-2.027c.572-2.939 1.103-5.837 1.574-8.672zm-330.041-169.591c.32-.038.647-.061.971-.07 9.909-.248 19.014-6.287 24.355-16.154 3.437-6.349 8.945-8.939 19.012-8.939a18 18 0 0 1 6.372 1.172 25.909 25.909 0 0 0 18.525 0 18 18 0 0 1 6.372-1.172c7.533 0 14.646 4.847 19.029 12.965 5.319 9.855 14.592 15.905 24.794 16.173.239.006.478.019.721.04 10.13.852 17.052 5.236 21.731 13.943a146.9 146.9 0 0 0 -29.034 5.173c-10.633-23.087-32.408-37.2-58.069-37.2-30.973 0-56.7 21.571-62.328 50.607-7.087-3.917-13.334-6.918-18.475-9.158 3.668-10.232 11.542-25.649 26.024-27.38zm72.377 28.408a7.077 7.077 0 1 0 2.3 13.762q-3.522 2.711-6.832 5.711c-11.23-2.8-20.708-1.889-28.2 2.764a28.39 28.39 0 0 0 -9.936 10.725q-6.011-4.712-11.723-8.74a39.791 39.791 0 0 1 10.493-24.433c7-7.664 16.488-12.225 26.038-12.514 10.026-.279 23.507 5.974 32.065 18.516q-4.389 2.537-8.5 5.458a7.063 7.063 0 0 0 -5.7-11.249zm-14.634 29.943a125.568 125.568 0 0 0 -11.874 16.57q-3.326-2.979-6.595-5.75a17.349 17.349 0 0 1 6.809-8.395c3.121-1.904 7.026-2.707 11.66-2.425zm-3.588-54.662c-12.774.386-25.361 6.37-34.536 16.417a52.567 52.567 0 0 0 -12.739 25.033q-1.658-1.059-3.272-2.06c2.725-25.577 24.557-45.147 51.173-45.147a50.953 50.953 0 0 1 46.636 29.1q-2.064.822-4.079 1.715c-8.675-13.245-24.644-25.612-43.183-25.058zm-70.721 311.659-1.028-9.731a5.291 5.291 0 0 1 1.028 9.731zm164.583-11.1c.008-.141.021-.282.021-.426a7.378 7.378 0 1 0 -.056.866l-8.107 104.2a3.05 3.05 0 0 1 -3.028 2.8h-140.504a3.03 3.03 0 0 1 -3.021-2.714l-8.595-81.377a17.321 17.321 0 0 0 -3.613-34.209l-26.853-254.231a4.7 4.7 0 0 1 2.03-3.65 4.647 4.647 0 0 1 4.31-.572c14.379 5.244 52.321 22.074 93.975 65.005 42.864 44.177 75.228 100.97 96.2 168.815zm-84.828-212.668q-4.182-4.311-8.317-8.291c13.505-23.418 32.94-39.421 57.829-47.6 20.7-6.8 40.551-6.714 53.68-6.054a2.941 2.941 0 0 1 2.789 2.769l-11.6 149.082a7.331 7.331 0 1 0 -.474 6.095l-3.949 50.749c-21.386-57.917-51.572-107.188-89.958-146.75zm89.466 307.677 16.383-210.539 143.13-107.409a4.719 4.719 0 0 1 4.185-.133 4.643 4.643 0 0 1 2.7 3.4c2.877 15.033 7.9 56.236-7.583 114.029-15.935 59.484-48.1 116.41-95.6 169.22zm275.591-137.057-134.068 66.678a7.332 7.332 0 1 0 -5.592 2.608c.134 0 .268-.019.4-.027l-45.77 22.763c38.754-48.065 65.573-99.252 79.841-152.512q1.562-5.827 2.857-11.439c27.035-.425 50.747 8.026 70.536 25.178 16.465 14.27 26.573 31.341 32.744 42.941a2.937 2.937 0 0 1 -.948 3.81zm-1.1-57.255c.117.209.229.421.335.638 4.469 9.131 4.252 17.323-.833 25.81a146.878 146.878 0 0 0 -19.43-22.372c11.147-18.8 15.287-46.984 2.237-68.8-15.894-26.571-47.621-37.575-75.439-27.5-.275-8.091-.9-14.983-1.619-20.543 10.669-2.1 27.955-3.265 36.875 8.273.2.253.383.52.557.8 5.3 8.374 15.15 13.088 26.37 12.6 7.222-.318 12.268 3.086 17.433 11.721a17.985 17.985 0 0 1 2.263 6.065 25.888 25.888 0 0 0 9.508 15.894 18.02 18.02 0 0 1 4.275 4.865c3.864 6.46 3.353 15.048-1.369 22.972-5.74 9.629-6.176 20.689-1.168 29.577z"/><path d="m409.1 219.182a7.115 7.115 0 0 0 1.738.217 7.1 7.1 0 1 0 -1.738-.217z"/><path d="m431.648 227.9a7.075 7.075 0 1 0 -6.086-3.443 7.033 7.033 0 0 0 6.086 3.443z"/><path d="m300.139 219.065a17.06 17.06 0 0 0 17.511 29.283 17.06 17.06 0 1 0 -17.511-29.283zm13.666 15.875a5.017 5.017 0 0 1 -2.311 3.107 5.057 5.057 0 1 1 1.747-6.935 5.016 5.016 0 0 1 .564 3.828z"/><path d="m251.192 312.711a17.339 17.339 0 1 0 23.781 5.982 17.227 17.227 0 0 0 -23.781-5.982zm14.078 16.181a5.305 5.305 0 0 1 -2.437 3.276 5.346 5.346 0 0 1 -7.326-1.841 5.339 5.339 0 1 1 9.764-1.435z"/><path d="m435.734 304.891a16.54 16.54 0 0 0 16.977 28.391 16.54 16.54 0 1 0 -16.978-28.391zm12.9 15.3a4.538 4.538 0 1 1 -.506-3.434 4.509 4.509 0 0 1 .502 3.436z"/><path d="m357.3 169.625a7.334 7.334 0 1 0 1.972 13.412 7.335 7.335 0 0 0 -1.974-13.411z"/><path d="m313.237 309.908a7.336 7.336 0 1 0 10.055 2.532 7.287 7.287 0 0 0 -10.055-2.532z"/><path d="m239.548 433.51a7.336 7.336 0 0 0 7.527 12.594h.006a7.336 7.336 0 1 0 -7.533-12.59z"/><path d="m262.34 364.23a7.335 7.335 0 1 0 -3.578 14.228 7.387 7.387 0 0 0 1.8.225 7.292 7.292 0 0 0 3.751-1.042 7.335 7.335 0 0 0 -1.977-13.409z"/><path d="m392.616 309.643a7.337 7.337 0 1 0 1.976 13.409 7.335 7.335 0 0 0 -1.977-13.408z"/><path d="m444.851 291.814a7.334 7.334 0 1 0 -6.308-3.567 7.289 7.289 0 0 0 6.308 3.567z"/><path d="m94.06 99.048a7.077 7.077 0 1 0 7.077 7.077 7.086 7.086 0 0 0 -7.077-7.077z"/><path d="m112.045 85.56a7.077 7.077 0 1 0 7.078 7.077 7.085 7.085 0 0 0 -7.078-7.077z"/><path d="m60.119 187.483a17.058 17.058 0 1 0 17.064 17.058 17.08 17.08 0 0 0 -17.064-17.058zm0 22.116a5.058 5.058 0 1 1 5.064-5.058 5.067 5.067 0 0 1 -5.064 5.059z"/><path d="m98.354 294.586a17.341 17.341 0 1 0 17.34-17.335 17.357 17.357 0 0 0 -17.34 17.335zm22.681 0a5.341 5.341 0 1 1 -5.341-5.335 5.345 5.345 0 0 1 5.341 5.335z"/><path d="m219.427 132.263a16.544 16.544 0 1 0 -16.544 16.537 16.56 16.56 0 0 0 16.544-16.537zm-16.544 4.537a4.539 4.539 0 1 1 4.544-4.539 4.546 4.546 0 0 1 -4.544 4.539z"/><path d="m35.119 127.986a7.336 7.336 0 1 0 7.336 7.336 7.344 7.344 0 0 0 -7.336-7.336z"/><path d="m105.156 237.278a7.336 7.336 0 1 0 -7.336-7.335 7.344 7.344 0 0 0 7.336 7.335z"/><path d="m53.617 319.292a7.336 7.336 0 1 0 7.336 7.336 7.345 7.345 0 0 0 -7.336-7.336z"/><path d="m83.583 439.1a7.336 7.336 0 1 0 7.336 7.336 7.344 7.344 0 0 0 -7.336-7.336z"/><path d="m173.481 169.538a7.336 7.336 0 1 0 7.336 7.335 7.344 7.344 0 0 0 -7.336-7.335z"/><circle cx="173.481" cy="113.977" r="7.336" transform="matrix(1 -.012 .012 1 -1.344 2.073)"/><path d="m179.88 463.989a17.329 17.329 0 1 0 -14.911-8.433 17.244 17.244 0 0 0 14.911 8.433zm-5.208-18.632a5.341 5.341 0 1 1 7.922 5.879 5.338 5.338 0 0 1 -7.921-5.879z"/><path d="m109.452 371.67a7.336 7.336 0 0 0 1.976 13.409 7.411 7.411 0 0 0 1.8.225 7.337 7.337 0 1 0 -3.78-13.634z"/><path d="m181.351 295.227a7.385 7.385 0 0 0 1.8.224 7.357 7.357 0 1 0 -1.8-.224z"/></g></svg>