<svg id="Layer_1" height="512" viewBox="0 0 512 512" width="512" xmlns="http://www.w3.org/2000/svg" data-name="Layer 1"><path d="m335.91 391.61-24.06 108.39h-113.34l-28.01-108.39z" fill="#aa7a65"/><path d="m381.64 70.92c24.12 7.61 37.16 31.59 16.69 147.37-10.41 58.84-58 68.94-106.05 59.51-.01-6.2-.07-12.28-.17-18.11 0 0 53.69 1.47 69.45-21.72 14.6-21.47 6.81-58.43 10.9-80.91 2.89-15.93 10.87-64.31 9.18-86.14z" fill="#4ca987"/><path d="m381.64 70.92c1.69 21.83-6.29 70.21-9.18 86.14-4.09 22.48 3.7 59.44-10.9 80.91-15.76 23.19-69.45 21.72-69.45 21.72-.15-8.69-.39-16.82-.71-23.98.95.06 60.3 3.63 50.68-40.76-9.7-44.75-1.29-131.63 29.09-126.44a77.054 77.054 0 0 1 10.47 2.41z" fill="#5fcda4"/><path d="m287.94 50.05c-6.91-22.61-16.35-33.28-26.12-37.19a28.124 28.124 0 0 0 -17.53-.87 36.249 36.249 0 0 0 -9.85 4.05 38.706 38.706 0 0 0 -18.7 32.72l-3.56 203.41-.96 54.87-1.03 58.66h78.48c2.59-19.78 3.7-55.41 3.61-87.9-.01-6.2-.07-12.28-.17-18.11-.15-8.69-.39-16.82-.71-23.98-.28-6.21-.63-11.68-1.04-16.13-1.84-20.19 1.38-91.45 3.02-124.11a132.818 132.818 0 0 0 -5.44-45.42z" fill="#59aa66"/><path d="m212.18 252.17-.56 32.09c-20.6-4.08-54.5 2.99-67.77-31.3-16.99-43.91-10.4-129.61-10.4-129.61a34.353 34.353 0 0 1 9.9-3.64c35.68-7.15 18.21 88.27 22.75 109.63 2.71 12.79 44.08 22.37 46.08 22.83z" fill="#4ca987"/><path d="m211.62 284.26-.4 22.78c-43.23 3.19-87.92-1.81-98-39.18-19.31-71.51-8.3-128.73 20.23-144.51 0 0-6.59 85.7 10.4 129.61 13.27 34.29 47.17 27.22 67.77 31.3z" fill="#5fcda4"/><path d="m261.82 12.86s12.58 91.7 5.17 150.55c-5.33 42.33-4.94 122.96-3.81 135.12 1.01 11 2.7 38.34-.9 67.17h-27.97c3.59-28.83 1.91-56.17.89-67.17-1.12-12.16-1.51-92.79 3.82-135.12 7.41-58.85-4.58-147.37-4.58-147.37a36.249 36.249 0 0 1 9.85-4.05 28.124 28.124 0 0 1 17.53.87z" fill="#5fcda4"/><path d="m162 365h182v27h-182z" fill="#e1b7a3"/><path d="m170.5 392 28.01 108h30l-28.01-108z" fill="#876053"/><path d="m162 365h30v27h-30z" fill="#b79486"/><path d="m372.183 62.592c-5.03-.858-12.516-.315-19.645 7.137-21.438 22.408-24.019 90.971-16.322 126.493 2.013 9.285.763 16.388-3.82 21.714-8.548 9.933-26.394 11.634-35.307 11.836-.223-4.059-.474-7.679-.753-10.735-1.826-20 1.513-92.87 3.033-123.27a138.379 138.379 0 0 0 -5.689-47.467c-5.452-17.853-13.059-30.353-22.607-37.152-8.166-5.818-17.929-7.538-28.229-4.978-19.2 4.77-32.815 22.25-33.1 42.489l-3.425 195.819c-3.9-1.074-8.945-2.582-14.041-4.436-19.039-6.926-20.3-11.9-20.308-11.946-1.115-5.252-.651-17.285-.158-30.024 1.223-31.644 2.609-67.511-12.248-80.171-4.7-4-10.713-5.411-17.393-4.069-11.976 2.4-22.327 10.163-29.935 22.445-17.773 28.7-19.571 78.47-4.808 133.147 5.165 19.127 18.837 32.241 40.636 38.978 11.768 3.637 25.828 5.44 42.629 5.44q6.89 0 14.419-.413l-.812 46.271h-42.291a6 6 0 0 0 -6 6v26.911a6 6 0 0 0 6 6h3.843l26.848 103.889a6 6 0 0 0 5.81 4.5h113.341a6 6 0 0 0 5.857-4.7l23.013-103.686h3.679a6 6 0 0 0 6-6v-26.914a6 6 0 0 0 -6-6h-49c1.917-19.2 2.79-47.661 2.857-74.764a153.385 153.385 0 0 0 23.616 1.936c20.183 0 37.452-4.656 50.853-13.844 16.627-11.4 27.229-29.466 31.514-53.7 13.784-77.989 13.66-119.806-.434-139.828-8.096-11.5-19.984-14.92-31.623-16.908zm-99.013 3.036c-1.17-15.988-2.612-30.028-3.712-39.728 4.995 5.843 9.267 14.516 12.745 25.9a126.4 126.4 0 0 1 5.182 43.365c-1.9 38.076-4.826 104.941-3 124.961 2.784 30.518 2.6 104.5-1.055 139.575h-14.344a339.073 339.073 0 0 0 .164-61.729c-1.118-12.1-1.45-92.15 3.8-133.813 3.118-24.797 3.194-57.948.22-98.531zm-27.676 1.608c-1.536-21.892-3.6-39.936-4.568-47.783a30.571 30.571 0 0 1 4.81-1.638 23.389 23.389 0 0 1 10.629-.368c2.225 17.776 11.058 94.507 4.675 145.215-5.338 42.395-4.981 124.055-3.839 136.416a332.068 332.068 0 0 1 -.276 60.625h-15.914a339.323 339.323 0 0 0 .163-61.728c-1.118-12.1-1.448-92.159 3.8-133.814 3.117-24.792 3.294-57.403.52-96.925zm-23.756-18.386a32.982 32.982 0 0 1 8.062-21.212c2.86 25.275 8.982 89.584 3.261 135.024-5.336 42.386-4.981 124.052-3.839 136.416a331.98 331.98 0 0 1 -.276 60.625h-12.646zm-82.528 78.378a28.424 28.424 0 0 1 5.316-1.631c3.994-.8 5.971.348 7.25 1.438 10.425 8.883 8.991 46.007 8.041 70.573-.567 14.675-1.015 26.266.411 32.98 1.659 7.812 10.539 14.4 27.944 20.731 6.9 2.509 13.6 4.4 17.926 5.527l-.359 20.515c-2.855-.3-5.818-.506-8.876-.718-18.9-1.308-38.445-2.662-47.418-25.847-14.426-37.277-11.211-107.346-10.235-123.568zm-20.2 139.072c-13.707-50.761-12.4-98.16 3.425-123.7a49.238 49.238 0 0 1 4.272-5.905c-.365 8.823-.674 21.188-.429 35.1.644 36.425 4.673 64.462 11.976 83.332 11.726 30.3 38.345 32.142 57.781 33.487 3.324.23 6.533.453 9.493.792l-.21 12c-50.913 2.859-79.162-8.643-86.308-35.106zm188.026 228.7h-103.882l-24.907-96.386h150.182zm31.364-123.3v14.911h-170.391v-14.911zm-40.781-129.926c10.86-.28 32.319-2.614 43.849-15.983 7.125-8.261 9.3-19.065 6.476-32.111-7.853-36.236-2.831-98.829 13.265-115.655 3.784-3.955 6.921-3.951 8.954-3.6 2 .341 3.89.711 5.683 1.132.423 20.642-5.49 59.507-9.293 80.433-1.512 8.324-1.5 18.081-1.493 28.412.018 17.67.039 37.7-8.459 50.2-10.1 14.855-41.8 18.669-58.643 19.082-.093-4.156-.206-8.141-.339-11.91zm94.8-24.533c-3.7 20.943-12.613 36.383-26.484 45.893-19.987 13.7-47.006 13.114-67.707 9.648q-.024-3.606-.066-7.131a178.912 178.912 0 0 0 23.738-2.2c22.115-3.636 37.129-11.072 44.626-22.1 10.579-15.561 10.556-37.554 10.536-56.959-.009-9.771-.018-19 1.3-26.254 1.018-5.6 8.972-50.174 9.481-77.756a23.352 23.352 0 0 1 6.153 6.037c11.752 16.692 11.251 58.264-1.579 130.822z" fill="#284268"/></svg>