<svg id="Layer_1" height="512" viewBox="0 0 512 512" width="512" xmlns="http://www.w3.org/2000/svg" data-name="Layer 1"><path d="m408.45 159.09h-304.9a10.243 10.243 0 0 0 -10.23 10.26v154.26a29.773 29.773 0 0 0 29.61 29.93h12.11a29.773 29.773 0 0 1 29.61 29.93v27.01c0 49.99 40.1 90.52 89.56 90.52h15.69c49.46 0 89.55-40.53 89.55-90.52v-27.01a29.961 29.961 0 0 1 8.67-21.16 29.374 29.374 0 0 1 20.95-8.77 29.773 29.773 0 0 0 29.61-29.93v-154.26a10.243 10.243 0 0 0 -10.23-10.26z" fill="#86909d"/><path d="m249.42 11c36.66 26.82 12.58 61.9 3.71 67.13-30.94-22.28-6.61-30.66-3.71-67.13z" fill="#eb7288"/><path d="m229.72 404.93v22.86a15.3 15.3 0 1 1 -30.59 0v-22.86a15.3 15.3 0 1 1 30.59 0z" fill="#6b655f"/><path d="m291.89 404.93v22.86a15.3 15.3 0 1 1 -30.6 0v-22.86a15.3 15.3 0 1 1 30.6 0z" fill="#6b655f"/><path d="m288.45 330.72v15.61a11 11 0 0 1 -15.51 10.12l-12.22-6.36a10.887 10.887 0 0 0 -9.47.2l-11.76 5.11a11 11 0 0 1 -15.94-9.92v-14.76a32.622 32.622 0 0 1 32.45-32.79 32.178 32.178 0 0 1 22.94 9.6 32.843 32.843 0 0 1 9.51 23.19z" fill="#737c87"/><path d="m336.71 197.67c26.69 0 48.32 21.87 48.32 48.84s-21.63 48.83-48.32 48.83-48.31-21.86-48.31-48.83 21.63-48.84 48.31-48.84z" fill="#737c87"/><path d="m175.29 197.67c26.68 0 48.31 21.87 48.31 48.84s-21.63 48.83-48.31 48.83-48.32-21.86-48.32-48.83 21.63-48.84 48.32-48.84z" fill="#737c87"/><path d="m286.815 79.35-76.527 35.02a5.752 5.752 0 0 0 -3.288 5.4v39.6c0 10.58 8.4 19.63 18.95 19.63h7.38c.22 0 .67-.48.67-.49v18.98a12.454 12.454 0 0 0 12.24 12.51h19.04c12.77 0 22.72-10.6 22.72-23.4v-21.97a5.97 5.97 0 0 1 5.93-5.63h1.07v-74.25a5.771 5.771 0 0 0 -8.185-5.4z" fill="#ddc1bf"/><path d="m261.29 404.93v22.86a15.563 15.563 0 0 1 -15.78 15.34 16.016 16.016 0 0 1 -11.17-4.49 15.126 15.126 0 0 1 -4.62-10.85v-22.86a15.572 15.572 0 0 1 15.79-15.34 15.974 15.974 0 0 1 11.16 4.49 15.126 15.126 0 0 1 4.62 10.85z" fill="#726b65"/><path d="m322.49 404.93v22.86a15.3 15.3 0 1 1 -30.6 0v-22.86a15.3 15.3 0 1 1 30.6 0z" fill="#726b65"/><path d="m195 410.48v-27.01c0-16.53-13.61-29.47-29.96-29.47h-12.11c-16.35 0-29.93-13.86-29.93-30.39v-154.26a10.6 10.6 0 0 1 10.55-10.35h-30a10.6 10.6 0 0 0 -10.55 10.35v154.26c0 16.53 13.58 30.39 29.93 30.39h12.11c16.35 0 29.96 12.94 29.96 29.47v27.01c0 49.99 39.75 90.52 89.21 90.52h15.69c2.409 0 4.969-.1 7.33-.288-46.115-3.685-82.23-42.677-82.23-90.232z" fill="#626a72"/><g fill="#284268"><path d="m307.189 383.588a21.206 21.206 0 0 0 -15.3 6.527 21.189 21.189 0 0 0 -30.658.067 22.047 22.047 0 0 0 -31.449 0 21.265 21.265 0 0 0 -36.658 14.746v22.861a21.265 21.265 0 0 0 36.658 14.745 22.046 22.046 0 0 0 31.449 0 21.189 21.189 0 0 0 30.658.067 21.268 21.268 0 0 0 36.6-14.812v-22.862a21.343 21.343 0 0 0 -21.3-21.339zm-83.466 44.2a9.3 9.3 0 1 1 -18.6 0v-22.861a9.3 9.3 0 1 1 18.6 0zm31.569 0a9.8 9.8 0 0 1 -19.569 0v-22.861a9.8 9.8 0 0 1 19.569 0zm30.6 0a9.3 9.3 0 1 1 -18.6 0v-22.861a9.3 9.3 0 1 1 18.6 0zm30.6 0a9.3 9.3 0 1 1 -18.6 0v-22.861a9.3 9.3 0 1 1 18.6 0z"/><path d="m217.551 330.724v14.752a17.013 17.013 0 0 0 8.162 14.618 16.783 16.783 0 0 0 16.321.738l11.6-5.034c.114-.049.227-.1.338-.158a4.869 4.869 0 0 1 4.137-.146l12.057 6.281c.093.049.188.1.284.139a16.837 16.837 0 0 0 16.151-1.168 17.063 17.063 0 0 0 7.847-14.42v-15.6a38.451 38.451 0 1 0 -76.9 0zm12 0a26.451 26.451 0 1 1 52.9 0v15.6a5.061 5.061 0 0 1 -2.338 4.327 4.848 4.848 0 0 1 -4.566.394l-12.058-6.282c-.093-.049-.188-.095-.283-.139a16.812 16.812 0 0 0 -14.5.23l-11.6 5.035c-.115.049-.227.1-.338.159a4.832 4.832 0 0 1 -4.786-.189 5.048 5.048 0 0 1 -2.43-4.385z"/><path d="m229.6 246.506c0-30.235-24.366-54.834-54.314-54.834s-54.314 24.6-54.314 54.834 24.365 54.835 54.314 54.835 54.314-24.599 54.314-54.835zm-54.314 42.835c-23.332 0-42.314-19.216-42.314-42.835s18.982-42.834 42.314-42.834 42.314 19.215 42.314 42.834-18.981 42.835-42.313 42.835z"/><path d="m336.713 191.672c-29.948 0-54.314 24.6-54.314 54.834s24.366 54.835 54.314 54.835 54.314-24.6 54.314-54.835-24.365-54.834-54.314-54.834zm0 97.669c-23.332 0-42.314-19.216-42.314-42.835s18.982-42.834 42.314-42.834 42.314 19.215 42.314 42.834-18.982 42.835-42.314 42.835z"/><path d="m408.448 153.089h-107v-68.337a11.94 11.94 0 0 0 -16.9-10.862l-25.422 11.6v-4.351c6.988-6.032 15.209-19.3 15.94-33.962.545-10.936-2.846-26.93-22.1-41.019a6 6 0 0 0 -9.524 4.365c-.941 11.8-4.26 20.367-7.189 27.921-5.473 14.119-10.216 26.384 10.87 42.691v9.835l-39.3 17.937a11.972 11.972 0 0 0 -6.982 10.863v33.319h-97.29a16.264 16.264 0 0 0 -16.231 16.259v154.259a35.814 35.814 0 0 0 35.613 35.933h12.107a23.8 23.8 0 0 1 23.613 23.932v27.008c0 53.221 42.865 96.52 95.554 96.52h15.693c52.689 0 95.554-43.3 95.554-96.52v-27.008a23.8 23.8 0 0 1 23.613-23.932 35.814 35.814 0 0 0 35.613-35.933v-154.259a16.264 16.264 0 0 0 -16.232-16.259zm-161-110.307a123.182 123.182 0 0 0 6.332-20c6.614 7.138 9.737 15.109 9.3 23.8-.521 10.45-6.151 19.5-10.166 23.878-12.375-9.867-10.431-14.881-5.47-27.678zm42 42.064v69.154a11.564 11.564 0 0 0 -7.046 10.636v21.964a17.164 17.164 0 0 1 -17.115 17.175h-19.049a6.269 6.269 0 0 1 -6.246-6.278v-14.28a17.861 17.861 0 0 0 8.645-7.5 5.988 5.988 0 0 0 -5.229-8.947 5.912 5.912 0 0 0 -5.127 2.9 5.731 5.731 0 0 1 -4.955 2.867h-7.375a13.149 13.149 0 0 1 -13.109-13.158l-.034-39.545zm123.232 238.761a23.8 23.8 0 0 1 -23.613 23.933 35.814 35.814 0 0 0 -35.613 35.932v27.008c0 46.6-37.482 84.52-83.554 84.52h-15.693c-46.072 0-83.554-37.915-83.554-84.52v-27.008a35.814 35.814 0 0 0 -35.613-35.932h-12.107a23.8 23.8 0 0 1 -23.613-23.933v-154.259a4.25 4.25 0 0 1 4.232-4.259h97.953a25.158 25.158 0 0 0 24.446 19.438h2.041v12.966a18.282 18.282 0 0 0 18.246 18.278h19.046a29.178 29.178 0 0 0 29.116-29.171v-21.511h114.048a4.25 4.25 0 0 1 4.232 4.259z"/><path d="m244.346 150.766a6 6 0 0 0 6-6v-24.709a6 6 0 0 0 -12 0v24.709a6 6 0 0 0 6 6z"/><path d="m266.058 177.444a6 6 0 0 0 6-6v-24.709a6 6 0 0 0 -12 0v24.709a6 6 0 0 0 6 6z"/></g></svg>