<svg id="Layer_1" height="512" viewBox="0 0 512 512" width="512" xmlns="http://www.w3.org/2000/svg" data-name="Layer 1"><path d="m229.59 412.68a155.94 155.94 0 0 0 29.82.89c10.9-.81 21.89-3.11 31.73-7.79a34.825 34.825 0 0 1 34.83-34.84h1.91c1.42 0 2.83-.06 4.21-.19l.02.19v41.81a88.255 88.255 0 0 1 -176.51 0v-41.81l.03-.31a46.485 46.485 0 0 0 5.44.31h.66a34.842 34.842 0 0 1 34.84 34.84 191.852 191.852 0 0 0 33.02 6.9z" fill="#7d8791"/><path d="m211.65 475.15a87.8 87.8 0 0 1 -25.65-62.4v-32.334c-7-5.872-15.03-9.416-24.27-9.416h-.66a43.1 43.1 0 0 1 -5.24-.34l.17.28v41.81a87.917 87.917 0 0 0 87.95 88.25 89.406 89.406 0 0 0 15.05-1.275 87.894 87.894 0 0 1 -47.35-24.575z" fill="#636a72"/><path d="m383.65 196.44a10.635 10.635 0 1 1 -7.52-3.12 10.6 10.6 0 0 1 7.52 3.12z" fill="#a5803f"/><path d="m420.6 203.96a2.769 2.769 0 0 1 2.65 3.58c-2.16 6.96-8.07 21.82-19.8 23.74l-19.8-19.8a10.62 10.62 0 0 0 3.11-7.52z" fill="#eadf53"/><path d="m194.66 60.45a49.66 49.66 0 0 0 -1.71 17.67l-.01.01a308.92 308.92 0 0 0 -27.22-25.54s28.94-72.57 95.62-25.99c18.96 13.24 21.38 9.94 30.86 8.04 18.06-3.62 46.18-8.9 64.9 17.95a235.021 235.021 0 0 0 -21.08 25.91c.12-.49 3.92-16.88-17.66-24.39a44.721 44.721 0 0 0 -12.83-2.61 28.653 28.653 0 0 0 -16.96 4.32 20.087 20.087 0 0 1 -25.09-3.23c-7-7.2-18.24-19.87-37.09-17.7a44.652 44.652 0 0 0 -12.37 3.12c-11.61 4.89-16.96 14.08-19.36 22.44z" fill="#4ca987"/><path d="m434.74 112.42c-3.54 3.63-8.59 6.71-15.6 8.94a27.524 27.524 0 0 0 -7.78-8.34c-9.22-6.82-11.78-11.91-11.91-15.37a13.963 13.963 0 0 0 -6.89-11.75c-10.04-5.71-25.22-12.21-31.26-3.63-5.1 7.24-11.88 5.67-17 2.72-3.97-2.28-9.73-.29-14.78 3.37l-.01-.01s2.32-3.88 6.51-9.84v-.01a235.021 235.021 0 0 1 21.08-25.91c25.6-27.08 65.56-54.31 104.86-20.35 37.94 32.8 15.41 88.19-27.21 80.19z" fill="#edb740"/><path d="m364.6 138.27c-4.32-9.63-16.76-11.36-23-13.01 4.13-12.11 16.82-22.82 32.85-17.88 15.46 4.76 25.51 20.61 21.39 32.72a222.737 222.737 0 0 0 -31.24-1.81z" fill="#bfafaf"/><path d="m419.14 121.36c6.69 11.71-2.69 22.43-2.69 22.43l-.02.07a202.07 202.07 0 0 0 -20.59-3.76c4.12-12.11-5.93-27.96-21.39-32.72-16.03-4.94-28.72 5.77-32.85 17.88-1.8-.47-3.09-.94-3.52-1.59a13.964 13.964 0 0 0 -11.98-6.45c-1.97.06-4.08.06-6.22.08-4.28-6.2-1.25-14.31-.87-15.72 1.2-4.36 5.51-9.61 10.51-13.22 5.05-3.66 10.81-5.65 14.78-3.37 5.12 2.95 11.9 4.52 17-2.72 6.04-8.58 21.22-2.08 31.26 3.63a13.963 13.963 0 0 1 6.89 11.75c.13 3.46 2.69 8.55 11.91 15.37a27.524 27.524 0 0 1 7.78 8.34z" fill="#8dcecc"/><path d="m318.36 54.11c21.58 7.51 17.78 23.9 17.66 24.39v.01c-4.19 5.96-6.51 9.84-6.51 9.84l.01.01c-5 3.61-9.31 8.86-10.51 13.22-.38 1.41-3.41 9.52.87 15.72-7.84.05-16.2.26-20.12 4.06-2.27-1.3-4.47-2.42-6.61-3.4 17.6-22.95 12.38-66.46 12.38-66.46a44.721 44.721 0 0 1 12.83 2.61z" fill="#7cadc2"/><path d="m305.53 51.5s5.22 43.51-12.38 66.46a64.747 64.747 0 0 0 -14.3-4.75v-.01c9.38-28.36-15.37-60.61-15.37-60.61a20.087 20.087 0 0 0 25.09 3.23 28.653 28.653 0 0 1 16.96-4.32z" fill="#94bdcd"/><path d="m263.48 52.59s24.75 32.25 15.37 60.61a48.583 48.583 0 0 0 -14.29-.81c-8.96-45.96-50.54-74.38-50.54-74.38a44.652 44.652 0 0 1 12.37-3.12c18.85-2.17 30.09 10.5 37.09 17.7z" fill="#7cadc2"/><path d="m250.32 116.79c4.21-9.62-9.21-19.24-19.3-24.87-6.5-20.51-36.36-31.47-36.36-31.47 2.4-8.36 7.75-17.55 19.36-22.44 0 0 41.58 28.42 50.54 74.38-9.17.9-14.24 4.4-14.24 4.4z" fill="#94bdcd"/><path d="m231.02 91.92a13.945 13.945 0 0 0 -13.61.2c-2.21 1.22-5.82 1.8-11.74.33l-.01-.01c-.26-.32-4.91-6.09-12.72-14.31l.01-.01a49.66 49.66 0 0 1 1.71-17.67s29.86 10.96 36.36 31.47z" fill="#7cadc2"/><path d="m76.13 115.48c-42.62 7.99-67.13-50.44-29.19-83.24 38.06-32.89 85.68-6.98 118.78 20.35a308.92 308.92 0 0 1 27.22 25.54c7.81 8.22 12.46 13.99 12.72 14.31a54.865 54.865 0 0 1 -7.58-2.55c-22.35-9.17-28.95 11.59-28.95 11.59l-.08.09c-5.41-4.45-12.04-7.2-16.45-4.66-5.12 2.95-11.9 4.53-17-2.71-6.04-8.58-21.22-2.08-31.27 3.63a13.95 13.95 0 0 0 -6.88 11.74c-.11 2.84-1.85 6.76-7.55 11.85a47.177 47.177 0 0 1 -13.76-5.94c-.01.01-.01 0-.01 0z" fill="#edb740"/><path d="m179.7 121.41a12.8 12.8 0 0 1 -2.01 8.19c-2.37-.25-4.72-.39-6.89-.45a13.42 13.42 0 0 0 -8.23 2.54c-4.13-12.1-27.15-16.42-38.9-10.27-14.33 7.49-21.33 26.21-17.2 38.31a62.781 62.781 0 0 0 -26.08-2.73s-14.28-17.68 5.14-32.05c1.67-1.23 3.11-2.41 4.37-3.53 5.7-5.09 7.44-9.01 7.55-11.85a13.95 13.95 0 0 1 6.88-11.74c10.05-5.71 25.23-12.21 31.27-3.63 5.1 7.24 11.88 5.66 17 2.71 4.41-2.54 11.04.21 16.45 4.66 4.27 3.51 7.78 8.07 8.83 11.94a30.1 30.1 0 0 1 1.82 7.9z" fill="#8dcecc"/><path d="m162.57 131.69a15.062 15.062 0 0 0 -3.76 3.91c-1.92 2.88-6.74 5.9-18.17 6.93-24.07 2.17-20.35 23.63-20.35 23.63a63.082 63.082 0 0 0 -13.82-6.43c-4.13-12.1 2.87-30.82 17.2-38.31 11.75-6.15 34.77-1.83 38.9 10.27z" fill="#ddc1bf"/><path d="m192.83 183.88c-18.28 2.78-35.43-.68-50.02-6.37 2.77-12.49 40.03-26.35 50.02 6.37z" fill="#bfafaf"/><path d="m223.97 159.73a13.476 13.476 0 0 1 1.89 11.42 12.721 12.721 0 0 1 -1.97 4.04q-12.6 4.035-23.48 7.19-3.81.93-7.58 1.5c-9.99-32.72-47.25-18.86-50.02-6.37a137.412 137.412 0 0 1 -22.52-11.35s-3.72-21.46 20.35-23.63c11.43-1.03 16.25-4.05 18.17-6.93a15.062 15.062 0 0 1 3.76-3.91 13.42 13.42 0 0 1 8.23-2.54c2.17.06 4.52.2 6.89.45 10.25 1.07 21.13 4.21 21.7 12.71.59 8.84 7.2 11.02 13.11 11.17a14.318 14.318 0 0 1 11.47 6.25z" fill="#a0eaea"/><path d="m256.81 132.73c7.97 4.39 5.95 13.03 3.71 21.85-.74 2.88-5.83 10.05-7.25 10.78h-.01q-15.765 5.49-29.37 9.83a12.721 12.721 0 0 0 1.97-4.04 13.476 13.476 0 0 0 -1.89-11.42c12.94-15.59 7.94-33.07-1.94-41.19-12.5-10.26-34.12-6.93-42.33 2.87a30.1 30.1 0 0 0 -1.82-7.9c-1.05-3.87-4.56-8.43-8.83-11.94l.08-.09s6.6-20.76 28.95-11.59a54.865 54.865 0 0 0 7.58 2.55l.01.01c5.92 1.47 9.53.89 11.74-.33a13.945 13.945 0 0 1 13.61-.2c10.09 5.63 23.51 15.25 19.3 24.87-3.55 8.11 1.31 13.09 6.49 15.94z" fill="#8dfff9"/><path d="m222.03 118.54c9.88 8.12 14.88 25.6 1.94 41.19a14.318 14.318 0 0 0 -11.47-6.25c-5.91-.15-12.52-2.33-13.11-11.17-.57-8.5-11.45-11.64-21.7-12.71a12.8 12.8 0 0 0 2.01-8.19c8.21-9.8 29.83-13.13 42.33-2.87z" fill="#ddc1bf"/><path d="m299.76 121.36a7.377 7.377 0 0 0 -2.25 5.05c-.59 8.84-7.2 11.02-13.11 11.16-9.1.23-9.36 12.52-3.42 17.84q-14.655 5.4-27.71 9.95c1.42-.73 6.51-7.9 7.25-10.78 2.24-8.82 4.26-17.46-3.71-21.85-5.18-2.85-10.04-7.83-6.49-15.94 0 0 5.07-3.5 14.24-4.4a48.583 48.583 0 0 1 14.29.81v.01a64.747 64.747 0 0 1 14.3 4.75c2.14.98 4.34 2.1 6.61 3.4z" fill="#4689d3"/><path d="m364.6 138.27v.02a219.531 219.531 0 0 0 -74.12 13.59q-4.83 1.815-9.5 3.53c-5.94-5.32-5.68-17.61 3.42-17.84 5.91-.14 12.52-2.32 13.11-11.16a7.377 7.377 0 0 1 2.25-5.05c3.92-3.8 12.28-4.01 20.12-4.06 2.14-.02 4.25-.02 6.22-.08a13.964 13.964 0 0 1 11.98 6.45c.43.65 1.72 1.12 3.52 1.59 6.24 1.65 18.68 3.38 23 13.01z" fill="#e75163"/><path d="m200.41 182.38q10.89-3.165 23.48-7.19 13.62-4.365 29.37-9.83h.01q13.08-4.56 27.71-9.95 4.665-1.725 9.5-3.53a219.531 219.531 0 0 1 74.12-13.59 222.737 222.737 0 0 1 31.24 1.81 202.07 202.07 0 0 1 20.59 3.76c24.66 5.87 45.23 16.01 57.94 28.78a32.636 32.636 0 0 1 3.24 42.2c-24.78 34.47-70.34 26.53-70.34 26.53a4.512 4.512 0 0 0 -.07-6.34l-3.75-3.75c11.73-1.92 17.64-16.78 19.8-23.74a2.769 2.769 0 0 0 -2.65-3.58h-5.37a32.156 32.156 0 0 0 -3.55-31.99 2.178 2.178 0 0 0 -3.31-.25l-3.89 3.89c-4.3-11.62-18.18-16.94-24.79-18.86a2.8 2.8 0 0 0 -3.56 2.69v10.51c-9.88-7.36-21.21-5.2-27.98-2.76a4.321 4.321 0 0 0 -2.86 3.88c-24.68 3.6-52.74 10.54-81.59 20.72a.28.28 0 0 1 -.06.01c-10.63 3.75-21.37 7.94-32.09 12.56-47.49 20.48-87.54 26.14-119.31 25.01-32.24-1.13-55.95-9.24-70.28-15.92a18.724 18.724 0 0 1 -8.12-26.56c.21-.34.41-.68.62-1.03a61.174 61.174 0 0 1 45.93-28.86 62.951 62.951 0 0 1 39.9 9.16 137.412 137.412 0 0 0 22.52 11.35c14.59 5.69 31.74 9.15 50.02 6.37q3.77-.57 7.58-1.5z" fill="#bc5e51"/><path d="m346.57 174.4 6.26 6.26c-9.71-.08-17.02 9.18-21.11 16.04a4.8 4.8 0 0 0 4.12 7.26h3.92c-26.97 13.66-40.34 4.54-50.7-4.08-12.38-10.3-24.38-8.28-25.36-8.09 28.85-10.18 56.91-17.12 81.59-20.72a4.349 4.349 0 0 0 1.28 3.33z" fill="#7f3d32"/><path d="m411.68 171.97a32.156 32.156 0 0 1 3.55 31.99h-28.47a10.6 10.6 0 0 0 -3.11-7.52v-.01l20.83-20.82 3.89-3.89a2.178 2.178 0 0 1 3.31.25z" fill="#edb740"/><path d="m404.48 175.61-20.83 20.82v.01a10.6 10.6 0 0 0 -7.52-3.12v-33.88a2.8 2.8 0 0 1 3.56-2.69c6.61 1.92 20.49 7.24 24.79 18.86z" fill="#eadf53"/><path d="m345.29 171.07a4.321 4.321 0 0 1 2.86-3.88c6.77-2.44 18.1-4.6 27.98 2.76v23.37a10.62 10.62 0 0 0 -7.52 3.11l-15.77-15.77h-.01l-6.26-6.26a4.349 4.349 0 0 1 -1.28-3.33z" fill="#edb740"/><path d="m368.61 196.43a10.593 10.593 0 0 0 -3.12 7.53h-29.65a4.8 4.8 0 0 1 -4.12-7.26c4.09-6.86 11.4-16.12 21.11-16.04h.01z" fill="#eadf53"/><path d="m350.2 229.9-4.59 4.58a3.6 3.6 0 0 1 -5.84-1.09 29.387 29.387 0 0 1 3.53-29.43h22.19a10.57 10.57 0 0 0 3.12 7.52z" fill="#edb740"/><path d="m376.13 243.58v4.67a3.716 3.716 0 0 1 -.66 2.14 3.79 3.79 0 0 1 -3.73 1.63c-13.05-2.11-21.29-21.51-21.54-22.12l18.41-18.42a10.62 10.62 0 0 0 7.52 3.11z" fill="#eadf53"/><path d="m407.2 235.03a4.512 4.512 0 0 1 .07 6.34c-13.31 13.44-31.14 2.21-31.14 2.21v-28.99a10.638 10.638 0 0 0 7.52-3.11l19.8 19.8z" fill="#edb740"/><path d="m259.41 413.57a155.94 155.94 0 0 1 -29.82-.89 191.852 191.852 0 0 1 -33.02-6.9 34.842 34.842 0 0 0 -34.84-34.84h-.66a46.485 46.485 0 0 1 -5.44-.31 48.133 48.133 0 0 1 -42.7-47.47l-.69-93.78v-.01c31.77 1.13 71.82-4.53 119.31-25.01 10.72-4.62 21.46-8.81 32.09-12.56a.28.28 0 0 0 .06-.01c.98-.19 12.98-2.21 25.36 8.09 10.36 8.62 23.73 17.74 50.7 4.08h3.54a29.387 29.387 0 0 0 -3.53 29.43 3.6 3.6 0 0 0 5.84 1.09l4.59-4.58c.25.61 8.49 20.01 21.54 22.12a3.79 3.79 0 0 0 3.73-1.63l.54 72.05a48.118 48.118 0 0 1 -43.92 48.31c-1.38.13-2.79.19-4.21.19h-1.91a34.825 34.825 0 0 0 -34.83 34.84c-9.84 4.68-20.83 6.98-31.73 7.79z" fill="#afb9bf"/><path d="m268.14 343.1a20.58 20.58 0 0 1 2.89 10.85c-.07 10.05-6.84 18.07-15.24 18.07a14.073 14.073 0 0 1 -10.71-5.26 1.575 1.575 0 0 0 -2.45-.02 13.9 13.9 0 0 1 -11.64 5.25c-7.5-.53-13.65-7.71-14.26-16.68a20.659 20.659 0 0 1 3.32-12.97c2.5-3.93 10.12-9.98 16.3-14.52a13.665 13.665 0 0 1 16.92.61c6.07 5.15 13.54 11.83 14.86 14.65z" fill="#86909d"/><path d="m303.49 241.62a36.815 36.815 0 1 1 -36.82 36.82 36.812 36.812 0 0 1 36.82-36.82z" fill="#86909d"/><path d="m184.22 241.62a36.815 36.815 0 1 1 -36.82 36.82 36.812 36.812 0 0 1 36.82-36.82z" fill="#86909d"/><path d="m259.59 412.68q-1.287-.156-2.544-.325c-14.886-2-27.636-11.164-35.233-24.121a34.825 34.825 0 0 0 -30.083-17.234h-.66a46.459 46.459 0 0 1 -5.44-.34 48.254 48.254 0 0 1 -42.82-47.485l-.516-94.783-.166.018-.128.013a229.37 229.37 0 0 1 -30 .947v.01l.81 93.78a48.216 48.216 0 0 0 42.76 47.5 47.491 47.491 0 0 0 5.5.34h.66a34.816 34.816 0 0 1 34.84 34.81 192.781 192.781 0 0 0 33.02 6.885 156.041 156.041 0 0 0 29.82.883c1.5-.112 3-.262 4.5-.433-1.461-.145-2.91-.295-4.32-.465z" fill="#8a9499"/><g fill="#284268"><path d="m227.034 278.435a42.816 42.816 0 1 0 -42.816 42.817 42.864 42.864 0 0 0 42.816-42.817zm-42.816 30.817a30.817 30.817 0 1 1 30.816-30.817 30.852 30.852 0 0 1 -30.816 30.817z"/><path d="m303.489 235.619a42.817 42.817 0 1 0 42.816 42.816 42.865 42.865 0 0 0 -42.816-42.816zm0 73.633a30.817 30.817 0 1 1 30.816-30.817 30.853 30.853 0 0 1 -30.816 30.817z"/><path d="m257.146 323.85a19.6 19.6 0 0 0 -24.343-.868c-13.97 10.254-16.838 14.6-17.781 16.078a26.777 26.777 0 0 0 -4.282 16.661c.816 11.946 9.342 21.511 19.832 22.251a19.35 19.35 0 0 0 13.275-4.118 19.3 19.3 0 0 0 11.942 4.166c11.807 0 21.139-10.553 21.242-24.024a26.669 26.669 0 0 0 -3.6-13.744c-.783-1.606-2.857-5.021-16.285-16.402zm-1.356 42.17a8.1 8.1 0 0 1 -6.125-3.138 7.614 7.614 0 0 0 -5.818-2.716 7.583 7.583 0 0 0 -5.8 2.707 8.087 8.087 0 0 1 -6.63 3.127c-4.478-.316-8.3-5.192-8.706-11.1a14.726 14.726 0 0 1 2.31-9.207c.03-.044.06-.089.088-.134.572-.9 3.331-4.491 14.795-12.9a7.633 7.633 0 0 1 9.483.348c11.2 9.49 13.121 12.322 13.353 12.706.082.167.175.337.269.494a14.612 14.612 0 0 1 2.024 7.7c-.051 6.678-4.198 12.114-9.243 12.113z"/><path d="m68.5 122.205a46.8 46.8 0 0 0 6.409-.447c.988.575 2.015 1.136 3.126 1.669a26.662 26.662 0 0 0 -8.509 16.044 27.3 27.3 0 0 0 1.675 13.019 66.794 66.794 0 0 0 -41.856 30.238q-.338.552-.663 1.1a24.721 24.721 0 0 0 10.738 35.063c14.631 6.827 37.1 14.45 66.854 16.292l.654 88.027a54.327 54.327 0 0 0 42.672 52.49v37.044a94.254 94.254 0 1 0 188.507 0v-36.77a54.159 54.159 0 0 0 43.908-53.58l-.527-69.965a35.351 35.351 0 0 0 10.017 1.513 27.312 27.312 0 0 0 17.728-6.256 90.924 90.924 0 0 0 9.792.511c16.436 0 44.973-4.137 63.459-29.858a38.606 38.606 0 0 0 -3.858-49.932c-12.137-12.2-30.762-22.048-53.066-28.365a25.417 25.417 0 0 0 1.852-12.348 23.5 23.5 0 0 0 -.494-2.868 41.435 41.435 0 0 0 9.868-6.025 48.3 48.3 0 0 0 5.891.377 43.335 43.335 0 0 0 39.662-25.078 52.073 52.073 0 0 0 3.775-33.36c-2.67-12.477-9.667-23.9-20.235-33.034-16.173-13.979-33.9-19.527-52.692-16.5-21.242 3.429-40.507 17.384-55.629 32.278-21.058-23.839-50.314-17.984-66.54-14.724-1.369.275-2.591.573-3.67.837-5.716 1.395-8.327 2.034-22.57-7.917-21.706-15.161-42.136-20.03-60.721-14.466-21.7 6.495-34.7 25.476-40.437 35.986-24.792-19.338-48.083-30.111-69.374-32.061-19.238-1.761-36.473 3.811-51.227 16.561-23.492 20.3-24.7 48.7-15.477 67.841 8.101 16.81 23.613 26.664 40.958 26.664zm257.6 290.541a82.254 82.254 0 1 1 -164.507 0v-35.8h.132a28.865 28.865 0 0 1 28.833 28.833v15.78a6 6 0 0 0 12 0v-7.859a209.783 209.783 0 0 0 21.026 4.216v6.384a6 6 0 0 0 12 0v-4.988c4.851.414 9.557.637 14.089.637 1.256 0 2.5-.021 3.729-.052v4.4a6 6 0 0 0 12 0v-5.263a97.879 97.879 0 0 0 19.732-4.379v6.9a6 6 0 0 0 12 0v-15.78a28.866 28.866 0 0 1 28.834-28.833h.132zm31.679-60.257a41.853 41.853 0 0 1 -29.911 12.456h-1.9a40.888 40.888 0 0 0 -40.636 36.837 81.158 81.158 0 0 1 -19.93 5.124v-2.858a6 6 0 0 0 -12 0v3.805a150.508 150.508 0 0 1 -17.818-.605v-3.2a6 6 0 0 0 -12 0v1.7a198.683 198.683 0 0 1 -21.288-4.547 40.887 40.887 0 0 0 -40.571-36.26h-.661a42.253 42.253 0 0 1 -42.139-41.828l-.65-87.531c.526 0 1.048.012 1.578.012 31.278 0 69.485-6.5 114.067-25.726 10.3-4.439 20.789-8.529 31.325-12.251 2.007-.257 10.719-.826 19.971 6.87 5.81 4.833 14.911 12.4 29.569 12.4a53.115 53.115 0 0 0 17.453-3.2 34.7 34.7 0 0 0 2 22.052 9.519 9.519 0 0 0 6.961 5.617 9.588 9.588 0 0 0 7.346-1.566c4.048 6.729 11.126 15.67 20.97 17.884l.489 64.808a41.851 41.851 0 0 1 -12.218 30.007zm2.845-154.534h-22.615c2.807-4.315 7.318-9.826 12.594-11.04l10.321 10.32c-.105.237-.199.478-.293.72zm.293 12.72-16.837 16.844a23.253 23.253 0 0 1 2.4-17.564h14.15c.095.245.189.484.294.72zm-34.359-17.038a10.827 10.827 0 0 0 -.729 9.581c-15.62 4.743-24.306-.771-32.939-7.952a44.746 44.746 0 0 0 -6.586-4.562 421.942 421.942 0 0 1 55.2-12.969c-5.428 3.073-10.484 8.413-14.939 15.902zm43.57 51.663c-5.388-2.453-10.068-9.366-12.673-14.185l11.954-11.954c.236.1.478.2.719.293zm0-56.842c-.241.094-.483.188-.719.293l-16.719-16.719c5.131-1.446 11.548-1.978 17.438 1.189zm6 20.134a4.636 4.636 0 1 1 4.636-4.636 4.641 4.641 0 0 1 -4.636 4.635zm6 31.317v-20.456c.243-.094.484-.188.72-.293l19.031 19.031c-6.95 5.909-15.422 3.57-19.751 1.717zm.72-51.158c-.236-.1-.478-.2-.72-.293v-24.564c4.925 1.876 11.469 5.223 15.032 10.544zm26.319-9.349a26.064 26.064 0 0 1 1.877 18.554h-19.418c-.094-.242-.188-.483-.293-.72zm-4.018 45.09-13.816-13.816c.1-.237.2-.478.293-.72h24.405c-1.987 4.987-5.6 11.984-10.882 14.535zm64.97-47.618a26.645 26.645 0 0 1 2.621 34.464c-17.164 23.881-46.014 25.3-58.452 24.681a10.517 10.517 0 0 0 -.863-2.463c8.651-5.885 13.326-17.04 15.554-24.245a8.73 8.73 0 0 0 -5.747-10.932 37.991 37.991 0 0 0 -6.664-29.883 8.149 8.149 0 0 0 -10.608-2.39c-6.757-8.749-17.769-13.131-24.6-15.113a8.7 8.7 0 0 0 -7.717 1.412 8.846 8.846 0 0 0 -3.518 7.04v.858c-7.283-2.207-15.515-1.82-24.012 1.246a10.289 10.289 0 0 0 -5.175 4.132c-35.259 5.515-74.784 17.227-111.765 33.172-92.389 39.837-155.361 22.838-184.673 9.16a12.51 12.51 0 0 1 -6.738-7.744 12.643 12.643 0 0 1 1.238-10.307c.19-.317.383-.639.58-.96a54.876 54.876 0 0 1 34.4-24.837 56.556 56.556 0 0 1 43.146 7.092 135.241 135.241 0 0 0 37.474 16.343c-29.309 5.717-40.251 3.611-43.912 2.142a6 6 0 0 0 -4.466 11.139c3.731 1.5 9.148 2.491 16.969 2.491 24.8 0 73.727-10.019 169.394-45.869 68.954-25.844 147.469-10.848 177.534 19.37zm-158.037-118.365c1.4.34 2.833.755 4.3 1.266 13.79 4.795 14.238 13.408 13.954 16.344-2.605 3.764-4.417 6.619-5.334 8.1-5.664 4.359-10.3 10.349-11.778 15.772l-.09.3a29.619 29.619 0 0 0 -1.428 11.277 43.948 43.948 0 0 0 -8.44 1.373c9.14-18.392 9.405-42.307 8.816-54.432zm64.139 43.141c-16.108-4.963-29.8 3.009-36.871 14.451a19.569 19.569 0 0 0 -13.431-4.875c-.7.021-1.419.032-2.148.041a16.64 16.64 0 0 1 .838-7.455c.084-.273.15-.493.193-.65 1.008-3.7 6.8-10.049 12.49-12.392 2.023-.834 3.472-.895 4.011-.585 9.694 5.583 19 3.916 24.9-4.456 2.419-3.435 11.6-1.319 23.393 5.39a7.987 7.987 0 0 1 3.856 6.763c.255 6.483 4.947 13.014 14.342 19.964 4.641 3.433 7.224 7.152 7.676 11.052a14.389 14.389 0 0 1 -1.779 8.195q-5.362-1.155-10.94-2.041a29.394 29.394 0 0 0 -3.385-14.134 39.39 39.39 0 0 0 -23.145-19.268zm14.5 31.826c-7.5-.774-15.075-1.152-22.657-1.175-4.476-6.434-11.7-9.35-17.742-11.045 4.3-6.161 11.985-11.333 22.361-8.138a27.165 27.165 0 0 1 15.988 13.25 18.225 18.225 0 0 1 2.055 7.108zm-87.232-6.665c.229-3.426 11.058-3.485 17.527-3.52 1.811-.01 3.582-.02 5.256-.07a8 8 0 0 1 6.811 3.772c1.923 2.891 5.176 3.661 9.679 4.727 1.648.39 3.467.825 5.288 1.372a223.632 223.632 0 0 0 -59.684 13.17c-1.707.64-3.385 1.264-5.059 1.886a6.205 6.205 0 0 1 -.1-3.732c.215-.583.4-.822 1.334-.846 11.188-.276 18.271-6.541 18.953-16.759zm-12.55-16.288c-1.646-.632-3.247-1.171-4.814-1.648 3.007-16.247-2.573-32.582-8.288-44.1a25.4 25.4 0 0 0 13.936-3.889 21.712 21.712 0 0 1 8.23-3.088c.623 11.102.736 36.259-9.059 52.725zm.85 13.427a16.669 16.669 0 0 0 -.273 2.063c-.144 2.147-.36 5.39-7.271 5.561a13.007 13.007 0 0 0 -12.3 8.69 18.052 18.052 0 0 0 .073 12.033q-2.64.96-5.222 1.89c2.132-8.628 4.244-20.456-7.1-26.709-4.469-2.463-4.926-4.729-4.514-6.54 4.248-2.027 17.101-6.365 36.612 3.012zm-17.418-17.481c-1.759-.178-3.442-.266-5.05-.278-7.813-31.431-29.351-54.169-42.121-65.353 14.968-1.661 24.215 7.908 30.973 14.9l.722.745c1.932 2.628 19.519 27.351 15.481 49.986zm-17.083 1.108c-.355.089-.706.18-1.045.273-2.01-5.846-7.74-12.668-20.339-20.038-6.404-16.112-24.421-26.312-33.635-30.632a26.3 26.3 0 0 1 11.131-12.158c8.638 6.72 35.02 29.463 43.893 62.555zm-49.93-33.9a56.016 56.016 0 0 1 12.842 11.045 21.136 21.136 0 0 0 -5.7 2.151c-.224.124-1.714.812-5.536.14-1.8-2.16-5.295-6.233-10.165-11.437a46.074 46.074 0 0 1 .278-6.595 86.363 86.363 0 0 1 8.286 4.692zm12.947 23.7a7.99 7.99 0 0 1 7.784-.207c11.847 6.61 18.413 13.368 16.729 17.217-4.106 9.382-.707 18.207 9.09 23.606 3.229 1.781 3.392 4.888.806 15.059a33.18 33.18 0 0 1 -4.54 7.023q-9.31 3.231-17.831 6.048a19.411 19.411 0 0 0 -1.315-5.8 35.66 35.66 0 0 0 6.572-23.933 33.276 33.276 0 0 0 -11.764-22.484c-11.979-9.838-30.27-9.405-42.451-2.876a30.141 30.141 0 0 0 -6.977-10.843 14.359 14.359 0 0 1 5.888-5.544c3.584-1.675 8.13-1.4 13.51.8 10.811 4.438 18.826 5.067 24.504 1.928zm2.624 53.2a20.2 20.2 0 0 0 -10.287-3.093c-6.911-.171-7.127-3.415-7.27-5.561-.428-6.406-4.527-13.886-19.764-17.15.033-.31.069-.62.088-.926 7.278-6.426 23.515-8.052 32.518-.661a21.5 21.5 0 0 1 7.434 14.352 23.121 23.121 0 0 1 -2.714 13.032zm-29.529-7.863c.681 10.218 7.764 16.483 18.948 16.759a8.288 8.288 0 0 1 6.514 3.419 7.511 7.511 0 0 1 1.233 6.6c-.07.241-.171.459-.261.684q-11.344 3.6-21.2 6.456c-.653.158-1.3.3-1.955.444-5.692-12.937-16.5-19.95-30.365-19.415-10.622.416-21.024 5.543-26.221 12.219a133.2 133.2 0 0 1 -14-7.219 14.921 14.921 0 0 1 2.723-8.636c2.408-3.138 6.566-4.994 12.358-5.516 11.64-1.048 19.044-4.185 22.635-9.588a8.032 8.032 0 0 1 6.811-3.771c13.561.403 22.503 3.373 22.78 7.564zm-9.343 36.018a91.063 91.063 0 0 1 -31.623-4.219 27.23 27.23 0 0 1 14.346-4.864c5.572-.211 12.567 1.387 17.28 9.083zm-64.757-32.017a24.951 24.951 0 0 0 -4.5 9.779q-1.619-.717-3.263-1.349c-1.469-9.337 4.086-22.742 14.921-28.409 5.437-2.843 15.054-2.785 22.37.136a18 18 0 0 1 6.152 3.838c-.4.5-.8 1.02-1.158 1.566-.22.332-2.476 3.267-13.718 4.28-9.275.835-16.273 4.253-20.804 10.159zm54.4-23.446c-.883-.048-1.785-.088-2.715-.116a19.227 19.227 0 0 0 -6 .781 28.366 28.366 0 0 0 -11.71-8.207c-10.572-4.222-23.888-4.067-32.382.375-12.917 6.756-21.5 21.771-21.625 35.624a68.02 68.02 0 0 0 -15.745-.992 16.833 16.833 0 0 1 -2.075-9.827c.544-4.031 3.12-7.777 7.657-11.134 9.4-6.95 14.088-13.48 14.344-19.963a7.99 7.99 0 0 1 3.855-6.765c11.792-6.709 20.973-8.824 23.394-5.389 5.9 8.371 15.2 10.038 24.9 4.456.538-.31 1.988-.249 4.011.585 5.685 2.344 11.481 8.7 12.491 12.393.064.235.182.6.344 1.076a18.827 18.827 0 0 1 1.249 7.103zm241.421-100.22c15.331-2.467 29.365 2.023 42.911 13.732 13.566 11.725 23 32.385 13.5 52.105-4.229 8.774-13.024 17.223-26.038 18.223q4.14-9.871 1.9-23.675a5.994 5.994 0 1 0 -11.831 1.935c2.464 14.693-1.964 23.6-14.193 28.77a37.936 37.936 0 0 0 -6.431-5.94c-9.074-6.713-9.473-10.393-9.489-10.791a19.9 19.9 0 0 0 -9.912-16.72c-23.872-13.58-34.459-8.513-39.138-1.87-1.239 1.759-3.113 4.416-9.1.968a13.162 13.162 0 0 0 -3.741-1.437c13.501-18.433 40.898-50.362 71.562-55.3zm-207.621-4.339c14.9-4.458 31.859-.15 50.409 12.808 16.92 11.82 22.831 12.044 32.287 9.736 1.013-.247 2.06-.5 3.186-.728 15.806-3.174 39.227-7.863 55.849 11.678-3.547 3.934-6.773 7.8-9.643 11.432-3.018-5.827-8.839-11.572-19.259-15.2-13.409-4.661-25.172-3.885-34.963 2.308a14.144 14.144 0 0 1 -17.583-2.34l-.972-1c-7.546-7.811-20.178-20.884-41.1-18.475-12.741 1.466-22.637 6.559-29.414 15.137a44.941 44.941 0 0 0 -8.643 20.151c-3.974-3.856-8.378-7.935-13.146-12.061-.468-.405-.934-.8-1.4-1.2 4.121-8.086 15.369-26.556 34.392-32.246zm-156.634 18.071c12.359-10.681 26.187-15.165 42.267-13.694 37.081 3.385 75.306 38.113 94.758 58.465a23.924 23.924 0 0 0 -10.675 2.219 25.769 25.769 0 0 0 -10.39 9.1c-.877-.467-1.76-.9-2.648-1.266-6.928-2.856-11.748-1.516-14.572.111-5.991 3.449-7.863.791-9.1-.967-4.679-6.643-15.266-11.712-39.137 1.869a19.9 19.9 0 0 0 -9.913 16.721c-.011.271-.206 2.069-3.195 5.308-17.447-5.819-18.171-15.147-15.128-29.014a6 6 0 0 0 -4.384-7.1h-.023a5.979 5.979 0 0 0 -7.313 4.492c-1.8 8.248-2.92 18.111 1.559 26.773-11.985-2-20.348-10.595-24.62-19.459-7.237-15.023-6.175-37.405 12.514-53.558z"/></g></svg>