<svg id="Layer_1" height="512" viewBox="0 0 512 512" width="512" xmlns="http://www.w3.org/2000/svg" data-name="Layer 1"><path d="m388.34 315.94c-.76.63-39.75 33.25-22.69 94-122.23 6.31-267.1-61.42-330.67-92.95a43.173 43.173 0 0 1 19.23-81.84c.64 0 1.28.01 1.92.04 70.59 3.13 228.41 16.41 332.21 80.75z" fill="#6b655f"/><path d="m54.21 265.15c.64 0 1.28.01 1.92.04 67.038 2.973 212.742 15.105 316.142 71.426 7.335-13.368 15.72-20.387 16.068-20.676-103.8-64.34-261.62-77.62-332.21-80.75-.64-.03-1.28-.04-1.92-.04a43.182 43.182 0 0 0 -40.51 58.194 43.216 43.216 0 0 1 40.51-28.194z" fill="#514c48"/><path d="m485.25 175.44a1.8 1.8 0 0 1 2.53 2.42c-19.51 33-5.46 43.23-3.53 88.32 1.62 37.83-26.24 50.55-38.03 54.23a1.8 1.8 0 0 1 -2.05-2.71c5.35-8.23 14.61-29.3 1.7-64.87-13.65-37.64 23.67-67.01 39.38-77.39z" fill="#b0b5ca"/><path d="m399.06 406.17c-6.61-1.7-7.93-18.73-2.94-38.02s14.39-33.55 21-31.84 7.93 18.72 2.94 38.02-14.39 33.55-21 31.84z" fill="#eb7288"/><path d="m399.06 406.17a268.612 268.612 0 0 1 -33.41 3.77c-17.06-60.75 21.93-93.37 22.69-94a274.551 274.551 0 0 1 28.78 20.37c-6.61-1.71-16.02 12.55-21 31.84s-3.67 36.32 2.94 38.02z" fill="#c15f74"/><path d="m268.45 266.18s-14.98 11.06-26.02 34.02a11.331 11.331 0 0 0 -.37 9.29 25.3 25.3 0 0 1 -7.12 29.35 11.2 11.2 0 0 0 -3.92 8.12 161.133 161.133 0 0 0 4.59 47.66c-11.42-2.87-22.73-6.04-33.85-9.43-4.38-17-4.66-33.46-3.82-47.08a11.019 11.019 0 0 0 -1.39-6.21 25.357 25.357 0 0 1 8.53-34.02 11.118 11.118 0 0 0 4.04-4.58c11.47-23.77 27.55-35.04 27.55-35.04l.01-.03c10.57 2.4 21.19 5.04 31.77 7.95z" fill="#f3ce7d"/><path d="m147.97 242.89s-37.15 47.67-30.31 111.91c-11.69-4.83-22.78-9.65-33.13-14.31-6.34-57.31 26.27-101.61 26.27-101.61 11.69 1.06 24.15 2.38 37.17 4.01z" fill="#7f3d32"/><path d="m400.857 354.135c5.017-11.684 11.4-19.084 16.263-17.825a274.551 274.551 0 0 0 -28.78-20.37c-.348.289-8.733 7.308-16.068 20.676q8.219 4.476 16.068 9.324 6.402 3.96 12.517 8.195z" fill="#9b4e62"/><path d="m268.45 266.18c-10.58-2.91-21.2-5.55-31.77-7.95l-.01.03s-11.653 8.174-22.195 25.269c10.936 2.161 21.988 4.572 33.059 7.256 10.046-16.572 20.916-24.605 20.916-24.605z" fill="#b79d6a"/><path d="m147.97 242.89c-13.02-1.63-25.48-2.95-37.17-4.01 0 0-7.972 10.835-15.267 28.713 11.275.877 23.475 1.991 36.355 3.409 7.953-17.679 16.082-28.112 16.082-28.112z" fill="#66312a"/><g fill="#284268"><path d="m440.232 254.881c4.052 11.168 12.057 39.327-1.094 59.552a7.807 7.807 0 0 0 6.494 12.066 7.946 7.946 0 0 0 2.372-.365 64.221 64.221 0 0 0 26.538-15.823c11.2-11.373 16.48-26.307 15.7-44.386a258.671 258.671 0 0 0 -4.264-35.806c-3.256-18.627-5.049-28.888 6.965-49.2a7.8 7.8 0 0 0 -11.005-10.481c-7.625 5.036-21.957 15.626-32.266 29.979-12.691 17.667-15.955 36.502-9.44 54.464zm19.189-47.467a98.674 98.674 0 0 1 15.56-16.691c-5.4 15.259-3.38 26.819-.821 41.462a244.985 244.985 0 0 1 4.1 34.255c1.074 25.024-11.826 37.726-23.848 44.105 4.661-12.48 7.128-32.129-2.895-59.757-5.18-14.269-2.517-28.862 7.904-43.374z"/><path d="m404.69 240.23c4.357 19.539 7.8 34.971 4.8 50.43a6 6 0 1 0 11.78 2.287c3.479-17.916-.388-35.253-4.865-55.328-2.185-9.8-4.662-20.906-6.568-33.317-3.119-20.3-2.316-38.749 2.388-54.824a6 6 0 0 0 -11.518-3.37c-5.2 17.773-6.119 37.965-2.731 60.016 1.964 12.809 4.488 24.124 6.714 34.106z"/><path d="m413.9 129.1a6 6 0 0 0 8.283-1.844c9.049-14.237 19.305-20.276 19.5-20.386a6 6 0 0 0 -5.908-10.445c-.522.294-12.908 7.391-23.714 24.393a6 6 0 0 0 1.839 8.282z"/><path d="m459.19 148.025a6 6 0 0 0 7.75-3.458c.085-.225 8.925-22.569 34.8-25.771a6 6 0 0 0 -1.474-11.909c-32.947 4.077-44.073 32.195-44.531 33.389a6 6 0 0 0 3.455 7.749z"/><path d="m490.929 325.145a6 6 0 0 0 -8.146 2.378c-7.567 13.809-23.211 12.16-23.928 12.075a6 6 0 0 0 -1.512 11.9 29.416 29.416 0 0 0 3.575.187c7.188 0 23.377-1.957 32.389-18.4a6 6 0 0 0 -2.378-8.14z"/><path d="m32.315 322.366c126.077 62.53 232.279 94.023 316.714 94.023a291.313 291.313 0 0 0 48.717-3.909 14.451 14.451 0 0 1 2.451-.162h.012c4.011 0 9.293-2.288 14.968-10.892 4.322-6.553 8.119-15.644 10.692-25.6s3.658-19.745 3.053-27.569c-.873-11.285-5.023-15.668-8.849-17.267-97.794-78.841-269.723-97.623-363.673-101.79a49.175 49.175 0 0 0 -24.081 93.169zm383.21 20.121c1.573 2.971 3.013 13.759-1.273 30.337s-10.782 25.333-13.6 27.168c-1.573-2.97-3.013-13.758 1.273-30.338s10.783-25.331 13.6-27.167zm-9.735-7.387a36.581 36.581 0 0 0 -4.79 5.953c-4.322 6.552-8.12 15.643-10.693 25.6s-3.659 19.746-3.053 27.569a36.432 36.432 0 0 0 1.312 7.536q-8.948 1.244-18.353 1.887c-5.221-21.921-3.416-42.237 5.407-60.453a78.406 78.406 0 0 1 13.426-19.609c6.286 3.994 11.846 7.856 16.744 11.517zm-135.863-62.344c47.917 13.6 83.2 29.625 108.66 44.462a91.219 91.219 0 0 0 -13.487 20.164c-7.019 14.242-13.563 37.01-7.061 66.837-34.928.956-74.2-3.9-117.461-14.535a157.34 157.34 0 0 1 -3.573-42.426 5.254 5.254 0 0 1 1.772-3.808 31.308 31.308 0 0 0 8.805-36.3 5.313 5.313 0 0 1 .257-4.35 96.986 96.986 0 0 1 22.088-30.044zm-31.627-8.156q9.362 2.184 18.18 4.493a112.408 112.408 0 0 0 -19.455 28.507 17.3 17.3 0 0 0 -.486 14.236 19.307 19.307 0 0 1 -5.432 22.385 17.281 17.281 0 0 0 -6.084 12.431 171.749 171.749 0 0 0 2.618 39.7q-10.273-2.748-20.833-5.916c-2.878-12.664-3.836-26.42-2.875-41.957a17.084 17.084 0 0 0 -2.168-9.554 19.341 19.341 0 0 1 6.51-25.971 17.063 17.063 0 0 0 6.245-7.053 95.586 95.586 0 0 1 23.78-31.301zm-14.215-3.17a111.087 111.087 0 0 0 -20.373 29.257 5.075 5.075 0 0 1 -1.83 2.114 31.342 31.342 0 0 0 -10.542 42.071 5.127 5.127 0 0 1 .615 2.87 165.158 165.158 0 0 0 1.79 38.663c-24.925-7.954-48.9-16.974-70.444-25.792-4.143-51.1 20.548-91.207 27.578-101.475 26.668 3.39 51.009 7.562 73.207 12.293zm-86.546-13.9c-9.812 15.634-28.544 51.852-26.579 97.942-7.3-3.087-14.249-6.116-20.794-9.033-3.748-44.932 17.3-81.44 23.675-91.349q12.141 1.12 23.699 2.445zm-119.352 21.5a37.364 37.364 0 0 1 37.676-27.854q23.165 1.029 44.559 2.765c-8.643 14.745-24.118 47-22.617 86.9-18.19-8.343-32.2-15.291-40.159-19.238a37.314 37.314 0 0 1 -19.458-42.564z"/></g></svg>