<svg id="Layer_1" height="512" viewBox="0 0 512 512" width="512" xmlns="http://www.w3.org/2000/svg" data-name="Layer 1"><path d="m194.52 353.97a1.461 1.461 0 0 1 -.83 2.67c-16.11.04-68.03.23-100.56 1.45-11.17.42-18.98 2.95-24.43 6.35 0 0-18.33-.73-46.61 10.8-4.41 1.79-9.33-.49-10.26-5.14-4.26-21.3 2.76-66.76 149.92-49.05 9 15.53 25.2 27.75 32.77 32.92z" fill="#86909d"/><path d="m124.52 168.99a25.633 25.633 0 0 1 5.75-5.59c16-11.53 37.73-5.45 47.09 10.79a33.688 33.688 0 0 1 3.08 7.15c12.15 40.4-13.52 102.25 48.38 124.59 48.66 17.56 56.14 44.22 54.75 62.04a20.242 20.242 0 0 1 -20.19 18.67h-202.47a4.374 4.374 0 0 1 -4.28-5.27 25.887 25.887 0 0 1 12.07-16.93c5.45-3.4 13.26-5.93 24.43-6.35 32.53-1.22 84.45-1.41 100.56-1.45a1.461 1.461 0 0 0 .83-2.67c-7.57-5.17-23.77-17.39-32.77-32.92a48.314 48.314 0 0 1 -5.42-13.33c-6.31-27.52-34.92-25.25-42.85-24.06a1.466 1.466 0 0 1 -1.67-1.68c1.19-7.68 3.32-34.25-25.33-31.76-27.63 2.39-17.44 36.67-12.55 50.2a3.07 3.07 0 0 1 -4.09 3.86c-14.53-6.11-47.3-26.06-35.39-78.85 14.87-65.87 90.07-56.44 90.07-56.44z" fill="#f3ce7d"/><path d="m323.74 417.81c-21.74 30.68-59.9 21.5-75.91 15.84a3.432 3.432 0 0 1 -.68-6.16c19.39-11.79 16.23-40.85 16.23-40.85a20.242 20.242 0 0 0 20.19-18.67c1.39-17.82-6.09-44.48-54.75-62.04-61.9-22.34-36.23-84.19-48.38-124.59a33.688 33.688 0 0 0 -3.08-7.15s8.58-31.5 49.9-49.03c17.33-7.35 31.97-20.01 40.82-36.57a95.634 95.634 0 0 0 11.72-44.12 8.269 8.269 0 0 1 9.64-8.11c18.63 3.11 55.29 17.14 38.25 79.83 19.2-17.67 43.78-45.86 49.78-74.21a8.254 8.254 0 0 1 13.27-4.63 143.357 143.357 0 0 1 11.09 9.94c9.19 9.16 18.65 21.3 23.16 35.46a53.942 53.942 0 0 1 -2.17 39.42 99.792 99.792 0 0 1 -8.34 15.15s34.74-4.12 50.53-42.51a4.145 4.145 0 0 1 7.47-.46 129.3 129.3 0 0 1 8.49 18.9c3.8 10.69 6.75 23.71 5.98 37.36-1.07 18.91-9.27 38.99-32.25 55.7a106.967 106.967 0 0 1 -32.95 15.96l-10.76 3.16s36.21 27.17 81.46 23.42a7.818 7.818 0 0 1 8.47 7.48 115.077 115.077 0 0 1 -.67 17.31 95.785 95.785 0 0 1 -5 21.79 70.869 70.869 0 0 1 -13.04 22.58h-.01c-11.58 13.3-30.09 23.46-59.49 24.5v.09s6.78 33.17 68.27 40.01a2.1 2.1 0 0 1 1.49 3.29 123.029 123.029 0 0 1 -24.48 26.46 83.516 83.516 0 0 1 -35.35 16.69 87.931 87.931 0 0 1 -35.37-.38c-22.65 43.31-56.38 48.72-71.48 47.73a4.745 4.745 0 0 1 -3.74-7.16c13.49-22.85 1.69-51.43 1.69-51.43z" fill="#af786b"/><path d="m281.54 232.08a123.892 123.892 0 0 0 -36.02-.41 128.053 128.053 0 0 0 -20.79 4.55c-3.24 1-5.96 1.99-8.09 2.83a4.383 4.383 0 0 1 -5.99-3.86c-.75-14.83 10.15-51.18 53.12-51.18 40.85 0 51.19 37.12 49.62 51.65a4.379 4.379 0 0 1 -5.96 3.58q-2.31-.93-4.61-1.74a119.89 119.89 0 0 0 -21.28-5.42z" fill="#c79a83"/><path d="m281.54 232.08-36.02-.41a128.053 128.053 0 0 0 -20.79 4.55c0 21.13 15.37 43.43 39.58 43.43 22.95 0 38.51-21.02 38.51-42.15a119.89 119.89 0 0 0 -21.28-5.42z" fill="#c7cddd"/><path d="m281.65 232.8a18.246 18.246 0 0 1 -1.57 10.9 18.6 18.6 0 0 1 -33.19 0 18.231 18.231 0 0 1 -1.54-10.97l.17-1.06a123.892 123.892 0 0 1 36.02.41z" fill="#6d7486"/><path d="m73.93 300.42c-2.129-5.891-5.261-15.716-5.84-25.13-5.865-11.93-8.548-28.1-3.64-49.86 14.87-65.87 90.07-56.44 90.07-56.44a25.633 25.633 0 0 1 5.75-5.59 32.159 32.159 0 0 1 3.51-2.192 31.725 31.725 0 0 0 -33.51 2.192 25.633 25.633 0 0 0 -5.75 5.59s-75.2-9.43-90.07 56.44c-11.91 52.79 20.86 72.74 35.39 78.85a3.07 3.07 0 0 0 4.09-3.86z" fill="#c4a569"/><g fill="#89645d"><path d="m452.82 122.17a99.792 99.792 0 0 1 -8.34 15.15s20.725-2.475 37.436-21.287c-.309-.942-.623-1.874-.946-2.783a129.3 129.3 0 0 0 -8.49-18.9 4.145 4.145 0 0 0 -7.47.46 76.636 76.636 0 0 1 -8.318 15.21 57.7 57.7 0 0 1 -3.872 12.15z"/><path d="m357.69 116.19c17.241-15.867 38.811-40.218 47.379-65.549q-1.617-1.734-3.239-3.351a143.357 143.357 0 0 0 -11.09-9.94 8.254 8.254 0 0 0 -13.27 4.63c-2.562 12.107-8.519 24.182-15.992 35.424 1.39 10.232.515 22.956-3.788 38.786z"/><path d="m277.83 433.65a3.432 3.432 0 0 1 -.68-6.16c19.39-11.79 16.23-40.85 16.23-40.85a20.242 20.242 0 0 0 20.19-18.67c1.39-17.82-6.09-44.48-54.75-62.04-61.9-22.34-36.23-84.19-48.38-124.59a33.688 33.688 0 0 0 -3.08-7.15s8.58-31.5 49.9-49.03c17.33-7.35 31.97-20.01 40.82-36.57a95.634 95.634 0 0 0 11.72-44.12 8.517 8.517 0 0 1 .06-.924 59.975 59.975 0 0 0 -20.42-7.186 8.269 8.269 0 0 0 -9.64 8.11 95.634 95.634 0 0 1 -11.72 44.12c-8.85 16.56-23.49 29.22-40.82 36.57-41.32 17.53-49.9 49.03-49.9 49.03a33.688 33.688 0 0 1 3.08 7.15c12.15 40.4-13.52 102.25 48.38 124.59 48.66 17.56 56.14 44.22 54.75 62.04a20.242 20.242 0 0 1 -20.19 18.67s3.16 29.06-16.23 40.85a3.432 3.432 0 0 0 .68 6.16c9.886 3.5 28.219 8.328 45.915 4.293a107.665 107.665 0 0 1 -15.915-4.293z"/></g><path d="m15.6 334.855c-11.514 12.445-11.607 26.674-9.657 36.421a13.035 13.035 0 0 0 6.618 8.967 13.544 13.544 0 0 0 6.431 1.611 14.213 14.213 0 0 0 5.364-1.061 150.281 150.281 0 0 1 29.3-8.775 31.977 31.977 0 0 0 -2.89 8.119 10.368 10.368 0 0 0 10.148 12.5h196.634a56.352 56.352 0 0 1 -.91 8.9c-1.84 9.851-6.082 16.857-12.608 20.824a9.429 9.429 0 0 0 1.8 16.941c12.824 4.531 23.911 6.248 33.35 6.248 17.86 0 29.818-6.145 36.46-10.982a54.572 54.572 0 0 0 5.412-4.512c1.969 9.4 3.082 23.841-4.173 36.134a10.732 10.732 0 0 0 2.6 13.919c.071.058.145.109.219.163a10.644 10.644 0 0 0 5.692 2.111c1.068.07 2.307.118 3.7.118a71.993 71.993 0 0 0 32.308-8c15.717-7.936 28.836-21.091 39.048-39.13a98.36 98.36 0 0 0 15.732 1.3 90.01 90.01 0 0 0 13.114-.951c1.463-.216 2.914-.474 4.355-.761l.057-.011c24.466-4.9 45.869-20.224 63.672-45.61a8.1 8.1 0 0 0 -5.738-12.7c-39.631-4.408-54.645-19.786-60.109-28.716 18.8-1.881 34.351-7.747 46.514-17.591a69.533 69.533 0 0 0 8.619-8.312l.024-.028a76.446 76.446 0 0 0 14.159-24.415c.032-.083.065-.166.094-.25q1.143-3.177 2.087-6.528a115.771 115.771 0 0 0 3.887-34.694 13.649 13.649 0 0 0 -4.626-9.793 13.921 13.921 0 0 0 -10.345-3.444c-28.114 2.333-52.85-8.138-66.4-15.507a112.29 112.29 0 0 0 32.679-16.205c21.445-15.587 33.066-35.472 34.648-59.195a6 6 0 0 0 .125-2.392c.075-1.986.09-4 .027-6.032a107.172 107.172 0 0 0 -6.29-31.908 5.864 5.864 0 0 0 -.257-.727 136.529 136.529 0 0 0 -8.746-19.44 10.141 10.141 0 0 0 -18.274 1.059c-8.3 20.168-22.1 29.968-32.371 34.668.408-.86.821-1.714 1.213-2.6 8.186-18.479 7.148-37.487-3.087-56.495-8.369-15.543-21.316-27.84-30.7-35.419a14.217 14.217 0 0 0 -13.79-2.349 14.068 14.068 0 0 0 -9.119 10.414c-4.321 20.426-19.116 41.136-34.23 57.462 2.108-17.769-.508-32.515-7.854-43.981-10.224-15.96-26.9-21.742-39.089-23.782a14.276 14.276 0 0 0 -16.627 13.969 89.2 89.2 0 0 1 -11.008 41.351c-7.939 14.856-21.389 26.888-37.872 33.88-29.194 12.384-43.046 31.36-49.123 42.935a39.527 39.527 0 0 0 -14.797-9.073 37.349 37.349 0 0 0 -34.237 5.025 33.348 33.348 0 0 0 -4.812 4.212 117.862 117.862 0 0 0 -38.529 4c-29.274 8.326-48.229 28.163-54.822 57.368-5.536 24.532-2.613 45.278 8.689 61.662 9.1 13.2 21.463 20.36 30.227 24.044a9.07 9.07 0 0 0 12.056-11.43c-6.124-16.949-7.257-30.394-3.108-36.886 2-3.126 5.444-4.861 10.533-5.3 6.978-.607 12.065.746 15.119 4.016 5.575 5.969 4.287 17.462 3.759 20.844a7.466 7.466 0 0 0 8.486 8.538c9.2-1.378 31.14-2.232 36.117 19.471a47.106 47.106 0 0 0 1.4 4.848c-70.731-7.391-116.566-.363-136.278 20.943zm176.417-175.555c9.038-12.24 21.684-21.866 37.586-28.612 19-8.059 34.543-22.006 43.769-39.271a101.059 101.059 0 0 0 12.428-46.885 2.3 2.3 0 0 1 .828-1.769 2.223 2.223 0 0 1 1.821-.49 57.626 57.626 0 0 1 13.06 3.758c-.018 11.126-1.851 46.078-23.273 62.451a6 6 0 1 0 7.287 9.534c21.957-16.782 26.828-47.679 27.786-64.521a35.883 35.883 0 0 1 6.105 7.2c7.814 12.2 8.766 29.836 2.874 52.42a159.419 159.419 0 0 1 -18.128 14.47 6 6 0 0 0 6.551 10.054c8.575-5.587 24.194-18.743 38.225-34.424 23.506-26.272 31.685-47.124 34.407-59.99a2.107 2.107 0 0 1 1.4-1.583 2.282 2.282 0 0 1 2.232.378c2.631 2.124 5.475 4.573 8.364 7.311-2.678 12.713-16.313 63.868-65.927 88.606a6 6 0 1 0 5.354 10.74c25.838-12.883 46.65-34.328 60.187-62.017a156.349 156.349 0 0 0 10.2-26.86 77.536 77.536 0 0 1 13.352 22.557c-5 9.871-28.976 52.807-76.312 72.662a6 6 0 1 0 4.641 11.066c39.122-16.409 63.082-46.511 74.831-65.03a49.084 49.084 0 0 1 -4.337 18.682c-15.558 35.119-47.737 50.143-60.883 51.917a6 6 0 1 0 1.6 11.893c10.264-1.385 39.612-11.8 59.976-40.757 8.89-1.856 36.124-10.026 50.983-42.153a125.119 125.119 0 0 1 5.41 12.166c-5.084 9.1-28.154 45.337-80.734 61.605a6 6 0 1 0 3.547 11.464c45.553-14.094 70.545-41.781 81.773-57.832a82.7 82.7 0 0 1 2 20.374c-7.126 8.507-43.1 48.345-97.029 55.461a6 6 0 0 0 .777 11.949 5.912 5.912 0 0 0 .793-.053c42.062-5.55 73.4-28.7 90.8-45.022-4.4 10.779-12.256 21.325-25.161 30.706a100.937 100.937 0 0 1 -31.11 15.061l-38.335 11.232a6 6 0 1 0 3.374 11.516l24.81-7.27c9.218 6.212 42.389 26.209 83.028 22.838a1.86 1.86 0 0 1 1.389.461 1.737 1.737 0 0 1 .6 1.255 108.155 108.155 0 0 1 -.183 11.169c-55.921.2-85.393-19.549-85.693-19.755a6 6 0 0 0 -6.831 9.866c1.328.922 32.057 21.767 91.017 21.889a89.062 89.062 0 0 1 -2.656 10.625c-33.315 6.479-92.783-14.639-93.4-14.862a6 6 0 0 0 -4.056 11.294c2.271.817 47.165 16.764 83.054 16.764 3.076 0 6.08-.125 8.992-.379a61.885 61.885 0 0 1 -6.126 9.237c-57.3 8.088-92.5-9.727-92.852-9.911a6 6 0 0 0 -5.57 10.629c1.28.672 26.189 13.445 68.6 13.445 4.435 0 9.073-.151 13.884-.458-21.93 12.859-54.612 13.95-97.366 3.2a6 6 0 1 0 -2.926 11.636q30.463 7.663 54.876 7.663c.252 0 .5-.011.747-.012 4.253 9.9 18.823 32.16 65.249 39.123a113.738 113.738 0 0 1 -17.796 18.589c-32.263-1.656-54.715-41.1-55.018-41.639a6 6 0 0 0 -10.487 5.831c.932 1.678 20.21 35.749 51.286 45.362a74.493 74.493 0 0 1 -19.032 7.047c-9.591-2.332-21.6-10.165-34.847-22.768a215.452 215.452 0 0 1 -18.6-20.147 6 6 0 0 0 -9.434 7.417c.98 1.246 18.239 23 38.6 36.858-30.325-2.919-54.145-21.258-54.43-21.482a6 6 0 0 0 -7.415 9.435 130.193 130.193 0 0 0 41.609 20.433c-14.883 24.454-33.034 33.338-46.319 36.381q.785-.741 1.572-1.525c11.559-11.526 17.668-24.82 17.668-38.446a6 6 0 0 0 -12 0c0 14.444-9.229 25.729-17.213 32.793 5.668-17.924.925-36.1-1.438-43.219 10.943-17.166 16.02-42.272 15.112-75.006a6 6 0 1 0 -12 .333c1.133 40.813-7.26 68.036-24.946 80.915a45.844 45.844 0 0 1 -22.747 8.241c11.457-9.668 19.549-24.714 23.8-44.553a161.928 161.928 0 0 0 3.043-42.606 6 6 0 0 0 -11.958.99c.06.727 5.448 72.085-37.161 84.821-3.333-.665-6.376-1.454-8.984-2.231 12.939-10.834 14.916-28.48 15-37.642a26.4 26.4 0 0 0 19.981-23.447 52.471 52.471 0 0 0 -9.677-35.034c-9.62-13.714-26.113-24.858-49.02-33.126-39.311-14.187-39.794-45.305-40.3-78.251-.224-14.465-.456-29.422-4.363-42.421a39.628 39.628 0 0 0 -2.317-5.891 63.819 63.819 0 0 1 8.152-14.423zm-73.7 117.824c.356-7.287-.59-17.777-7.433-25.1-5.7-6.1-14.088-8.722-24.927-7.781-11.119.966-16.8 6.4-19.606 10.8-5.753 9-5.852 22.68-.312 40.723a56.083 56.083 0 0 1 -18.874-16.8c-9.321-13.513-11.63-31.077-6.861-52.206 5.617-24.89 21.11-41.164 46.048-48.37a105.326 105.326 0 0 1 28.987-3.845c-1.56 6.043-1.219 13.683 2.993 23.158 6 13.5 21.036 18.719 32.137 16.781a6 6 0 0 0 -2.065-11.822c-5.679.992-15.36-1.4-19.107-9.834-3.71-8.346-3.8-14.845-.166-20a5.673 5.673 0 0 0 .411-.557 20.161 20.161 0 0 1 4.228-4 25.481 25.481 0 0 1 23.365-3.4 27.65 27.65 0 0 1 17.556 18.2c3.427 11.4 3.636 24.881 3.857 39.153.526 33.913 1.122 72.351 48.23 89.352 35.1 12.669 52.672 32.013 50.807 55.941a14.314 14.314 0 0 1 -14.211 13.128h-200.357c3.171-10.082 13.841-15.935 30.333-16.551 32.564-1.218 85.045-1.412 100.354-1.442a7.464 7.464 0 0 0 4.192-13.633c-7.214-4.917-31.108-22.523-35.72-42.631-5.343-23.311-25.212-30.378-43.855-29.267zm39.862 49.55c6.2 9.682 14.681 17.938 22.019 24.019-22.431.106-61.186.428-87.3 1.4-10.351.387-19 2.52-25.841 6.35-5.55.109-22.91 1.322-47.233 11.237a1.9 1.9 0 0 1 -1.585-.007 1 1 0 0 1 -.532-.751c-2.039-10.193.214-18.912 6.7-25.918 12.193-13.175 45.323-26.61 133.776-16.333z" fill="#284268"/><path d="m209.4 243.7a10.4 10.4 0 0 0 9.439.927c.181-.071.381-.147.57-.22 3.452 21.115 19.961 41.239 44.9 41.239 24.337 0 40.456-19.581 43.841-40.137.3.027.6.043.9.043a10.4 10.4 0 0 0 10.3-9.248c1.167-10.75-2.851-28.2-14.432-41.1-10.091-11.246-24.319-17.19-41.146-17.19-17.695 0-32.666 5.907-43.294 17.085-11.717 12.322-16.391 29.169-15.825 40.4a10.4 10.4 0 0 0 4.747 8.201zm54.9 29.946c-15.086 0-31.286-12.49-33.354-32.98 2.551-.682 5.33-1.337 8.33-1.917a22.8 22.8 0 0 0 2.253 7.649 24.594 24.594 0 0 0 43.9 0 22.81 22.81 0 0 0 2.192-7.054q4.425 1 8.979 2.419c-1.983 19.811-17.678 31.885-32.293 31.885zm-13.135-36.586a117.842 117.842 0 0 1 24.621.274 10.945 10.945 0 0 1 -1.066 3.666 12.593 12.593 0 0 1 -22.468 0 10.951 10.951 0 0 1 -1.087-3.94zm-21.989-33.694c8.426-8.862 20.066-13.354 34.6-13.354 13.514 0 24.353 4.442 32.214 13.2a47.079 47.079 0 0 1 11.548 29.622 126.75 126.75 0 0 0 -45.248-8.294 133.511 133.511 0 0 0 -45.649 8.081 47.176 47.176 0 0 1 12.535-29.255z" fill="#284268"/></svg>