<svg id="Layer_1" height="512" viewBox="0 0 512 512" width="512" xmlns="http://www.w3.org/2000/svg" data-name="Layer 1"><path d="m214.29 242.41a44.561 44.561 0 0 0 2.81 33.39 369.733 369.733 0 0 1 -94.18 8.48h-.01c-63.8-2.21-111.91-19.28-111.91-28 0-8.08 48.16-22.33 105.66-24.5 31.88-1.21 66.63 1.3 97.63 10.63z" fill="#fb6771"/><path d="m122.92 284.28a369.733 369.733 0 0 0 94.18-8.48c-32.11 17.26-61.51 44.01-84.6 70.42h-.01c-52.12 18.57-96.74 17.39-99.99 10.14-3.4-7.6 36.7-44.74 90.41-72.08z" fill="#c15f74"/><path d="m217.1 275.8a44.6 44.6 0 0 0 25.36 21.94c-19.75 31.36-43.96 57.92-67.51 78.84-44.21 39.28-86.13 58.72-91.99 52.86-5.31-5.31 15.13-43.89 49.54-83.22 23.09-26.41 52.49-53.16 84.6-70.42z" fill="#fb6771"/><path d="m242.46 297.74c-9.41 31.27-11.89 66.34-10.62 98.44-26.45 55.02-62.9 89-70.71 85.71-7.23-3.04-3.95-52.09 13.82-105.31 23.55-20.92 47.76-47.48 67.51-78.84z" fill="#c15f74"/><path d="m276.11 295.59c8.17 35.96 9.83 71.61 7.99 102.87-3.49 59.13-19.51 102.54-27.82 102.54-8.04 0-22.17-47.69-24.44-104.82-1.27-32.1 1.21-67.17 10.62-98.44a44.578 44.578 0 0 0 33.65-2.15z" fill="#fb6771"/><path d="m338.45 372.82c20.09 57.48 18.03 106.79 10.19 109.98-7.26 2.96-39.48-34.15-64.54-84.34 1.84-31.26.18-66.91-7.99-102.87 15.52 28.88 38.67 55.47 62.34 77.22z" fill="#c15f74"/><path d="m298.72 270c31.11 19.6 57.38 43.53 78.08 66.84 39.32 44.28 58.52 86.33 52.64 92.21-5.67 5.67-49.13-17.74-90.99-56.23v-.01c-23.67-21.75-46.82-48.34-62.34-77.22a44.532 44.532 0 0 0 22.61-25.59z" fill="#fb6771"/><path d="m395.31 280.55c54.85 26.43 89.87 62.51 86.59 70.31-3.05 7.23-51.89 3.74-105.1-14.02-20.7-23.31-46.97-47.24-78.08-66.84 30.75 9.26 65.08 11.75 96.59 10.54z" fill="#c15f74"/><path d="m501 255.72c0 8.11-48.16 22.63-105.69 24.82-31.51 1.21-65.84-1.28-96.59-10.54a44.568 44.568 0 0 0 -2.46-34.47l.01-.01a363.449 363.449 0 0 1 93.17-8.34c63.74 2.31 111.56 19.79 111.56 28.54z" fill="#fb6771"/><path d="m479.51 160.19c3.38 7.56-30.95 51.01-90.07 66.98v.01a363.449 363.449 0 0 0 -93.17 8.34c30.64-16.46 58.61-41.47 80.96-66.57 52.84-19.08 99-16.08 102.28-8.76z" fill="#c15f74"/><path d="m429.05 82.57c5.48 5.48-15.89 46.03-51.82 86.38-22.35 25.1-50.32 50.11-80.96 66.57l-.01.01a44.532 44.532 0 0 0 -21.33-20.36 399.6 399.6 0 0 1 66.45-79.49c42.45-39.28 81.83-58.95 87.67-53.11z" fill="#fb6771"/><path d="m350.84 30.11c7.23 3.04 8.13 52.67-9.46 105.57a399.6 399.6 0 0 0 -66.45 79.49h-.01c9.39-31.17 11.18-66.26 9.04-98.43 26.43-54.83 59.08-89.92 66.88-86.63z" fill="#c15f74"/><path d="m283.96 116.74c2.14 32.17.35 67.26-9.04 98.43a44.479 44.479 0 0 0 -39.03 1.25c-8.25-36.33-9.86-72.35-7.93-103.84 3.6-58.64 19.5-101.58 27.76-101.58 8.05 0 24.43 48.22 28.24 105.74z" fill="#fb6771"/><path d="m227.96 112.58c-1.93 31.49-.32 67.51 7.93 103.84-14.89-27.73-36.83-53.35-59.51-74.61-20.18-57.59-20.9-109.42-13.06-112.61 7.27-2.96 39.67 33.54 64.64 83.38z" fill="#c15f74"/><path d="m235.89 216.42a44.526 44.526 0 0 0 -21.6 25.99c-31.53-19.85-58.21-44.22-79.2-67.89-39.05-44.06-58.37-85.73-52.53-91.57 5.8-5.79 51.12 18.81 93.82 58.86 22.68 21.26 44.62 46.88 59.51 74.61z" fill="#fb6771"/><path d="m135.09 174.52c20.99 23.67 47.67 48.04 79.2 67.89-31-9.33-65.75-11.84-97.63-10.63-55-26.46-89.84-62.82-86.55-70.62 3.05-7.23 52.09-4.23 104.98 13.36z" fill="#c15f74"/><circle cx="257" cy="256" fill="#f3ce7d" r="45"/><path d="m238 256a45.012 45.012 0 0 1 32-43.085 45 45 0 1 0 0 86.17 45.012 45.012 0 0 1 -32-43.085z" fill="#b79d6a"/><path d="m501.656 246.615c-11.143-8.9-41.452-17.891-75.419-22.382-2.639-.349-5.411-.684-8.29-1 34.616-15.742 58.9-39.883 65.81-54.442 2.138-4.506 2.54-8.121 1.228-11.05-3.837-8.571-22.926-9.661-38.263-9.067a233.617 233.617 0 0 0 -51.523 8.3c21.966-27.4 38.522-55.509 40.492-68.888.627-4.257-.179-7.541-2.4-9.758s-5.5-3.116-9.727-2.642c-13.219 1.482-39.935 16.928-66.478 38.435-1.341 1.086-2.719 2.221-4.124 3.391a279.8 279.8 0 0 0 8.44-52.984c1.964-35.651-5.716-38.887-8.241-39.95-2.653-1.119-10.725-4.519-33.449 23.288-10.864 13.292-21.8 29.852-31.676 47.852-4.811-40.629-15.135-74.07-23.4-85.191-1.012-1.367-4.104-5.527-8.912-5.527-3.2 0-6.236 1.778-9.034 5.284-8.849 11.084-17.78 41.514-22.222 75.722q-.375 2.889-.728 5.971a337.137 337.137 0 0 0 -30.072-44.661 139.711 139.711 0 0 0 -16.8-17.917c-4.514-3.839-10.4-7.961-15.805-5.759-2.682 1.093-10.844 4.417-7.7 41.967a311.226 311.226 0 0 0 10.764 57.3c-1.8-1.521-3.529-2.951-5.138-4.261-28.138-22.912-57.323-40.318-70.97-42.328-4.225-.625-7.49.182-9.7 2.39-2.251 2.252-3.14 5.639-2.644 10.065 1.407 12.545 15.958 41.689 41.8 74.139a339.757 339.757 0 0 0 -52.93-10.35 141.262 141.262 0 0 0 -24.651-.826c-5.935.466-13.037 1.693-15.31 7.088-3.036 7.209 4.7 19.035 22.979 35.149a284.452 284.452 0 0 0 47.414 33.232c-40.64 3.6-74.089 12.566-84.836 20.554-3.412 2.541-5.141 5.402-5.141 8.517 0 3.18 1.76 6.2 5.231 8.969 10.6 8.46 45.5 19.726 91.416 23.784a356.278 356.278 0 0 0 -49.207 34.091c-30.114 25.2-26.7 32.825-25.414 35.7 2.526 5.642 11.728 8.484 27.409 8.484q4.669 0 10.105-.337a249.4 249.4 0 0 0 50.293-8.871c-22.278 28.083-36.729 53.928-38.5 65.956-.618 4.194.185 7.436 2.385 9.637 1.848 1.848 4.461 2.779 7.787 2.779a20.765 20.765 0 0 0 2.282-.133c12.6-1.413 41.9-16.056 74.493-42.052a345.824 345.824 0 0 0 -10.58 53.108 141.84 141.84 0 0 0 -.945 24.687c.437 5.947 1.634 13.066 7.044 15.345a8.668 8.668 0 0 0 3.4.655c7.319 0 17.978-7.769 31.768-23.174a275.179 275.179 0 0 0 33.34-47.129c3.629 40.307 12.526 73.414 20.461 84.089 2.533 3.408 5.4 5.136 8.511 5.136 3.2 0 6.236-1.778 9.034-5.284 8.849-11.084 17.78-41.514 22.223-75.722.282-2.173.555-4.438.816-6.773a349.2 349.2 0 0 0 30 45.082 142.2 142.2 0 0 0 16.731 18.159c3.642 3.16 8.174 6.512 12.652 6.512a8.311 8.311 0 0 0 3.168-.615c7.264-2.958 10.327-16.584 9.108-40.5a270.346 270.346 0 0 0 -9.54-56.6c.869.72 1.722 1.422 2.539 2.088 28.138 22.912 57.323 40.318 70.97 42.328a18.086 18.086 0 0 0 2.631.2 9.579 9.579 0 0 0 7.068-2.594c2.267-2.268 3.162-5.7 2.658-10.186-1.585-14.136-16.7-41.923-37.606-69.145-1.354-1.763-2.783-3.586-4.271-5.452a349.613 349.613 0 0 0 53.021 10.678 169.9 169.9 0 0 0 18.79 1.208c2.1 0 4.05-.062 5.826-.187 5.938-.419 13.048-1.595 15.33-7.013 3.029-7.19-4.734-18.97-23.072-35.014a288.231 288.231 0 0 0 -47.325-33.036c1.709-.155 3.349-.315 4.894-.475 35.923-3.731 68.769-12.1 79.875-20.357 3.451-2.564 5.2-5.453 5.2-8.586.001-3.206-1.799-6.27-5.343-9.101zm-28.366-83.783c-1.658 3.945-8.033 13.708-22.1 25.579a165.647 165.647 0 0 1 -62.447 32.718 378.314 378.314 0 0 0 -63.161 3.041c22.424-16.111 41.343-34.817 55.051-50.058 45.543-16.146 83.752-14.874 92.657-11.28zm-183.252-44.858c10.711-21.991 23.583-42.982 36.356-59.251 11.053-14.08 18.352-20.031 21.713-22.023 3.006 10.032 3.287 48.982-11.944 95.619a410.858 410.858 0 0 0 -48.725 54.112c3.462-22.609 3.962-46.146 2.6-68.457zm79.006 1.961c26.963-21.163 47.049-30.654 54.568-32.181-1.982 8.365-13.64 31.179-35.984 59.467-15.963 20.209-48.293 56.777-89.2 80.228a50.8 50.8 0 0 0 -14.966-14.457c30.275-46.2 66.346-77.959 85.582-93.057zm-131.784-38.798c5.534-37.292 14.226-56.981 18.329-62.77 4.851 7.138 13.81 31.961 19.188 68.672 3.8 25.905 8.111 75.008-3.881 120.272a50.2 50.2 0 0 0 -30.662.717c-10.924-53.674-6.643-102.176-2.974-126.891zm-71.325-45.111c8.824 5.778 33.822 34.141 55.936 77.815a384.7 384.7 0 0 0 2.661 73.245 346.167 346.167 0 0 0 -42.932-48.563c-17.507-50.613-18.484-91.892-15.665-102.497zm-78.273 52.374c8.329 1.975 31.269 13.762 59.752 36.346 20.284 16.082 56.991 48.629 80.454 89.6a50.735 50.735 0 0 0 -16.408 19.092c-45.72-30.243-77.129-67.626-92.093-87.728-21.179-28.459-30.408-49.566-31.705-57.31zm-51.033 75.784c10.135-2.2 48.132.16 95.014 15.522a387.885 387.885 0 0 0 53.9 50.024 352.144 352.144 0 0 0 -67.43-3.924c-47.576-23.126-76.53-52.083-81.484-61.622zm44.877 110.4c-37.17-5.42-56.961-13.961-62.98-18.087 7.4-4.488 32.013-12.306 68.14-16.427 25.789-2.941 74.872-5.835 120.443 6.542a50.054 50.054 0 0 0 1.714 24.832c-53.75 10.956-102.48 6.756-127.317 3.135zm-42.361 79.143c5.552-9.224 36.216-38.239 85.064-63.353q6.091.189 12.353.2a383.29 383.29 0 0 0 51.222-3.4c-21.671 15.58-41.715 34.708-58.663 53.873-45.947 16.108-80.89 15.398-89.976 12.68zm186.725 41.005c-23.008 47.329-52.1 75.918-61.677 80.692-2.138-10.088.408-48.209 15.935-95.388a387.592 387.592 0 0 0 49.649-53.548 353.155 353.155 0 0 0 -3.907 68.244zm-80.137-2.082c-28.438 21.157-49.541 30.383-57.308 31.691 2.029-8.363 13.943-31.354 36.681-59.913 16.18-20.321 48.873-57.076 89.832-80.553a50.749 50.749 0 0 0 18.636 16.554c-30.26 45.792-67.711 77.245-87.841 92.221zm129.007 38.213c-5.491 37-14.093 56.676-18.233 62.634-4.482-7.375-12.3-31.993-16.415-68.151-2.93-25.756-5.806-74.761 6.53-120.3a50.524 50.524 0 0 0 25.1-1.284c10.978 53.761 6.692 102.355 3.018 127.101zm-18.058-136.8a38.4 38.4 0 1 1 38.4-38.4 38.446 38.446 0 0 1 -38.4 38.398zm89.582 182c-8.591-5.629-33.671-34.444-56.079-78.857a384.549 384.549 0 0 0 -2.717-72.289c14.616 20.352 31.376 37.856 45.772 51.223 17 49.379 16.468 89.86 13.024 99.92zm78.112-52.447c-8.3-1.948-31.264-13.737-59.79-36.355-20.255-16.06-56.886-48.537-80.353-89.425a50.741 50.741 0 0 0 17.16-18.951c45.761 30.24 76.961 67.581 91.784 87.643 20.946 28.349 29.986 49.389 31.199 57.085zm50.956-75.816c-10.2 2.028-48.113-.679-95.12-16.158a382.112 382.112 0 0 0 -52.746-48.942 332.583 332.583 0 0 0 53.318 4.1c4.57 0 8.97-.083 13.177-.224 47.339 23.068 76.277 51.708 81.371 61.224zm-49.462-75.642c-25.6 3-74.337 6-119.822-6.309a50.367 50.367 0 0 0 -1.506-25.962c53.689-10.941 102.069-6.556 126.7-2.825 36.905 5.591 56.46 14.288 62.312 18.436-7.249 4.508-31.708 12.438-67.684 16.66z" fill="#284268"/></svg>