<svg id="Layer_1" height="512" viewBox="0 0 512 512" width="512" xmlns="http://www.w3.org/2000/svg" data-name="Layer 1"><path d="m88.57 110.97a10.255 10.255 0 1 1 -10.26 10.25 10.253 10.253 0 0 1 10.26-10.25z" fill="#4ca987"/><circle cx="178.54" cy="170.31" fill="#f3ce7d" r="11.8"/><path d="m229.09 155a11.8 11.8 0 1 1 -11.8 11.8 11.8 11.8 0 0 1 11.8-11.8z" fill="#f3ce7d"/><circle cx="339.87" cy="330.46" fill="#f3ce7d" r="10.26"/><circle cx="421.89" cy="431.96" fill="#eb7288" r="11.8"/><circle cx="371.34" cy="435.47" fill="#eb7288" r="11.8"/><path d="m267.62 280.47-34.11-25.85c-26.81-16.45-62.22-2.64-81.88 22.4a72.983 72.983 0 0 0 -8.69 14.08 41.516 41.516 0 0 1 -25.82 22.58 95.071 95.071 0 0 0 -49.13 33.46c-32.09 41.61-24.22 102.02 17.43 134.06a95.541 95.541 0 0 0 153.67-71.5 40.949 40.949 0 0 1 15.36-30.32 73.718 73.718 0 0 0 13.35-13.83c18.67-25.22 22.03-64.11-.18-85.08z" fill="#7f3d32"/><path d="m439.34 110.88a10.427 10.427 0 0 1 -12.87 16.41l-12.17-9.56 10.27-18.44z" fill="#86909d"/><path d="m459.77 75.82a10.423 10.423 0 1 1 -12.87 16.4l-12.8-10.04 10.28-18.45z" fill="#86909d"/><path d="m396.17 25.89-14.98 14.75-14.03-11.01a10.427 10.427 0 1 1 12.88-16.4z" fill="#86909d"/><path d="m367.3 54.33-14.97 14.76-13.5-10.6a10.427 10.427 0 0 1 12.87-16.41z" fill="#86909d"/><path d="m446.55 47.5-35.31-27.72a7.125 7.125 0 0 0 -9.4.52l-52.41 51.64a7.126 7.126 0 0 0 .6 10.67l51.77 40.64a7.124 7.124 0 0 0 10.51-1.95l35.96-64.55a7.124 7.124 0 0 0 -1.72-9.25z" fill="#7f3d32"/><path d="m151.83 445.98a10.869 10.869 0 1 1 -13.42 17.1l-49.48-38.85a10.869 10.869 0 1 1 13.42-17.1z" fill="#c79a83"/><path d="m267.62 280.47-34.11-25.85c-26.81-16.45-62.22-2.64-81.88 22.4a72.983 72.983 0 0 0 -8.69 14.08 41.516 41.516 0 0 1 -25.82 22.58 95.071 95.071 0 0 0 -49.13 33.46c-32.09 41.61-24.22 102.02 17.43 134.06a96.376 96.376 0 0 0 9.118 6.211c-31.9-33.486-35.61-86.588-6.548-124.272a95.071 95.071 0 0 1 49.13-33.46 41.516 41.516 0 0 0 25.82-22.58 72.983 72.983 0 0 1 8.69-14.08c19.66-25.04 55.07-38.85 81.88-22.4l17.028 12.9c-.924-1.046-1.884-2.073-2.918-3.049z" fill="#6d3830"/><path d="m411.24 19.78a7.125 7.125 0 0 0 -9.4.52l-52.41 51.64a7.126 7.126 0 0 0 .6 10.67l18.742 14.713a7.125 7.125 0 0 1 .658-9.384l52.41-51.639a7.125 7.125 0 0 1 9.4-.52z" fill="#6d3830"/><path d="m341.03 183.3-28.11 37.21-32.57-25.57 28.8-36.68z" fill="#4ca987"/><path d="m369.15 146.08-28.12 37.22-31.88-25.04 28.79-36.67z" fill="#eb7288"/><path d="m392.13 115.66-22.98 30.42-31.21-24.49 23.54-29.99z" fill="#4ca987"/><path d="m193.97 304.98-31.42 40.03 35.33 27.76 30.7-40.63z" fill="#4ca987"/><path d="m256.69 294.93-28.11 37.21-34.61-27.16 28.8-36.68z" fill="#eb7288"/><path d="m284.8 257.72-17.18 22.75-10.93 14.46-33.92-26.63 10.74-13.68 18.05-23z" fill="#4ca987"/><path d="m312.92 220.51-28.12 37.21-33.24-26.1 28.79-36.68z" fill="#eb7288"/><path d="m162.55 345.01a29.009 29.009 0 1 1 -16.49 10.4 28.91 28.91 0 0 1 16.49-10.4z" fill="#bc5e51"/><g fill="#284268"><path d="m230.248 110.6h-29.348a16.53 16.53 0 0 0 -11.951 5.105 15.842 15.842 0 0 0 -4.38 11.656l-.14 26.166a17.791 17.791 0 1 0 11.88 17.31h.027l.233-43.566c0-.115 0-.231-.008-.346a3.913 3.913 0 0 1 1.093-2.96 4.421 4.421 0 0 1 3.246-1.365h29.347a4.644 4.644 0 0 1 4.639 4.639v22.743a17.789 17.789 0 1 0 11.992 16.983h.008v-39.722a16.658 16.658 0 0 0 -16.638-16.643zm-51.709 65.5a5.8 5.8 0 1 1 5.8-5.8 5.8 5.8 0 0 1 -5.8 5.805zm56.347-9.281a5.8 5.8 0 1 1 0-.057z"/><path d="m88.571 104.966a16.259 16.259 0 1 0 16.194 17.53 6.02 6.02 0 0 0 .064-.81l.116-27.39h17.822a6 6 0 0 0 0-12h-17.767l.035-8.289c0-.113 0-.227-.009-.34a2.638 2.638 0 0 1 .737-1.994 3.062 3.062 0 0 1 2.254-.942h25.517a6 6 0 1 0 0-12h-25.52a15.157 15.157 0 0 0 -10.959 4.683 14.549 14.549 0 0 0 -4.024 10.686l-.06 14.188v.012l-.071 17.268a16.188 16.188 0 0 0 -4.329-.602zm0 20.517a4.259 4.259 0 1 1 4.258-4.258 4.264 4.264 0 0 1 -4.258 4.258z"/><path d="m423.049 375.769h-29.349a16.533 16.533 0 0 0 -11.952 5.1 15.85 15.85 0 0 0 -4.38 11.656l-.14 26.166a17.791 17.791 0 1 0 11.881 17.31h.027l.233-43.565c0-.117 0-.232-.008-.347a3.915 3.915 0 0 1 1.092-2.96 4.421 4.421 0 0 1 3.247-1.364h29.347a4.645 4.645 0 0 1 4.639 4.638v22.747a17.789 17.789 0 1 0 11.992 16.983h.007v-.155-.019-.019-39.533a16.657 16.657 0 0 0 -16.636-16.638zm-51.709 65.5a5.8 5.8 0 1 1 5.8-5.8 5.805 5.805 0 0 1 -5.8 5.801zm56.346-9.292a5.8 5.8 0 1 1 0-.038z"/><path d="m359.312 279.968h25.517a6 6 0 0 0 0-12h-25.517a15.162 15.162 0 0 0 -10.959 4.682 14.551 14.551 0 0 0 -4.024 10.692l-.134 31.464a16.251 16.251 0 1 0 11.868 16.926 5.992 5.992 0 0 0 .064-.809l.095-22.49h18.107a6 6 0 0 0 0-12h-18.055l.056-13.189c0-.113 0-.226-.009-.34a2.634 2.634 0 0 1 .737-1.994 3.064 3.064 0 0 1 2.254-.942zm-19.443 54.752a4.259 4.259 0 1 1 4.258-4.258 4.263 4.263 0 0 1 -4.258 4.258z"/><path d="m85.221 428.949 49.484 38.851a16.87 16.87 0 1 0 20.834-26.538l-49.485-38.848a16.869 16.869 0 0 0 -20.833 26.538zm6.587-16.275a4.875 4.875 0 0 1 6.837-.823l49.483 38.849a4.869 4.869 0 1 1 -6.013 7.66l-49.484-38.85a4.869 4.869 0 0 1 -.823-6.836z"/><path d="m63.237 343.474a101.551 101.551 0 0 0 80.22 163.537 103.177 103.177 0 0 0 12.8-.8 101.547 101.547 0 0 0 88.831-96.252 34.9 34.9 0 0 1 13.088-25.881 79.352 79.352 0 0 0 14.451-14.962 85.45 85.45 0 0 0 16.413-47.546c.417-16.265-4.379-30.794-13.577-41.532l117.772-155.882 4.856 3.812a13.114 13.114 0 0 0 17.73-1.411l6.939 5.448a16.3 16.3 0 0 0 10.111 3.509 16.562 16.562 0 0 0 2-.121 16.426 16.426 0 0 0 8.18-29.228l-10.742-8.434 3.618-6.5 7.267 5.7a16.426 16.426 0 1 0 20.283-25.831l-11.367-8.922 1.362-2.444a13.15 13.15 0 0 0 -3.217-16.957l-35.309-27.72a13.15 13.15 0 0 0 -17.312.973l-1.91 1.881-11.98-9.405a16.426 16.426 0 1 0 -20.286 25.841l8.672 6.808-5.275 5.2-11.445-8.989a16.427 16.427 0 0 0 -20.287 25.841l8.366 6.567a13.114 13.114 0 0 0 2.84 17.558l6.729 5.283-121.148 154.318c-13.025-6.282-28.365-7.17-43.794-2.405-15.61 4.82-30.63 15.314-41.21 28.79a79.428 79.428 0 0 0 -9.4 15.231 35.579 35.579 0 0 1 -22.051 19.368 100.78 100.78 0 0 0 -52.218 35.557zm372.4-227.87a4.426 4.426 0 0 1 -5.467 6.963l-8.14-6.39 4.362-7.831zm20.429-35.064a4.426 4.426 0 1 1 -5.466 6.96l-8.764-6.881 4.362-7.83zm-85.2-55.631a4.426 4.426 0 0 1 2.2-7.877 4.388 4.388 0 0 1 3.262.913l10.778 8.455-6.358 6.264zm35.187-.33a1.126 1.126 0 0 1 1.481-.084l35.309 27.72a1.124 1.124 0 0 1 .271 1.457c-.031.052-.061.1-.091.157l-35.9 64.438a1.122 1.122 0 0 1 -1.628.262l-51.757-40.636a1.121 1.121 0 0 1 -.094-1.681zm-54.174 36.526-9.345-7.337a4.426 4.426 0 1 1 5.466-6.968l10.237 8.037zm10.618 38.92 21.3 16.72-15.751 20.845-21.679-17.019zm-23.54 29.985 21.854 17.156-20.88 27.634-22.358-17.553zm-28.794 36.678 22.533 17.69-20.879 27.636-23.039-18.086zm-28.8 36.678 23.214 18.224-20.877 27.636-23.718-18.62zm-28.794 36.679 23.898 18.755-20.88 27.636-24.4-19.154zm-62.069 105.742a34.837 34.837 0 0 0 -15.484-6.945l19.971-25.44 25.252 19.824-19.429 25.714a34.838 34.838 0 0 0 -10.31-13.153zm-3.52 41.743a23.007 23.007 0 1 1 -20.848-37.05 23.531 23.531 0 0 1 2.8-.168 23.01 23.01 0 0 1 18.051 37.218zm15.42-83.567 21.385-27.24 24.572 19.291-20.884 27.636zm-83.616 15.485a47.578 47.578 0 0 0 29.591-25.8 67.35 67.35 0 0 1 7.975-12.924c15.888-20.238 44.527-33.578 67.926-24.064l-65.2 83.056a35.011 35.011 0 0 0 9.742 68.616 35.462 35.462 0 0 0 4.256-.256 35.007 35.007 0 0 0 30.79-33.266l64.112-84.856c12.168 16.762 13.8 46.637-4.986 72.017a67.382 67.382 0 0 1 -12.265 12.7 46.888 46.888 0 0 0 -17.625 34.765 89.532 89.532 0 1 1 -114.321-89.988z"/><path d="m400.5 54.136 16.827 13.21a6 6 0 0 0 7.41-9.438l-16.824-13.208a6 6 0 1 0 -7.411 9.438z"/><path d="m381.786 77.977 16.827 13.21a6 6 0 0 0 7.41-9.439l-16.823-13.209a6 6 0 0 0 -7.41 9.438z"/></g></svg>