<svg id="Layer_1" height="512" viewBox="0 0 512 512" width="512" xmlns="http://www.w3.org/2000/svg" data-name="Layer 1"><path d="m92 85.68h329.58a148.414 148.414 0 0 1 8.94 15.51c26.22 51.41 35.32 111.2 26.59 169.3-10.71 71.27-27.05 177.75-38.48 217.91-2.14 7.51-8.5 12.6-15.68 12.6h-82.38a16.125 16.125 0 0 1 -13.69-8.04l-13.64-22.48a11.669 11.669 0 0 1 2.54-15.04l.48-.4a9.918 9.918 0 0 0 3.6-7.65v-12.56a6.56 6.56 0 0 0 -6.57-6.56h-74.58a6.56 6.56 0 0 0 -6.57 6.56v13.06a9.956 9.956 0 0 0 2.99 7.1 11.666 11.666 0 0 1 1.44 14.97l-16.49 23.89a16.009 16.009 0 0 1 -13.12 7.15h-76.76c-7.49 0-14.02-5.54-15.91-13.47-10.24-42.97-28.6-145.16-39.4-217.04-8.73-58.1.37-117.89 26.59-169.3a148.414 148.414 0 0 1 8.94-15.51l.01-.07c.52.05 1.04.07 1.57.07z" fill="#606a7c"/><path d="m124.29 487.53c-10.24-42.97-28.6-145.16-39.4-217.04-8.73-58.1.37-117.73 26.59-169.14a126.872 126.872 0 0 1 8.94-15.35h-28.42c-.53 0-1.05-.18-1.57-.23l-.01-.01a147.457 147.457 0 0 0 -8.94 15.47c-26.22 51.41-35.32 111.18-26.59 169.28 10.8 71.88 29.16 174.06 39.4 217.03 1.89 7.93 8.42 13.46 15.91 13.46h30c-7.49 0-14.02-5.54-15.91-13.47z" fill="#515b68"/><path d="m406.58 314.73.26 71.19v.01a487.945 487.945 0 0 1 -74.5 15.42l-1.09-72.3a525.758 525.758 0 0 0 75.33-14.32z" fill="#eb7288"/><path d="m452.67 299.65h.03c-3.63 23.82-7.65 49.68-11.77 74.74h-.01q-16.95 6.555-34.08 11.53l-.26-71.19a446.507 446.507 0 0 0 46.09-15.08z" fill="#f3ce7d"/><path d="m331.25 329.05 1.09 72.3a587.217 587.217 0 0 1 -75.86 4.65v-72.73a637.417 637.417 0 0 0 74.77-4.22z" fill="#f3ce7d"/><path d="m256.48 333.27v72.73a683.726 683.726 0 0 1 -75.14-4.38v-72.28a748.212 748.212 0 0 0 75.14 3.93z" fill="#eb7288"/><path d="m181.34 329.34v72.28a713.011 713.011 0 0 1 -75.14-12.54v-71.07c20.02 4.02 45.69 8.32 75.14 11.33z" fill="#f3ce7d"/><path d="m106.2 318.02v71.06c-20.93-4.7-33.07-8.53-33.07-8.53-4.34-24.28-8.65-49.57-12.51-73.41 1.69.51 18.45 5.43 45.58 10.87z" fill="#eb7288"/><path d="m331.25 329.05a637.417 637.417 0 0 1 -74.77 4.22 748.212 748.212 0 0 1 -75.14-3.93c-29.45-3.01-55.12-7.31-75.14-11.33-27.13-5.44-43.89-10.36-45.58-10.87-1.63-10.08-3.18-19.89-4.61-29.27.24.08 3.93 1.21 10.56 2.99a732.864 732.864 0 0 0 75.64 15.65q8.745 1.365 18.15 2.61c20.22 2.66 42.6 4.83 66.41 5.89q9.795.435 19.9.61a645.788 645.788 0 0 0 65.6-2.14q14.085-1.2 28.38-3.12a503.1 503.1 0 0 0 64.59-12.97q9.915-2.7 19.77-5.87v-.01q16.245-5.235 32.22-11.85c-.04.28-.08.55-.12.83-1.38 9.2-2.86 19-4.41 29.16h-.03a446.507 446.507 0 0 1 -46.09 15.08 525.758 525.758 0 0 1 -75.33 14.32z" fill="#4ca987"/><path d="m107.13 206.97-.01.04-40.55 73.85c-6.63-1.78-10.32-2.91-10.56-2.99-.38-2.49-.76-4.95-1.12-7.38a289.1 289.1 0 0 1 -1.27-76.48s20.21 6.38 53.51 12.96z" fill="#eb7288"/><path d="m123.31 210.04 18.9 86.47a732.864 732.864 0 0 1 -75.64-15.65l40.55-73.85.01-.04c5.1 1.01 10.51 2.02 16.19 3.01z" fill="#f3ce7d"/><path d="m192.95 218.94-.01.08-32.58 80.1q-9.39-1.245-18.15-2.61l-18.9-86.47.01-.06c20.07 3.53 43.66 6.83 69.63 8.96z" fill="#eb7288"/><path d="m210.11 220.23 16.66 84.78c-23.81-1.06-46.19-3.23-66.41-5.89l32.58-80.1.01-.08q8.43.69 17.17 1.2z" fill="#f3ce7d"/><path d="m272.11 220.95v.1l-25.44 84.57q-10.095-.165-19.9-.61l-16.66-84.78.01-.09c19.67 1.14 40.48 1.54 61.99.81z" fill="#eb7288"/><path d="m288.94 220.26 23.33 83.22a645.788 645.788 0 0 1 -65.6 2.14l25.44-84.57v-.1q8.34-.27 16.82-.78z" fill="#f3ce7d"/><path d="m355.53 212.21.01.07-14.89 88.08q-14.28 1.935-28.38 3.12l-23.33-83.22-.01-.09a559.477 559.477 0 0 0 66.6-7.96z" fill="#eb7288"/><path d="m370.91 209.22 34.33 78.17a503.1 503.1 0 0 1 -64.59 12.97l14.89-88.08-.01-.07q7.68-1.4 15.37-3.06z" fill="#f3ce7d"/><path d="m429.2 192.62.01.03-4.2 88.86v.01q-9.84 3.165-19.77 5.87l-34.33-78.17-.01-.07a455.869 455.869 0 0 0 58.3-16.53z" fill="#eb7288"/><path d="m456.65 181.67a288.04 288.04 0 0 1 .58 87.99q-15.945 6.645-32.22 11.85l4.2-88.86-.01-.03q13.815-4.95 27.45-10.95z" fill="#f3ce7d"/><path d="m451.24 155.9q3.315 12.735 5.41 25.77-13.62 6.015-27.45 10.95a455.869 455.869 0 0 1 -58.3 16.53q-7.695 1.665-15.37 3.06a559.477 559.477 0 0 1 -66.6 7.96q-8.475.51-16.82.78c-21.51.73-42.32.33-61.99-.81q-8.745-.51-17.17-1.2c-25.97-2.13-49.56-5.43-69.63-8.96-5.68-.99-11.09-2-16.19-3.01-33.3-6.58-53.51-12.96-53.51-12.96a280.4 280.4 0 0 1 4.85-28.58c1.85.64 209.33 71.45 392.77-9.53z" fill="#4ca987"/><path d="m418.91 49.51h-323.65c0-21.27 15.74-38.51 35.16-38.51h253.33c19.42 0 35.16 17.24 35.16 38.51z" fill="#ffd8b7"/><path d="m424.7 50h-332.7a17.667 17.667 0 0 0 -18.09 17.712 18.177 18.177 0 0 0 16.52 18.119l334.27.169a18.131 18.131 0 0 0 12.79-5.46 17.663 17.663 0 0 0 5.3-12.625 17.943 17.943 0 0 0 -18.09-17.915z" fill="#4c5460"/><path d="m103.91 67.8a17.736 17.736 0 0 1 18.09-17.8h-30a17.667 17.667 0 0 0 -18.09 17.8 18.411 18.411 0 0 0 16.52 18.2h30a18.411 18.411 0 0 1 -16.52-18.2z" fill="#434851"/><path d="m66.57 280.86c-6.63-1.78-10.32-2.91-10.56-2.99 1.43 9.38 2.98 19.19 4.61 29.27 1.369.413 12.63 3.72 31.279 7.854-1.625-9.925-3.18-19.649-4.637-29.008-8.531-1.964-15.51-3.741-20.692-5.126z" fill="#40896b"/><path d="m58.47 165.43a280.4 280.4 0 0 0 -4.85 28.58s10.651 3.361 29.216 7.719q1.273-14.181 3.942-28.134c-17.667-4.53-27.904-8.025-28.308-8.165z" fill="#40896b"/><path d="m92 314.994c-19-4.134-29.96-7.441-31.329-7.854 3.86 23.84 8.144 49.13 12.484 73.41 0 0 11.561 3.635 31.5 8.167-4.355-24.117-8.655-49.509-12.655-73.717z" fill="#bf5e73"/><path d="m83 201.739v-.01c-19-4.358-29.3-7.719-29.3-7.719a289.087 289.087 0 0 0 1.23 76.48c.36 2.43.719 4.89 1.1 7.38.24.08 3.92 1.21 10.55 2.99l16.192-29.349c-1.382-16.62-1.772-33.286.228-49.772z" fill="#bf5e73"/><path d="m431.667 90.651a24.087 24.087 0 0 0 -6.967-47.146h-.178c-2.715-21.711-19.957-38.505-40.769-38.505h-253.333c-20.849 0-38.115 16.854-40.787 38.623a24.08 24.08 0 0 0 -8.424 45.5q-2.441 4.2-5.068 9.345c-26.488 51.909-36.141 113.318-27.188 172.914 11.214 74.635 29.671 176.287 39.5 217.536 2.534 10.647 11.477 18.082 21.747 18.082h76.768a22.079 22.079 0 0 0 18.052-9.739l16.491-23.894a17.634 17.634 0 0 0 -2.183-22.669 3.952 3.952 0 0 1 -1.182-2.809v-13.061a.564.564 0 0 1 .563-.563h74.588a.564.564 0 0 1 .563.563v12.566a3.917 3.917 0 0 1 -1.424 3.027l-.476.394a17.774 17.774 0 0 0 -3.842 22.781l13.633 22.475a22.029 22.029 0 0 0 18.82 10.929h82.377c9.946 0 18.568-6.815 21.453-16.957 10.812-37.992 25.6-131.855 38.646-218.661 8.955-59.6-.7-121-27.188-172.916q-2.159-4.227-4.192-7.815zm-301.247-73.651h253.333c14.239 0 26.118 11.44 28.651 26.505h-310.635c2.531-15.065 14.413-26.505 28.651-26.505zm-50.512 50.593a12.1 12.1 0 0 1 12.092-12.088h332.7a12.089 12.089 0 0 1 0 24.177h-332.7a12.1 12.1 0 0 1 -12.092-12.089zm-19.088 202.007a282.684 282.684 0 0 1 -1.928-67.809c7.624 2.124 21.123 5.649 39.079 9.41l-34.383 62.616c-.83-.23-1.568-.439-2.226-.626q-.273-1.806-.542-3.591zm336.1 13.759a497.544 497.544 0 0 1 -48.978 9.881l12.84-75.932q3.291-.63 6.555-1.3zm-17.62-69.959q22.427-5.173 43.5-12.241l-3.585 75.865q-5.247 1.637-10.584 3.16zm-43.827 81.59q-9.12 1.164-18.426 2.042c-.115.01-.231.019-.345.03l-20.024-71.411q10.047-.731 19.911-1.773 16.089-1.722 31.641-4.327zm-30.954 3.074q-24.348 1.77-49.808 1.648l21.934-72.922q3.906-.157 7.788-.36zm-62.282 1.459q-5.229-.122-10.493-.317l-14.283-72.674q16.593.785 32.858.789c4.585 0 9.141-.059 13.682-.153zm-22.836-.9q-15.1-.833-30.464-2.294-10.314-.988-20.075-2.19l28.023-68.887q4.113.31 8.21.575zm-62.842-6.086q-4.773-.66-9.374-1.352l-16.131-73.824c16.047 2.631 33.986 5.054 53.3 6.844zm-22.1-3.368c-25.183-4.2-45.527-8.828-58.917-12.2l34.758-63.3q3.889.747 7.987 1.49zm-66.417 26.238c7.117 1.865 18.1 4.565 32.161 7.484v58.622c-10.3-2.439-17.773-4.5-21.815-5.661-3.541-19.889-7.067-40.463-10.346-60.445zm344.817 171.352c-1.4 4.929-5.385 8.241-9.911 8.241h-82.377a10.134 10.134 0 0 1 -8.563-5.153l-13.634-22.475a5.707 5.707 0 0 1 1.233-7.312l.476-.393a15.885 15.885 0 0 0 5.774-12.273v-12.566a12.577 12.577 0 0 0 -12.563-12.563h-74.588a12.577 12.577 0 0 0 -12.563 12.563v13.061a16.023 16.023 0 0 0 4.788 11.385 5.661 5.661 0 0 1 .7 7.277l-16.491 23.893a9.96 9.96 0 0 1 -8.175 4.556h-76.765c-4.688 0-8.83-3.645-10.074-8.863-4.937-20.728-12.075-56.855-19.371-97.121 21.6 5.9 62.679 15 110.41 19.672 19.422 1.9 41.686 3.249 65.8 3.249 53.332 0 115.7-6.6 176.364-28.322-7.423 44.458-14.575 82.428-20.47 103.144zm-300.659-102.53v-58.949c17.738 3.386 39.16 6.835 63.136 9.453v60.136c-24.885-3.051-46.443-7.03-63.136-10.64zm75.136 12.007v-60.285c.106.01.211.021.317.03 21.269 1.983 42.248 3.059 62.819 3.247v60.672c-21.073-.215-40.607-1.443-57.847-3.124q-2.664-.261-5.286-.54zm75.136 3.67v-60.669c17.879-.142 35.427-.966 52.538-2.487q5.2-.462 10.34-1.016l.9 60.213a586.814 586.814 0 0 1 -63.775 3.959zm74.859-65.582a534.176 534.176 0 0 0 63.277-11.865l.213 58.908a481.5 481.5 0 0 1 -62.589 13.033zm98.238 35.668q-11.34 4.273-22.761 7.839l-.208-58.551q16.737-4.681 32.626-10.441c-3.196 20.815-6.44 41.485-9.654 61.153zm11.73-74.735c-92.09 35-191.081 35.037-258.25 28.8-62.676-5.819-109.928-17.994-123.12-21.644q-1.323-8.228-2.569-16.22a777.692 777.692 0 0 0 124.145 22.056c24.044 2.313 47.678 3.47 70.726 3.47 20.427 0 40.393-.909 59.768-2.727 47.724-4.479 91.98-14.533 131.746-29.887q-1.212 8.06-2.445 16.152zm4.471-29.857q-9.981 4.051-20.353 7.649l3.6-76.163q8.526-3.144 16.8-6.608a282.692 282.692 0 0 1 -.047 75.122zm-1.87-87.362c-40.331 17.23-85.515 28.639-134.416 33.89-40.638 4.364-83.908 4.52-128.606.466-63.262-5.739-111.652-18.427-126.621-22.683q1.131-8.327 2.754-16.544c16.373 5 62.285 17.767 122.122 23.966a657.789 657.789 0 0 0 67.712 3.563 582.133 582.133 0 0 0 59.9-3.025c48.287-5 93.426-16.253 134.307-33.451q1.601 6.861 2.848 13.818zm-138.2 7.677c-39.769 4.131-81.83 3.968-125.019-.486-60.325-6.221-106.151-19.209-121.075-23.814a263.943 263.943 0 0 1 21.223-57.495c2.438-4.777 4.731-8.871 6.846-12.238h324.65c2.115 3.367 4.408 7.461 6.846 12.238a262.344 262.344 0 0 1 18.881 48.533c-40.17 17.111-84.652 28.308-132.346 33.262z" fill="#284268"/></svg>