<svg id="Layer_1" height="512" viewBox="0 0 512 512" width="512" xmlns="http://www.w3.org/2000/svg" data-name="Layer 1"><path d="m395.94 12.12c16.32 20.25 44.35 151.68-153.86 355.57l-49.86-36.9c88.8-106.51 118.44-215.5 118.08-229.76a3.021 3.021 0 0 1 2.38-3.03c11.38-2.5 58.32-16.76 78.01-84.79a3.02 3.02 0 0 1 5.25-1.09z" fill="#b0b5ca"/><path d="m280.21 395.9-110.88-82.04a8.063 8.063 0 0 1 1.91-14.01 15.486 15.486 0 0 0 -5.51-29.95 15.331 15.331 0 0 0 -8.27 2.42l-3.9 2.5a35.74 35.74 0 0 0 -.85 59.65l108.03 78.28a22.6 22.6 0 0 1 4.75 31.56 67.215 67.215 0 0 1 -94.15 14.24c-.09-.07-.19-.13-.28-.2l-5.72-4.23-17.59 23.91c51.58 38.16 110.62 26.18 142.28-16.85a46.778 46.778 0 0 0 -9.82-65.28z" fill="#f3ce7d"/><path d="m128.38 426.77-21.69 29.48a10.811 10.811 0 0 0 2.27 15.09l19.65 14.53a10.735 10.735 0 0 0 15.04-2.27l21.69-29.48v-.01z" fill="#eb7288"/><path d="m210.97 404.1-48.39-35.81-.01.01a11.218 11.218 0 1 0 -13.3 18.07l48.4 35.81a11.185 11.185 0 0 0 15.66-2.37 11.266 11.266 0 0 0 -2.36-15.71z" fill="#86909d"/><path d="m184 440.27v-.01l-48-35.81v.01a11.233 11.233 0 0 0 -13.335 18.08l48.678 36.01a11.133 11.133 0 0 0 6.358 1.99 10.838 10.838 0 0 0 8.84-4.56 11.272 11.272 0 0 0 -2.541-15.71z" fill="#86909d"/><path d="m226.48 387.78-52.98-39.18a9.722 9.722 0 0 0 -12.44 2.83l-1.7 2.31a9.808 9.808 0 0 0 2.06 13.69l50.7 37.52a9.747 9.747 0 0 0 13.66-2.07l1.7-2.31a9.809 9.809 0 0 0 -1-12.79z" fill="#56637b"/><path d="m197.66 422.19.01-.01-48.4-35.81-.01.01a11.185 11.185 0 0 0 -15.66 2.37 11.253 11.253 0 0 0 2.36 15.7l48.4 35.81a11.218 11.218 0 0 0 13.3-18.07z" fill="#56637b"/><path d="m330.3 121.03a3.021 3.021 0 0 1 2.38-3.03c10.634-2.336 52.318-14.947 73.8-72.1-1.94-17.428-6.58-28.871-10.54-33.78a3.02 3.02 0 0 0 -5.25 1.09c-19.69 68.03-66.63 82.29-78.01 84.79a3.021 3.021 0 0 0 -2.38 3.03c.36 14.26-29.28 123.25-118.08 229.76l22.663 16.772c86.723-105.474 115.773-212.416 115.417-226.532z" fill="#8a8fa0"/><g fill="#284268"><path d="m105.393 476.159 19.646 14.541a16.605 16.605 0 0 0 9.918 3.287 17.029 17.029 0 0 0 2.531-.19 16.64 16.64 0 0 0 10.992-6.64l.621-.843c20.1 13.548 42.281 20.674 64.115 20.674a98.618 98.618 0 0 0 14.733-1.1c26.577-4.011 50.342-18.625 66.915-41.153a52.829 52.829 0 0 0 -11.087-73.656l-32.625-24.139c43.86-45.7 79.511-91.048 106.019-134.867 22.932-37.908 39.114-74.759 48.1-109.529 15.562-60.234 5.738-101.289-4.662-114.19a9.02 9.02 0 0 0 -15.684 3.194c-8.014 27.69-21.5 49.2-40.082 63.933-14.678 11.63-28.279 15.524-33.443 16.658a9.043 9.043 0 0 0 -7.093 9.042c.122 4.886-5.824 33.508-25.112 77.736a623.986 623.986 0 0 1 -87.986 143.666l-18.309-13.545a2.068 2.068 0 0 1 .483-3.585 21.471 21.471 0 1 0 -19.15-38.186l-3.905 2.492a41.75 41.75 0 0 0 -.989 69.679l8.983 6.1a15.834 15.834 0 0 0 -2.093 2.329l-1.7 2.311a15.729 15.729 0 0 0 -3.015 10.5 17.169 17.169 0 0 0 -12.722 17.949 17.15 17.15 0 0 0 -13.3 18.085 17.054 17.054 0 0 0 -10.022 6.561 17.276 17.276 0 0 0 3.628 24.085l.911.674-18.151 24.668a16.828 16.828 0 0 0 3.535 23.459zm210.793-372.829a99.2 99.2 0 0 0 36.114-18.45c19.071-15.12 33.227-36.456 42.14-63.489 6.4 14.41 11.981 48.733-.786 98.147-23.813 92.174-95.115 180.843-152.223 240.2l-40.558-30.007c83.127-101.805 113.232-204.44 115.313-226.401zm-160.1 226.182a29.75 29.75 0 0 1 .7-49.639l3.906-2.492a9.466 9.466 0 1 1 8.411 16.861 14.067 14.067 0 0 0 -3.339 24.443l110.879 82.036a40.81 40.81 0 0 1 8.557 56.9c-14.67 19.94-35.638 32.867-59.039 36.4-23.642 3.566-47.709-2.437-69.952-17.37l10.4-14.133.885.655c.094.07.193.129.288.2v.007a72.659 72.659 0 0 0 43.385 14.377 74.228 74.228 0 0 0 11.072-.834 72.8 72.8 0 0 0 48.093-29.052 28.657 28.657 0 0 0 -6.048-39.968zm38.755 118.5a17.152 17.152 0 0 0 13.3-18.084 17.158 17.158 0 0 0 13.345-17.487 15.637 15.637 0 0 0 9.131-6l1.7-2.311a15.761 15.761 0 0 0 1.854-3.32l23 16.762a16.629 16.629 0 0 1 3.484 23.185 61.239 61.239 0 0 1 -71.07 21 17.491 17.491 0 0 0 1.967-2.222 17.167 17.167 0 0 0 3.284-11.523zm20.856-47.886-50.7-37.515a3.815 3.815 0 0 1 -.8-5.319l1.7-2.312a3.713 3.713 0 0 1 4.56-1.2l1.953 1.327 49.444 36.593a3.814 3.814 0 0 1 .8 5.319l-1.7 2.311a3.75 3.75 0 0 1 -5.257.8zm-63.959-25.906a5.18 5.18 0 0 1 7.26-1.1l.006-.008 48.4 35.809-.006.008a5.256 5.256 0 0 1 1.1 7.328 5.18 5.18 0 0 1 -7.261 1.1l-48.4-35.809a5.256 5.256 0 0 1 -1.099-7.328zm-13.3 18.084a5.177 5.177 0 0 1 7.258-1.1l.007-.009 48.397 35.805-.006.008a5.255 5.255 0 0 1 1.1 7.328 5.178 5.178 0 0 1 -7.259 1.1l-48.4-35.81a5.255 5.255 0 0 1 -1.101-7.326zm-13.3 18.085a5.18 5.18 0 0 1 7.261-1.1l.006-.008 48.4 35.809-.006.008a5.255 5.255 0 0 1 1.1 7.328 5.179 5.179 0 0 1 -7.26 1.1l-48.4-35.81a5.254 5.254 0 0 1 -1.11-7.327zm-13.605 49.42 18.125-24.636 27.309 20.206-18.143 24.662a4.736 4.736 0 0 1 -6.639 1.008l-19.647-14.536a4.81 4.81 0 0 1 -1.014-6.704z"/><path d="m128.354 465.567a7.96 7.96 0 0 0 4.758 1.577 8.166 8.166 0 0 0 1.215-.091 8.038 8.038 0 1 0 -5.973-1.486z"/><path d="m266.593 312.041a5.984 5.984 0 0 0 4.413-1.933c36.493-39.578 64.641-87 81.829-119.815a6 6 0 0 0 -10.631-5.567c-16.851 32.173-44.414 78.631-80.02 117.247a6 6 0 0 0 4.409 10.068z"/><path d="m356.071 170.7a5.995 5.995 0 0 0 8-2.818c1.342-2.8 2.677-5.639 3.967-8.434a6 6 0 1 0 -10.895-5.029c-1.167 2.527-2.465 5.3-3.894 8.277a6 6 0 0 0 2.822 8.004z"/></g></svg>