<svg id="Layer_1" height="512" viewBox="0 0 512 512" width="512" xmlns="http://www.w3.org/2000/svg" data-name="Layer 1"><path d="m202.09 456.49a38.916 38.916 0 1 1 -77.09.47l11.04-166.9h54.01z" fill="#7f3d32"/><path d="m348.43 11a39.012 39.012 0 0 1 38.57 44.04l-11.04 166.9h-54.01l-12.04-166.43a39.074 39.074 0 0 1 38.52-44.51z" fill="#7f3d32"/><path d="m117.96 28.35v35.42h-27.82c7.54-14.39 17-26.47 27.82-35.43z" fill="#5fa8ed"/><path d="m140.36 15.15v48.62h-22.4v-35.43a77.833 77.833 0 0 1 22.4-13.19z" fill="#4689d3"/><path d="m162.76 11v52.77h-22.4v-48.62a64.4 64.4 0 0 1 22.4-4.15z" fill="#5fa8ed"/><path d="m185.16 14.94v48.83h-22.4v-52.77h.28a64.641 64.641 0 0 1 22.12 3.94z" fill="#4689d3"/><path d="m207.55 27.87v35.9h-22.39v-48.83a77.236 77.236 0 0 1 22.39 12.93z" fill="#5fa8ed"/><path d="m235.95 63.77h-28.4v-35.9c11.06 9 20.73 21.26 28.4 35.9z" fill="#4689d3"/><path d="m255.18 146.77q0 1.425-.03 2.85h-24.96l-25.43-65.68h39.97a188.258 188.258 0 0 1 10.45 62.83z" fill="#5fcda4"/><path d="m122.18 83.94-26.17 65.68h-25.07q-.03-1.425-.03-2.85a188.258 188.258 0 0 1 10.45-62.83z" fill="#5fcda4"/><path d="m133.27 83.94 20.88 65.68h-58.14l26.17-65.68z" fill="#4ca987"/><path d="m192.96 83.94-20.02 65.68h-18.79l-20.88-65.68z" fill="#5fcda4"/><path d="m204.76 83.94 25.43 65.68h-57.25l20.02-65.68z" fill="#4ca987"/><path d="m86.46 221.95h153.31a140.679 140.679 0 0 1 -10.99 19.93h-131.47a138.979 138.979 0 0 1 -10.96-19.88z" fill="#4689d3"/><path d="m97.31 241.88h131.47c-8.08 12.13-17.69 22.03-28.38 29.02h-74.71c-10.68-6.99-20.3-16.89-28.38-29.02z" fill="#f3ce7d"/><path d="m200.4 270.9-10.35 19.16h-54.01l-10.35-19.16z" fill="#bc5e51"/><path d="m375.96 221.94 10.35 19.16h-74.71l10.35-19.16z" fill="#bc5e51"/><path d="m386.31 241.1c10.68 6.99 20.3 16.89 28.38 29.02h-131.47c8.08-12.13 17.69-22.03 28.38-29.02z" fill="#f3ce7d"/><path d="m425.65 290-.11.05h-153.31a140.679 140.679 0 0 1 10.99-19.93h131.47a138.979 138.979 0 0 1 10.96 19.88z" fill="#4689d3"/><path d="m281.81 362.38 25.43 65.68h-39.97a188.258 188.258 0 0 1 -10.45-62.83q0-1.425.03-2.85z" fill="#5fcda4"/><path d="m339.06 362.38-20.02 65.68h-11.8l-25.43-65.68z" fill="#4ca987"/><path d="m357.85 362.38 20.88 65.68h-59.69l20.02-65.68z" fill="#5fcda4"/><path d="m415.99 362.38-26.17 65.68h-11.09l-20.88-65.68z" fill="#4ca987"/><path d="m441.06 362.38q.03 1.425.03 2.85a188.258 188.258 0 0 1 -10.45 62.83h-40.82l26.17-65.68z" fill="#5fcda4"/><path d="m394.04 448.23h27.82c-7.54 14.39-17 26.47-27.82 35.43z" fill="#4689d3"/><path d="m394.04 483.65v.01a77.833 77.833 0 0 1 -22.4 13.19v-48.62h22.4z" fill="#5fa8ed"/><path d="m304.45 448.23v35.9c-11.06-9-20.73-21.26-28.4-35.9z" fill="#5fa8ed"/><path d="m326.84 448.23v48.83a77.236 77.236 0 0 1 -22.39-12.93v-35.9z" fill="#4689d3"/><path d="m349.24 448.23v52.77h-.28a64.641 64.641 0 0 1 -22.12-3.94v-48.83z" fill="#5fa8ed"/><path d="m371.64 448.23v48.62a64.4 64.4 0 0 1 -22.4 4.15v-52.77z" fill="#4689d3"/><path d="m235.96 64h-145.83a141.448 141.448 0 0 0 -8.77 20h163.37a141.448 141.448 0 0 0 -8.77-20z" fill="#f3ce7d"/><path d="m70.94 150c.09 6 .53 13 1.29 20h181.63c.76-7 1.2-14 1.29-20z" fill="#f3ce7d"/><path d="m439.77 342h-181.63c-.76 7-1.2 14-1.29 20h184.21c-.09-6-.53-13-1.29-20z" fill="#f3ce7d"/><path d="m276.04 448h145.83a141.448 141.448 0 0 0 8.77-20h-163.37a141.448 141.448 0 0 0 8.77 20z" fill="#f3ce7d"/><path d="m86.46 221.95-.11.05a175.918 175.918 0 0 1 -14.12-52.21h181.63a176.261 176.261 0 0 1 -14.09 52.16z" fill="#eb7288"/><path d="m425.65 290a175.918 175.918 0 0 1 14.12 52.21h-181.63a176.261 176.261 0 0 1 14.09-52.16h153.31z" fill="#eb7288"/><path d="m217.49 195.53a5.855 5.855 0 1 0 -5.85 5.88 5.866 5.866 0 0 0 5.85-5.88zm-47.65 0a5.86 5.86 0 1 0 -5.86 5.88 5.868 5.868 0 0 0 5.86-5.88zm-47.66 0a5.855 5.855 0 1 0 -5.85 5.88 5.866 5.866 0 0 0 5.85-5.88z" fill="#de3c44"/><path d="m401.53 316.47a5.855 5.855 0 1 0 -5.86 5.89 5.866 5.866 0 0 0 5.86-5.89zm-47.65 0a5.86 5.86 0 1 0 -5.86 5.89 5.872 5.872 0 0 0 5.86-5.89zm-47.66 0a5.855 5.855 0 1 0 -5.86 5.89 5.866 5.866 0 0 0 5.86-5.89z" fill="#de3c44"/><path d="m155 456.93 11.04-166.93h-30l-11.04 166.93a39.025 39.025 0 0 0 38.57 44.055 38.584 38.584 0 0 0 15.008-3.023 39.133 39.133 0 0 1 -23.578-41.032z" fill="#63312a"/><path d="m339.53 50.02a39.157 39.157 0 0 1 23.892-36.005 38.591 38.591 0 0 0 -14.992-3.015 39.007 39.007 0 0 0 -38.9 39.02 39.809 39.809 0 0 0 .38 5.52l12.04 166.46h30l-12.04-166.46a39.809 39.809 0 0 1 -.38-5.52z" fill="#63312a"/><path d="m196.44 378.43 2.33 32.16c-30.59 19.2-70.7 0-70.7 0l2.22-33.53c.75.42 35.89 20.38 66.15 1.37z" fill="#bc5e51"/><path d="m383.93 101.41-2.22 33.53c-.75-.42-35.89-20.38-66.15-1.37l-2.33-32.16c30.59-19.2 70.7 0 70.7 0z" fill="#bc5e51"/><path d="m159.677 386.215a83.14 83.14 0 0 1 -29.387-9.155l-2.22 33.53a101.925 101.925 0 0 0 29.466 8z" fill="#994f47"/><path d="m342.617 92.923c-9.738.327-20.009 2.6-29.387 8.487l2.33 32.16a54.422 54.422 0 0 1 29.4-8.192z" fill="#994f47"/><g fill="#284268"><path d="m390.882 236.935-8.821-16.329 10.918-165a44.907 44.907 0 1 0 -89.039.52l11.9 164.5-8.812 16.312c-34.191 23.249-56.206 73.38-56.206 128.3 0 37.455 9.951 72.746 28.021 99.374 18.557 27.331 43.457 42.388 70.112 42.388s51.56-15.057 70.112-42.4c18.069-26.628 28.02-61.919 28.02-99.374 0-54.912-22.015-105.043-56.205-128.291zm-67.2-208.648a32.756 32.756 0 0 1 49.349-.149 33.233 33.233 0 0 1 8.016 26.146c-.016.119-.028.239-.035.359l-2.522 38.167a112.377 112.377 0 0 0 -17.412-4.51c-15.77-2.732-30.272-1.462-42.516 3.641l-2.662-36.869q-.015-.2-.042-.393a33.208 33.208 0 0 1 7.828-26.392zm1.844 199.649h46.851l3.87 7.163h-54.587zm-3.711-91.036c21.332-11.221 45.128-2.318 53.651 1.618l-5.122 77.418h-42.811zm-.93-12.844-1.4-19.31c21.813-11.448 48.537-3.148 58.176.552l-1.355 20.472c-11.662-4.732-33.712-10.865-55.421-1.714zm-7.425 123.044h70.991a90.348 90.348 0 0 1 18.357 17.018h-107.708a90.374 90.374 0 0 1 18.36-17.018zm-50.61 121.284h14.85l20.783 53.673h-26.95a183.925 183.925 0 0 1 -8.683-53.673zm107.677 53.673h-43.381l16.354-53.673h9.959zm-4.472-53.673h41.086l-21.392 53.673h-2.63zm-51.455 53.673h-3.252l-20.782-53.673h40.394zm-16.154 48.221a111.552 111.552 0 0 1 -12.117-16.052h12.117zm22.4 17.618a73.963 73.963 0 0 1 -10.4-6.612v-27.058h10.4zm22.4 6.812a58.879 58.879 0 0 1 -10.4-1.994v-38.488h10.4zm22.4-2.161a59.011 59.011 0 0 1 -10.4 2.106v-40.427h10.4zm22.4-11.694a74.69 74.69 0 0 1 -10.4 6.738v-33.365h10.4zm12-11.207v-15.419h11.534a112.16 112.16 0 0 1 -11.542 15.419zm18.2-27.419h-138.579q-1.95-3.972-3.7-8.169h145.974q-1.747 4.193-3.698 8.169zm8.134-20.17h-27.714l21.393-53.673h15a183.858 183.858 0 0 1 -8.682 53.673zm8.5-65.673h-171.848q.186-4.115.551-8.169h170.745q.357 4.056.55 8.169zm-1.985-20.169h-167.878a170.6 170.6 0 0 1 11.143-40.166h145.591a170.6 170.6 0 0 1 11.142 40.166zm-16.839-52.166h-134.2c1.458-2.73 2.984-5.381 4.588-7.932h125.022c1.605 2.551 3.134 5.202 4.588 7.932z"/><path d="m395.673 328.361a11.888 11.888 0 1 0 -11.857-11.887 11.886 11.886 0 0 0 11.857 11.887z"/><path d="m348.019 328.361a11.888 11.888 0 1 0 -11.857-11.887 11.886 11.886 0 0 0 11.857 11.887z"/><path d="m300.364 328.361a11.888 11.888 0 1 0 -11.856-11.887 11.887 11.887 0 0 0 11.856 11.887z"/><path d="m261.177 146.77c0-37.454-9.951-72.746-28.021-99.373-18.556-27.34-43.456-42.397-70.111-42.397s-51.56 15.057-70.112 42.4c-18.069 26.627-28.02 61.918-28.02 99.373 0 54.916 22.014 105.047 56.205 128.295l8.821 16.33-10.917 165a44.907 44.907 0 1 0 89.038-.52l-11.9-164.495 8.812-16.312c34.19-23.255 56.205-73.386 56.205-128.301zm-12.027-3.154h-14.85l-20.782-53.673h26.949a183.919 183.919 0 0 1 8.683 53.673zm-107.677-53.673h43.381l-16.354 53.673h-9.959zm4.472 53.673h-41.086l21.392-53.673h2.63zm51.455-53.673h3.25l20.784 53.673h-40.394zm16.154-48.221a111.552 111.552 0 0 1 12.116 16.052h-12.117zm-22.399-17.622a73.963 73.963 0 0 1 10.4 6.612v27.062h-10.4zm-22.4-6.812a58.879 58.879 0 0 1 10.4 1.994v38.492h-10.4zm-22.4 2.161a59.011 59.011 0 0 1 10.4-2.106v40.431h-10.4zm-22.4 11.694a74.69 74.69 0 0 1 10.4-6.738v33.369h-10.4zm-12 11.207v15.42h-11.535a112.171 112.171 0 0 1 11.542-15.416zm-18.2 27.42h138.578q1.948 3.972 3.7 8.169h-145.974q1.749-4.19 3.698-8.165zm-8.132 20.173h27.711l-21.393 53.673h-15a183.853 183.853 0 0 1 8.682-53.673zm-8.5 65.673h171.845q-.186 4.114-.551 8.169h-170.745q-.357-4.056-.55-8.169zm1.985 20.169h167.875a170.6 170.6 0 0 1 -11.143 40.166h-145.591a170.554 170.554 0 0 1 -11.142-40.166zm21.427 60.1c-1.605-2.551-3.13-5.2-4.588-7.932h134.2c-1.458 2.73-2.984 5.381-4.588 7.932zm87.781 247.83a32.757 32.757 0 0 1 -49.35.149 33.232 33.232 0 0 1 -8.016-26.146c.016-.119.028-.239.035-.359l2.526-38.167a112.275 112.275 0 0 0 17.412 4.511 92.531 92.531 0 0 0 15.8 1.409 69.128 69.128 0 0 0 26.714-5.049l2.667 36.867c.01.132.024.262.042.393a33.21 33.21 0 0 1 -7.831 26.39zm-1.846-199.65h-46.851l-3.87-7.164h54.591zm3.715 91.035c-21.333 11.22-45.128 2.317-53.651-1.619l5.123-77.416h42.81zm-23.177 17.576a61.677 61.677 0 0 0 24.107-4.73l1.4 19.307c-21.815 11.447-48.54 3.147-58.179-.553l1.354-20.471a85.079 85.079 0 0 0 31.318 6.447zm-39.459-127.776a90.348 90.348 0 0 1 -18.357-17.018h107.708a90.374 90.374 0 0 1 -18.36 17.018z"/><path d="m116.327 183.639a11.888 11.888 0 1 0 11.857 11.887 11.886 11.886 0 0 0 -11.857-11.887z"/><path d="m163.981 183.639a11.888 11.888 0 1 0 11.857 11.887 11.886 11.886 0 0 0 -11.857-11.887z"/><path d="m211.636 183.639a11.888 11.888 0 1 0 11.856 11.887 11.887 11.887 0 0 0 -11.856-11.887z"/></g></svg>