<svg id="Layer_1" height="512" viewBox="0 0 512 512" width="512" xmlns="http://www.w3.org/2000/svg" data-name="Layer 1"><path d="m373.24 309.17h-234.87l.36 74.77a117.343 117.343 0 0 0 7.54 41.35l17.53 30.5a121.194 121.194 0 0 0 40.06 32.64 115.861 115.861 0 0 0 52.32 12.57c36.75 0 70.4-18.94 91.93-45.39l18.02-30.43a117.379 117.379 0 0 0 7.5-42.4z" fill="#ffd8b7"/><path d="m233.86 488.43a121.194 121.194 0 0 1 -40.06-32.64l-17.53-30.5a117.813 117.813 0 0 1 -7.54-41.435l-.36-74.855h-30l.36 74.855a117.58 117.58 0 0 0 7.54 41.393l17.53 30.521a121.222 121.222 0 0 0 40.06 32.65 115.866 115.866 0 0 0 52.32 12.581 107.958 107.958 0 0 0 14.773-1.028 116.666 116.666 0 0 1 -37.093-11.542z" fill="#dbb79c"/><path d="m439.75 239.83v19.28a50.039 50.039 0 0 1 -2.56 15.85h-362.38a49.758 49.758 0 0 1 -2.56-15.85v-19.28a5.633 5.633 0 0 1 5.64-5.64h356.22a5.633 5.633 0 0 1 5.64 5.64z" fill="#e1b7a3"/><path d="m394.98 353.3a21.439 21.439 0 0 1 -21.39 21.68l-.23-43.36a21.633 21.633 0 0 1 21.62 21.68z" fill="#efc597"/><path d="m138.48 331.62.21 43.44c-11.97 0-22.15-9.79-22.15-21.76a21.9 21.9 0 0 1 21.94-21.68z" fill="#efc597"/><path d="m361.37 191.94 4.76 42.25h-9.48-4.45-31.57-4.7-31.94-4.33-31.58-4.7-31.58-4.7-32.24-4.02-26.63l5.95-42.3.91.13h209.57z" fill="#4ca987"/><path d="m359.58 176.07 1.79 15.87-.73.08h-209.57l-.91-.13 2.23-15.86.76.11h205.82z" fill="#af786b"/><path d="m355.93 143.74 3.65 32.33-.61.07h-205.82l-.76-.11 5.05-35.87.44.06s14.15 18.79 35.65 9.24 27.41-9.24 42.16-1.06a50.13 50.13 0 0 0 39.99-.39c17.02-7.57 28.19-5.36 36.85-.21 8.12 4.84 16.69 6.71 25.85 4.37a48.974 48.974 0 0 0 17.19-8.39z" fill="#f3ce7d"/><path d="m352.96 117.37 2.97 26.37-.36.04a48.974 48.974 0 0 1 -17.19 8.39c-9.16 2.34-17.73.47-25.85-4.37-8.66-5.15-19.83-7.36-36.85.21a50.13 50.13 0 0 1 -39.99.39c-14.75-8.18-20.66-8.5-42.16 1.06s-35.65-9.24-35.65-9.24l-.44-.06 3.21-22.8.23.03h191.91z" fill="#eb7288"/><path d="m351.17 101.5 1.79 15.87-.17.02h-191.91l-.23-.03 2.23-15.86.09.01h188.15z" fill="#af786b"/><path d="m350.45 95.13.72 6.37-.05.01h-188.15l-.09-.01 1.24-8.79a94.377 94.377 0 0 1 5.42-21.42c5.64 1.91 15.93 3.35 23.99-.23 21.5-9.56 27.41-9.24 42.16-1.06a50.13 50.13 0 0 0 39.99-.39c17.02-7.57 28.19-5.36 36.85-.21 8.12 4.84 16.69 6.71 25.85 4.37 1.62-.42 4.65-1.33 6.53-2.06a93.991 93.991 0 0 1 5.54 23.42z" fill="#4ca987"/><path d="m344.91 71.71c-1.88.73-4.91 1.64-6.53 2.06-9.16 2.34-17.73.47-25.85-4.37-8.66-5.15-19.83-7.36-36.85.21a50.13 50.13 0 0 1 -39.99.39c-14.75-8.18-20.66-8.5-42.16 1.06-8.06 3.58-18.35 2.14-23.99.23a93.816 93.816 0 0 1 175.37.42z" fill="#e1b7a3"/><g fill="#c79a83"><path d="m439.75 239.83v19.28a50.039 50.039 0 0 1 -2.56 15.85h-22.18l10.65-40.77h8.45a5.633 5.633 0 0 1 5.64 5.64z"/><path d="m392.79 234.19 14.96 40.77h-33.85l14.83-40.77z"/><path d="m356.65 234.19 14.68 40.77h-33.56l14.43-40.77z"/><path d="m320.63 234.19 14.43 40.77h-33.57l14.44-40.77z"/><path d="m283.99 234.19 14.79 40.77h-33.56l14.44-40.77z"/><path d="m248.08 234.19 14.43 40.77h-33.57l14.44-40.77z"/><path d="m211.8 234.19 14.44 40.77h-33.57l14.43-40.77z"/><path d="m174.86 234.19 15.1 40.77h-33.56l14.44-40.77z"/><path d="m139.11 234.19 14.74 40.77h-33.89l14.43-40.77z"/><path d="m102.88 234.19 14.64 40.77h-33.78l14.44-40.77z"/></g><path d="m74.81 275c.1 0 .21.525.32.835a49.9 49.9 0 0 0 47.1 33.165h267.54a49.665 49.665 0 0 0 47.42-34z" fill="#af786b"/><path d="m321.95 352.94a11.335 11.335 0 1 0 -11.33 11.35 11.337 11.337 0 0 0 11.33-11.35z" fill="#6d7486"/><path d="m208.85 352.94a11.335 11.335 0 1 0 -11.34 11.35 11.346 11.346 0 0 0 11.34-11.35z" fill="#6d7486"/><path d="m258.64 432.07c8.31.5 18.34 4.5 28.59 9.17v.01c-3.05 14.91-15.83 24.47-31.63 24.47a33.14 33.14 0 0 1 -20.13-6.57 30.82 30.82 0 0 1 -11.32-17.25c11.22-4.79 22.59-9.02 32.56-9.8a13.794 13.794 0 0 1 1.93-.03z" fill="#efc597"/><path d="m163.8 455.79c-18.22-4.81-33.77-17.81-40.56-24.18a1.811 1.811 0 0 1 1.35-3.13c5.38.28 11.74-.28 21.68-3.19 7.76-2.27 17.69-5.97 31.05-11.85 23.4-10.3 58.82-1.63 74.23 4.69a17.232 17.232 0 0 0 13.53-.25c14.28-6.39 45.29-13.57 68.8-4.44 14.98 5.81 24.98 9.48 32.25 11.74 10.09 3.14 14.93 3.58 20.5 3.3a1.812 1.812 0 0 1 1.34 3.13c-6.69 6.28-21.92 19.04-39.85 23.99a.01.01 0 0 1 -.01.01 48.586 48.586 0 0 1 -25.14.7c-10.43-2.65-23.25-9.36-35.74-15.06v-.01c-10.25-4.67-20.28-8.67-28.59-9.17a13.794 13.794 0 0 0 -1.93.03c-9.97.78-21.34 5.01-32.56 9.8-12.98 5.54-25.75 11.82-35.92 14.41a48.281 48.281 0 0 1 -24.43-.52z" fill="#6d7486"/><path d="m197.514 370.294a17.354 17.354 0 1 0 -17.335-17.354 17.364 17.364 0 0 0 17.335 17.354zm0-22.707a5.354 5.354 0 1 1 -5.335 5.353 5.349 5.349 0 0 1 5.335-5.353z" fill="#284268"/><path d="m310.616 370.294a17.354 17.354 0 1 0 -17.335-17.354 17.364 17.364 0 0 0 17.335 17.354zm0-22.707a5.354 5.354 0 1 1 -5.335 5.353 5.349 5.349 0 0 1 5.335-5.353z" fill="#284268"/><path d="m356.417 94.5a99.806 99.806 0 0 0 -198.237-2.627l-19.737 136.127h-72.193v31.111a55.995 55.995 0 0 0 55.978 56.061h10.172l.054 11.1a27.648 27.648 0 0 0 .265 54.145l.017 3.544a124.489 124.489 0 0 0 5.738 37.156 48.187 48.187 0 0 1 -13.575 1.361 7.817 7.817 0 0 0 -5.758 13.507c7.4 6.943 22.793 19.64 41.212 25.075 23.655 28.81 59.282 45.94 95.829 45.94 35.61 0 71.108-17.216 95.353-46.133 18.122-5.543 33.229-18.024 40.54-24.883a7.816 7.816 0 0 0 -5.754-13.5 37.731 37.731 0 0 1 -12.448-1.324 124.292 124.292 0 0 0 5.759-38.415l-.013-2.452a27.71 27.71 0 0 0 -.288-54.012l-.059-11.107h10.5a55.994 55.994 0 0 0 55.979-56.061v-31.113h-73.82zm32.563 258.8a15.5 15.5 0 0 1 -9.428 14.494l-.154-28.951a15.7 15.7 0 0 1 9.582 14.457zm-131.837-336.3a87.611 87.611 0 0 1 79.711 50.964c-7.082 1.8-14.037.582-21.259-3.718-12.26-7.3-26.113-7.341-42.349-.123a43.883 43.883 0 0 1 -34.8.544c-16.791-9.284-24.8-9.117-47.352.907-3.811 1.694-8.709 1.958-13.143 1.44a88.119 88.119 0 0 1 79.192-50.014zm-87.073 76.492a87.688 87.688 0 0 1 3.353-15.034c6.824 1.262 15.345 1.282 22.545-1.919 20.118-8.943 24.006-8.395 36.813-1.291q.121.066.246.129a55.987 55.987 0 0 0 45.094-.289c16.355-7.271 25.336-4.1 31.334-.532a40.947 40.947 0 0 0 21.111 6.213 37.453 37.453 0 0 0 9.305-1.189c.351-.09.789-.209 1.265-.343a89.158 89.158 0 0 1 3.313 16.268h-174.662zm-1.97 14.013h177.707l.437 3.882h-178.692zm-2.235 15.882h181.735l1.954 17.33a44.1 44.1 0 0 1 -12.653 5.637c-7.1 1.813-14.066.6-21.3-3.708-12.26-7.3-26.113-7.341-42.349-.123a43.861 43.861 0 0 1 -34.8.543c-16.792-9.284-24.806-9.115-47.352.908-13.886 6.173-23.963-2.538-27.276-6.05zm-4.016 28.533c8.169 5.47 20.241 9.19 34.121 3.019 20.119-8.944 24.007-8.395 36.813-1.291.081.044.163.087.246.128a55.98 55.98 0 0 0 45.094-.288c16.355-7.271 25.336-4.1 31.334-.532a40.947 40.947 0 0 0 21.111 6.213 37.453 37.453 0 0 0 9.305-1.189 54.871 54.871 0 0 0 11.145-4.271l1.852 16.432h-193.588zm-4.254 30.221h196.626l.438 3.882h-197.612zm-2.235 15.882h200.652l3.842 29.977h-209.293zm207.44 70.939h-16.543l8.2-23.161zm-19.081-28.776-7.3 20.619-7.3-20.619zm-17.142 28.776h-16.599l8.3-23.435zm-19.136-28.776-7.354 20.77-7.534-20.77zm-17.214 28.776h-16.516l8.156-23.036zm-19.054-28.776-7.3 20.622-7.3-20.622zm-17.144 28.776h-16.598l8.3-23.435zm-19.136-28.776-7.3 20.614-7.3-20.614zm-17.138 28.776h-16.598l8.3-23.435zm-19.136-28.776-7.4 20.9-7.734-20.9zm-17.278 28.776h-16.447l8.039-22.7zm-18.985-28.776-7.269 20.531-7.424-20.531zm-25.566 5.222 8.518 23.554h-16.861zm-10.881-5.222-7.2 20.327-7.3-20.327zm-25.354 5.275 8.441 23.5h-16.766zm-21.05 23.5h-.145a44.244 44.244 0 0 1 -1.11-9.851v-18.924h11.439zm43.038 84.339a15.7 15.7 0 0 1 9.968-14.526l.143 29.09a16 16 0 0 1 -10.111-14.564zm133.639 141.7c-28.443 0-56.3-11.52-77.146-31.4a49.8 49.8 0 0 0 10.672-1.478c8.141-2.066 17.452-6.189 27.31-10.554q1.809-.8 3.627-1.6c6.068 13.251 19.362 21.759 34.957 21.759 16.17 0 29.55-8.655 35.294-22.16q1.144.537 2.285 1.077c10.125 4.778 19.689 9.291 28.316 11.48a49.792 49.792 0 0 0 10.964 1.5c-21.161 19.864-48.714 31.376-76.279 31.376zm-24.468-49.751c9.029-3.656 17.8-6.567 25.463-7.171a7.684 7.684 0 0 1 1.1-.016h.006c6.119.367 13.707 3.063 21.694 6.52-3.817 9.332-12.927 15.142-24.371 15.142-10.631 0-19.674-5.654-23.892-14.475zm144.378-11.374c-11.692 9.149-32.059 21.588-51.643 16.615-7.5-1.905-16.56-6.178-26.147-10.7-13.544-6.392-27.55-13-39.306-13.7a20.044 20.044 0 0 0 -2.754.03c-13.844 1.091-29.216 7.9-44.082 14.481-9.382 4.154-18.244 8.078-25.4 9.895-19.544 4.96-39.865-7.414-51.568-16.555 9.655-1.389 22.825-5.452 44.548-15 20.364-8.957 53.463-1.839 69.543 4.752a23.284 23.284 0 0 0 18.25-.328c13.534-6.048 42.927-12.57 64.185-4.323 24.418 9.464 36.096 13.421 44.374 14.833zm-231.7-118.7h222.879l.361 67.633a112.293 112.293 0 0 1 -5.232 34.839c-6.434-2.2-14.862-5.346-26.345-9.8-24.833-9.636-57.515-2.554-73.422 4.553a11.234 11.234 0 0 1 -8.8.181 144.827 144.827 0 0 0 -35.673-8.98c-17.339-2.112-31.891-.651-43.252 4.347-10.245 4.506-18.342 7.665-24.889 9.865a112.468 112.468 0 0 1 -5.284-33.9zm245.375-12h-267.539a44.08 44.08 0 0 1 -38.192-22.21h343.945a43.917 43.917 0 0 1 -38.21 22.207zm40.523-62.986h3.456v18.925a44.272 44.272 0 0 1 -1.111 9.851h-9.857zm-12.4 0-6.865 26.293-9.648-26.293zm-27.118 5.934 8.381 22.842h-16.69zm-18.137 14.756-7.449-20.69h14.975z" fill="#284268"/></svg>